{
.appVersion = "1286";
copyright = "Copyright 2019 Google LLC. All Rights Reserved.";
customParameters = (
{
name = openTypeOS2VendorID;
value = GOOG;
},
{
name = glyphOrder;
value = (
.notdef,
NULL,
CR,
space,
uni0C00,
candrabindutelu,
anusvaratelu,
visargatelu,
uni0C04,
atelu,
aatelu,
itelu,
iitelu,
utelu,
uutelu,
rvocalictelu,
lvocalictelu,
etelu,
eetelu,
aitelu,
otelu,
ootelu,
autelu,
katelu,
khatelu,
gatelu,
ghatelu,
ngatelu,
catelu,
chatelu,
jatelu,
jhatelu,
nyatelu,
ttatelu,
tthatelu,
ddatelu,
ddhatelu,
nnatelu,
tatelu,
thatelu,
datelu,
dhatelu,
natelu,
patelu,
phatelu,
batelu,
bhatelu,
matelu,
yatelu,
ratelu,
rratelu,
latelu,
llatelu,
lllatelu,
vatelu,
shatelu,
ssatelu,
satelu,
hatelu,
avagrahatelu,
aavowelsigntelu,
ivowelsigntelu,
iivowelsigntelu,
uvowelsigntelu,
uuvowelsigntelu,
rvocalicvowelsigntelu,
rrvocalicvowelsigntelu,
evowelsigntelu,
eevowelsigntelu,
aivowelsigntelu,
ovowelsigntelu,
oovowelsigntelu,
auvowelsigntelu,
viramatelu,
lengthmarktelu,
ailengthmarktelu,
tsatelu,
dzatelu,
rrratelu,
rrvocalictelu,
llvocalictelu,
lvocalicvowelsigntelu,
llvocalicvowelsigntelu,
zerotelu,
onetelu,
twotelu,
threetelu,
fourtelu,
fivetelu,
sixtelu,
seventelu,
eighttelu,
ninetelu,
uni0C77,
uni0C78,
uni0C79,
uni0C7A,
uni0C7B,
uni0C7C,
uni0C7D,
uni0C7E,
uni0C7F,
kassatelu,
kahalanttelu,
khahalanttelu,
gahalanttelu,
ghahalanttelu,
ngahalanttelu,
cahalanttelu,
chahalanttelu,
jahalanttelu,
jhahalanttelu,
nyahalanttelu,
ttahalanttelu,
tthahalanttelu,
ddahalanttelu,
ddhahalanttelu,
nnahalanttelu,
tahalanttelu,
thahalanttelu,
dahalanttelu,
dhahalanttelu,
nahalanttelu,
pahalanttelu,
phahalanttelu,
bahalanttelu,
bhahalanttelu,
mahalanttelu,
yahalanttelu,
rahalanttelu,
rrahalanttelu,
lahalanttelu,
llahalanttelu,
vahalanttelu,
shahalanttelu,
ssahalanttelu,
sahalanttelu,
hahalanttelu,
kassahalanttelu,
kaavoweltelu,
khaavoweltelu,
gaavoweltelu,
ghaavoweltelu,
ngaavoweltelu,
caavoweltelu,
chaavoweltelu,
jaavoweltelu,
jhaavoweltelu,
nyaavoweltelu,
ttaavoweltelu,
tthaavoweltelu,

glyphs = (
{
glyphname = .notdef;
lastChange = "2020-01-21 19:05:11 +0000";
layers = (
{
layerId = "1282F4F2-4030-47E6-A043-DFF1281EB459";
paths = (
{
closed = 1;
nodes = (
"505 0 LINE",
"505 714 LINE",
"94 714 LINE",
"94 0 LINE"
);
},
{
closed = 1;
nodes = (
"145 663 LINE",
"454 663 LINE",
"454 51 LINE",
"145 51 LINE"
);
}
);
width = 600;
},
{
layerId = UUID0;
paths = (
{
closed = 1;
nodes = (
"505 0 LINE",
"505 714 LINE",
"94 714 LINE",
"94 0 LINE"
);
},
{
closed = 1;
nodes = (
"145 663 LINE",
"454 663 LINE",
"454 51 LINE",
"145 51 LINE"
);
}
);
width = 600;
},
{
layerId = "A2C49E55-5C54-436C-AF3A-B2B174879BD8";
paths = (
{
closed = 1;
nodes = (
"505 0 LINE",
"505 714 LINE",
"94 714 LINE",
"94 0 LINE"
);
},
{
closed = 1;
nodes = (
"145 663 LINE",
"454 663 LINE",
"454 51 LINE",
"145 51 LINE"
);
}
);
width = 600;
}
);
},
{
glyphname = uni0C00;
lastChange = "2020-01-21 19:05:42 +0000";
layers = (
{
layerId = "1282F4F2-4030-47E6-A043-DFF1281EB459";
paths = (
{
closed = 1;
nodes = (
"-193 618 OFFCURVE",
"-142 675 OFFCURVE",
"-142 751 CURVE SMOOTH",
"-142 770 OFFCURVE",
"-144 786 OFFCURVE",
"-148 803 CURVE",
"-173 798 LINE",
"-169 784 OFFCURVE",
"-167 767 OFFCURVE",
"-167 753 CURVE SMOOTH",
"-167 677 OFFCURVE",
"-219 643 OFFCURVE",
"-286 643 CURVE SMOOTH",
"-353 643 OFFCURVE",
"-405 673 OFFCURVE",
"-405 753 CURVE SMOOTH",
"-405 766 OFFCURVE",
"-403 784 OFFCURVE",
"-399 798 CURVE",
"-424 803 LINE",
"-428 786 OFFCURVE",
"-430 772 OFFCURVE",
"-430 753 CURVE SMOOTH",
"-430 673 OFFCURVE",
"-383 618 OFFCURVE",
"-286 618 CURVE SMOOTH"
);
},
{
closed = 1;
nodes = (
"-267 724 OFFCURVE",
"-254 735 OFFCURVE",
"-254 759 CURVE SMOOTH",
"-254 780 OFFCURVE",
"-265 794 OFFCURVE",
"-286 794 CURVE SMOOTH",
"-306 794 OFFCURVE",
"-319 781 OFFCURVE",
"-319 759 CURVE SMOOTH",
"-319 736 OFFCURVE",
"-304 724 OFFCURVE",
"-286 724 CURVE SMOOTH"
);
}
);
width = 0;
},
{
layerId = UUID0;
paths = (
{
closed = 1;
nodes = (
"-182 598 OFFCURVE",
"-124 654 OFFCURVE",
"-124 753 CURVE SMOOTH",
"-124 772 OFFCURVE",
"-127 792 OFFCURVE",
"-132 808 CURVE",
"-174 799 LINE",
"-171 787 OFFCURVE",
"-170 778 OFFCURVE",
"-170 769 CURVE SMOOTH",
"-170 691 OFFCURVE",
"-224 669 OFFCURVE",
"-286 669 CURVE SMOOTH",
"-349 669 OFFCURVE",
"-403 691 OFFCURVE",
"-403 769 CURVE SMOOTH",
"-403 777 OFFCURVE",
"-402 787 OFFCURVE",
"-399 799 CURVE",
"-441 808 LINE",
"-446 792 OFFCURVE",
"-449 772 OFFCURVE",
"-449 753 CURVE SMOOTH",
"-449 654 OFFCURVE",
"-391 598 OFFCURVE",
"-286 598 CURVE SMOOTH"
);
},
{
closed = 1;
nodes = (
"-258 705 OFFCURVE",
"-236 725 OFFCURVE",
"-236 756 CURVE SMOOTH",
"-236 784 OFFCURVE",
"-257 806 OFFCURVE",
"-286 806 CURVE SMOOTH",
"-315 806 OFFCURVE",
"-337 784 OFFCURVE",
"-337 756 CURVE SMOOTH",
"-337 725 OFFCURVE",
"-316 705 OFFCURVE",
"-287 705 CURVE SMOOTH"
);
}
);
width = 0;
},
{
layerId = "A2C49E55-5C54-436C-AF3A-B2B174879BD8";
paths = (
{
closed = 1;
nodes = (
"-182 587 OFFCURVE",
"-110 643 OFFCURVE",
"-110 752 CURVE SMOOTH",
"-110 775 OFFCURVE",
"-113 798 OFFCURVE",
"-118 814 CURVE",
"-184 803 LINE",
"-181 793 OFFCURVE",
"-180 780 OFFCURVE",
"-180 771 CURVE SMOOTH",
"-180 713 OFFCURVE",
"-216 681 OFFCURVE",
"-286 681 CURVE SMOOTH",
"-358 681 OFFCURVE",
"-393 713 OFFCURVE",
"-393 770 CURVE SMOOTH",
"-393 781 OFFCURVE",
"-392 792 OFFCURVE",
"-389 803 CURVE",
"-455 814 LINE",
"-460 798 OFFCURVE",
"-463 777 OFFCURVE",
"-463 751 CURVE SMOOTH",
"-463 643 OFFCURVE",
"-391 587 OFFCURVE",
"-286 587 CURVE SMOOTH"
);
},
{
closed = 1;
nodes = (
"-245 703 OFFCURVE",
"-223 725 OFFCURVE",
"-223 758 CURVE SMOOTH",
"-223 788 OFFCURVE",
"-246 810 OFFCURVE",
"-287 810 CURVE SMOOTH",
"-329 810 OFFCURVE",
"-350 788 OFFCURVE",
"-350 758 CURVE SMOOTH",
"-350 725 OFFCURVE",
"-329 703 OFFCURVE",
"-287 703 CURVE SMOOTH"
);
}
);
width = 0;
}
);
unicode = 0C00;
},
{
glyphname = candrabindutelu;
lastChange = "2020-01-21 19:05:11 +0000";
layers = (
{
layerId = "1282F4F2-4030-47E6-A043-DFF1281EB459";
paths = (
{
closed = 1;
nodes = (
"39 57 OFFCURVE",
"120 -12 OFFCURVE",
"239 -12 CURVE SMOOTH",
"250 -12 LINE",
"250 14 LINE",
"130 14 OFFCURVE",
"66 72 OFFCURVE",
"66 197 CURVE SMOOTH",
"66 325 OFFCURVE",
"144 380 OFFCURVE",
"248 380 CURVE",
"253 406 LINE",
"250 406 LINE SMOOTH",
"124 406 OFFCURVE",
"39 331 OFFCURVE",
"39 197 CURVE SMOOTH"
);
}
);
width = 270;
},
{
layerId = UUID0;
paths = (
{
closed = 1;
nodes = (
"33 67 OFFCURVE",
"125 -12 OFFCURVE",
"248 -12 CURVE SMOOTH",
"265 -12 LINE",
"265 94 LINE",
"175 94 OFFCURVE",
"94 122 OFFCURVE",
"94 234 CURVE SMOOTH",
"94 341 OFFCURVE",
"177 383 OFFCURVE",
"262 383 CURVE",
"268 428 LINE",
"260 428 LINE SMOOTH",
"121 428 OFFCURVE",
"33 341 OFFCURVE",
"33 207 CURVE SMOOTH"
);
}
);
width = 287;
},
{
layerId = "A2C49E55-5C54-436C-AF3A-B2B174879BD8";
paths = (
{
closed = 1;
nodes = (
"29 73 OFFCURVE",
"119 -12 OFFCURVE",
"269 -12 CURVE SMOOTH",
"284 -12 LINE",
"284 191 LINE",
"173 191 OFFCURVE",
"127 216 OFFCURVE",
"127 278 CURVE SMOOTH",
"127 347 OFFCURVE",
"180 381 OFFCURVE",
"279 381 CURVE",
"289 441 LINE",
"269 441 LINE SMOOTH",
"125 441 OFFCURVE",
"29 353 OFFCURVE",
"29 213 CURVE SMOOTH"
);
}
);
width = 313;
}
);
unicode = 0C01;
},
{
glyphname = anusvaratelu;
lastChange = "2020-01-21 19:05:31 +0000";
layers = (
{
layerId = "1282F4F2-4030-47E6-A043-DFF1281EB459";
paths = (
{
closed = 1;
nodes = (
"39 68 OFFCURVE",
"112 -12 OFFCURVE",
"227 -12 CURVE SMOOTH",
"344 -12 OFFCURVE",
"417 77 OFFCURVE",
"417 197 CURVE SMOOTH",
"417 323 OFFCURVE",
"343 406 OFFCURVE",
"230 406 CURVE SMOOTH",
"116 406 OFFCURVE",
"39 321 OFFCURVE",
"39 197 CURVE SMOOTH"
);
},
{
closed = 1;
nodes = (
"66 301 OFFCURVE",
"123 381 OFFCURVE",
"230 381 CURVE SMOOTH",
"332 381 OFFCURVE",
"390 308 OFFCURVE",
"390 198 CURVE SMOOTH",
"390 95 OFFCURVE",
"333 15 OFFCURVE",
"227 15 CURVE SMOOTH",
"126 15 OFFCURVE",
"66 83 OFFCURVE",
"66 198 CURVE SMOOTH"
);
}
);
width = 456;
},
{
layerId = UUID0;
paths = (
{
closed = 1;
nodes = (
"33 78 OFFCURVE",
"112 -13 OFFCURVE",
"245 -13 CURVE SMOOTH",
"376 -13 OFFCURVE",
"457 76 OFFCURVE",
"457 207 CURVE SMOOTH",
"457 331 OFFCURVE",
"379 428 OFFCURVE",
"246 428 CURVE SMOOTH",
"111 428 OFFCURVE",
"33 329 OFFCURVE",
"33 207 CURVE SMOOTH"
);
},
{
closed = 1;
nodes = (
"94 323 OFFCURVE",
"153 383 OFFCURVE",
"246 383 CURVE SMOOTH",
"340 383 OFFCURVE",
"396 322 OFFCURVE",
"396 233 CURVE SMOOTH",
"396 149 OFFCURVE",
"343 92 OFFCURVE",
"245 92 CURVE SMOOTH",
"147 92 OFFCURVE",
"94 150 OFFCURVE",
"94 233 CURVE SMOOTH"
);
}
);
width = 490;
},
{
layerId = "A2C49E55-5C54-436C-AF3A-B2B174879BD8";
paths = (
{
closed = 1;
nodes = (
"29 79 OFFCURVE",
"108 -12 OFFCURVE",
"256 -12 CURVE SMOOTH",
"402 -12 OFFCURVE",
"484 76 OFFCURVE",
"484 213 CURVE SMOOTH",
"484 343 OFFCURVE",
"401 441 OFFCURVE",
"257 441 CURVE SMOOTH",
"113 441 OFFCURVE",
"29 341 OFFCURVE",
"29 213 CURVE SMOOTH"
);
},
{
closed = 1;
nodes = (
"127 343 OFFCURVE",
"176 383 OFFCURVE",
"257 383 CURVE SMOOTH",
"340 383 OFFCURVE",
"386 343 OFFCURVE",
"386 278 CURVE SMOOTH",
"386 223 OFFCURVE",
"343 188 OFFCURVE",
"256 188 CURVE SMOOTH",
"169 188 OFFCURVE",
"127 225 OFFCURVE",
"127 278 CURVE SMOOTH"
);
}
);
width = 513;
}
);
unicode = 0C02;
},
{
glyphname = visargatelu;
lastChange = "2020-01-21 19:05:11 +0000";
layers = (
{
layerId = "1282F4F2-4030-47E6-A043-DFF1281EB459";
paths = (
{
closed = 1;
nodes = (
"208 269 OFFCURVE",
"247 315 OFFCURVE",
"247 382 CURVE SMOOTH",
"247 446 OFFCURVE",
"209 493 OFFCURVE",
"140 493 CURVE SMOOTH",
"72 493 OFFCURVE",
"33 446 OFFCURVE",
"33 380 CURVE SMOOTH",
"33 316 OFFCURVE",
"72 269 OFFCURVE",
"140 269 CURVE SMOOTH"
);
},
{
closed = 1;
nodes = (
"85 294 OFFCURVE",
"59 330 OFFCURVE",
"59 381 CURVE SMOOTH",
"59 432 OFFCURVE",
"85 468 OFFCURVE",
"140 468 CURVE SMOOTH",
"192 468 OFFCURVE",
"221 432 OFFCURVE",
"221 381 CURVE SMOOTH",
"221 330 OFFCURVE",
"192 294 OFFCURVE",
"140 294 CURVE SMOOTH"
);
},
{
closed = 1;
nodes = (
"208 -12 OFFCURVE",
"247 34 OFFCURVE",
"247 100 CURVE SMOOTH",
"247 165 OFFCURVE",
"208 212 OFFCURVE",
"140 212 CURVE SMOOTH",
"72 212 OFFCURVE",
"33 165 OFFCURVE",
"33 100 CURVE SMOOTH",
"33 35 OFFCURVE",
"72 -12 OFFCURVE",
"140 -12 CURVE SMOOTH"
);
},
{
closed = 1;
nodes = (
"85 13 OFFCURVE",
"59 49 OFFCURVE",
"59 100 CURVE SMOOTH",
"59 151 OFFCURVE",
"85 187 OFFCURVE",
"140 187 CURVE SMOOTH",
"191 187 OFFCURVE",
"221 151 OFFCURVE",
"221 100 CURVE SMOOTH",
"221 49 OFFCURVE",
"192 13 OFFCURVE",
"140 13 CURVE SMOOTH"
);
}
);
width = 280;
},
{
layerId = UUID0;
paths = (
{
closed = 1;
nodes = (
"213 270 OFFCURVE",
"256 316 OFFCURVE",
"256 385 CURVE SMOOTH",
"256 449 OFFCURVE",
"215 500 OFFCURVE",
"142 500 CURVE SMOOTH",
"69 500 OFFCURVE",
"28 449 OFFCURVE",
"28 385 CURVE SMOOTH",
"28 317 OFFCURVE",
"71 270 OFFCURVE",
"142 270 CURVE SMOOTH"
);
},
{
closed = 1;
nodes = (
"101 341 OFFCURVE",
"78 365 OFFCURVE",
"78 398 CURVE SMOOTH",
"78 436 OFFCURVE",
"103 460 OFFCURVE",
"142 460 CURVE SMOOTH",
"183 460 OFFCURVE",
"206 435 OFFCURVE",
"206 398 CURVE SMOOTH",
"206 365 OFFCURVE",
"185 341 OFFCURVE",
"142 341 CURVE SMOOTH"
);
},
{
closed = 1;
nodes = (
"213 -12 OFFCURVE",
"256 34 OFFCURVE",
"256 103 CURVE SMOOTH",
"256 167 OFFCURVE",
"215 218 OFFCURVE",
"142 218 CURVE SMOOTH",
"69 218 OFFCURVE",
"28 167 OFFCURVE",
"28 103 CURVE SMOOTH",
"28 35 OFFCURVE",
"71 -12 OFFCURVE",
"142 -12 CURVE SMOOTH"
);
},
{
closed = 1;
nodes = (
"101 59 OFFCURVE",
"78 83 OFFCURVE",
"78 116 CURVE SMOOTH",
"78 154 OFFCURVE",
"103 178 OFFCURVE",
"142 178 CURVE SMOOTH",
"183 178 OFFCURVE",
"206 153 OFFCURVE",
"206 116 CURVE SMOOTH",
"206 83 OFFCURVE",
"185 59 OFFCURVE",
"142 59 CURVE SMOOTH"
);
}
);
width = 284;
},
{
layerId = "A2C49E55-5C54-436C-AF3A-B2B174879BD8";
paths = (
{
closed = 1;
nodes = (
"230 260 OFFCURVE",
"280 303 OFFCURVE",
"280 386 CURVE SMOOTH",
"280 464 OFFCURVE",
"232 511 OFFCURVE",
"152 511 CURVE SMOOTH",
"74 511 OFFCURVE",
"24 464 OFFCURVE",
"24 386 CURVE SMOOTH",
"24 304 OFFCURVE",
"74 260 OFFCURVE",
"152 260 CURVE SMOOTH"
);
},
{
closed = 1;
nodes = (
"110 378 OFFCURVE",
"92 391 OFFCURVE",
"92 419 CURVE SMOOTH",
"92 448 OFFCURVE",
"112 463 OFFCURVE",
"151 463 CURVE SMOOTH",
"193 463 OFFCURVE",
"212 447 OFFCURVE",
"212 419 CURVE SMOOTH",
"212 390 OFFCURVE",
"191 378 OFFCURVE",
"150 378 CURVE SMOOTH"
);
},
{
closed = 1;
nodes = (
"230 -12 OFFCURVE",
"280 31 OFFCURVE",
"280 114 CURVE SMOOTH",
"280 192 OFFCURVE",
"232 239 OFFCURVE",
"152 239 CURVE SMOOTH",
"74 239 OFFCURVE",
"24 192 OFFCURVE",
"24 114 CURVE SMOOTH",
"24 32 OFFCURVE",
"74 -12 OFFCURVE",
"152 -12 CURVE SMOOTH"
);
},
{
closed = 1;
nodes = (
"110 106 OFFCURVE",
"92 119 OFFCURVE",
"92 147 CURVE SMOOTH",
"92 176 OFFCURVE",
"112 191 OFFCURVE",
"151 191 CURVE SMOOTH",
"193 191 OFFCURVE",
"212 175 OFFCURVE",
"212 147 CURVE SMOOTH",
"212 118 OFFCURVE",
"191 106 OFFCURVE",
"150 106 CURVE SMOOTH"
);
}
);
width = 304;
}
);
unicode = 0C03;
},
{
glyphname = uni0C04;
lastChange = "2020-01-21 19:05:42 +0000";
layers = (
{
layerId = "1282F4F2-4030-47E6-A043-DFF1281EB459";
paths = (
{
closed = 1;
nodes = (
"-394 658 OFFCURVE",
"-353 611 OFFCURVE",
"-286 611 CURVE SMOOTH",
"-219 611 OFFCURVE",
"-178 658 OFFCURVE",
"-178 724 CURVE SMOOTH",
"-178 787 OFFCURVE",
"-218 835 OFFCURVE",
"-286 835 CURVE SMOOTH",
"-354 835 OFFCURVE",
"-394 787 OFFCURVE",
"-394 722 CURVE SMOOTH"
);
},
{
closed = 1;
nodes = (
"-368 774 OFFCURVE",
"-341 811 OFFCURVE",
"-286 811 CURVE SMOOTH",
"-231 811 OFFCURVE",
"-204 774 OFFCURVE",
"-204 723 CURVE SMOOTH",
"-204 673 OFFCURVE",
"-231 636 OFFCURVE",
"-286 636 CURVE SMOOTH",
"-341 636 OFFCURVE",
"-368 673 OFFCURVE",
"-368 723 CURVE SMOOTH"
);
}
);
width = 0;
},
{
layerId = UUID0;
paths = (
{
closed = 1;
nodes = (
"-406 644 OFFCURVE",
"-364 595 OFFCURVE",
"-286 595 CURVE SMOOTH",
"-208 595 OFFCURVE",
"-166 644 OFFCURVE",
"-166 713 CURVE SMOOTH",
"-166 780 OFFCURVE",
"-214 830 OFFCURVE",
"-286 830 CURVE SMOOTH",
"-358 830 OFFCURVE",
"-406 780 OFFCURVE",
"-406 713 CURVE SMOOTH"
);
},
{
closed = 1;
nodes = (
"-357 762 OFFCURVE",
"-331 789 OFFCURVE",
"-286 789 CURVE SMOOTH",
"-238 789 OFFCURVE",
"-213 762 OFFCURVE",
"-213 726 CURVE SMOOTH",
"-213 687 OFFCURVE",
"-237 660 OFFCURVE",
"-286 660 CURVE SMOOTH",
"-335 660 OFFCURVE",
"-357 687 OFFCURVE",
"-357 726 CURVE SMOOTH"
);
}
);
width = 0;
},
{
layerId = "A2C49E55-5C54-436C-AF3A-B2B174879BD8";
paths = (
{
closed = 1;
nodes = (
"-421 636 OFFCURVE",
"-375 583 OFFCURVE",
"-287 583 CURVE SMOOTH",
"-198 583 OFFCURVE",
"-152 636 OFFCURVE",
"-152 713 CURVE SMOOTH",
"-152 781 OFFCURVE",
"-201 836 OFFCURVE",
"-286 836 CURVE SMOOTH",
"-373 836 OFFCURVE",
"-421 781 OFFCURVE",
"-421 712 CURVE SMOOTH"
);
},
{
closed = 1;
nodes = (
"-347 759 OFFCURVE",
"-325 784 OFFCURVE",
"-287 784 CURVE SMOOTH",
"-248 784 OFFCURVE",
"-226 759 OFFCURVE",
"-226 726 CURVE SMOOTH",
"-226 691 OFFCURVE",
"-246 671 OFFCURVE",
"-287 671 CURVE SMOOTH",
"-327 671 OFFCURVE",
"-347 691 OFFCURVE",
"-347 726 CURVE SMOOTH"
);
}
);
width = 0;
}
);
unicode = 0C04;
},
{
glyphname = atelu;
lastChange = "2020-01-21 19:05:42 +0000";
layers = (
{
layerId = "1282F4F2-4030-47E6-A043-DFF1281EB459";
paths = (
{
closed = 1;
nodes = (
"572 -12 OFFCURVE",
"694 89 OFFCURVE",
"694 281 CURVE SMOOTH",
"694 407 OFFCURVE",
"637 493 OFFCURVE",
"546 493 CURVE SMOOTH",
"483 493 OFFCURVE",
"438 446 OFFCURVE",
"438 382 CURVE SMOOTH",
"438 308 OFFCURVE",
"491 263 OFFCURVE",
"556 226 CURVE",
"559 238 LINE",
"263 238 LINE",
"263 214 LINE",
"567 214 LINE",
"576 236 LINE",
"513 275 OFFCURVE",
"465 318 OFFCURVE",
"465 380 CURVE SMOOTH",
"465 434 OFFCURVE",
"498 468 OFFCURVE",
"545 468 CURVE SMOOTH",
"624 468 OFFCURVE",
"668 388 OFFCURVE",
"668 280 CURVE SMOOTH",
"668 109 OFFCURVE",
"565 15 OFFCURVE",
"363 15 CURVE SMOOTH",
"171 15 OFFCURVE",
"68 120 OFFCURVE",
"68 269 CURVE SMOOTH",
"68 374 OFFCURVE",
"110 431 OFFCURVE",
"167 464 CURVE",
"167 465 LINE",
"135 439 OFFCURVE",
"122 415 OFFCURVE",
"122 381 CURVE SMOOTH",
"122 309 OFFCURVE",
"168 274 OFFCURVE",
"228 274 CURVE SMOOTH",
"290 274 OFFCURVE",
"334 316 OFFCURVE",
"334 383 CURVE SMOOTH",
"334 452 OFFCURVE",
"287 493 OFFCURVE",
"222 493 CURVE SMOOTH",
"136 493 OFFCURVE",
"42 420 OFFCURVE",
"42 270 CURVE SMOOTH",
"42 108 OFFCURVE",
"150 -12 OFFCURVE",
"363 -12 CURVE SMOOTH"
);
},
{
closed = 1;
nodes = (
"307 333 OFFCURVE",
"280 299 OFFCURVE",
"229 299 CURVE SMOOTH",
"183 299 OFFCURVE",
"147 323 OFFCURVE",
"147 383 CURVE SMOOTH",
"147 433 OFFCURVE",
"178 468 OFFCURVE",
"225 468 CURVE SMOOTH",
"275 468 OFFCURVE",
"307 434 OFFCURVE",
"307 383 CURVE SMOOTH"
);
}
);
width = 736;
},
{
layerId = UUID0;
paths = (
{
closed = 1;
nodes = (
"640 -12 OFFCURVE",
"727 94 OFFCURVE",
"727 269 CURVE SMOOTH",
"727 382 OFFCURVE",
"673 500 OFFCURVE",
"556 500 CURVE SMOOTH",
"476 500 OFFCURVE",
"434 450 OFFCURVE",
"434 385 CURVE SMOOTH",
"434 323 OFFCURVE",
"481 271 OFFCURVE",
"543 247 CURVE",
"559 261 LINE",
"289 261 LINE",
"289 210 LINE",
"577 210 LINE",
"589 253 LINE",
"533 284 OFFCURVE",
"500 319 OFFCURVE",
"500 365 CURVE SMOOTH",
"500 406 OFFCURVE",
"526 428 OFFCURVE",
"567 428 CURVE SMOOTH",
"630 428 OFFCURVE",
"680 375 OFFCURVE",
"680 281 CURVE SMOOTH",
"680 160 OFFCURVE",
"603 99 OFFCURVE",
"374 99 CURVE SMOOTH",
"174 99 OFFCURVE",
"81 163 OFFCURVE",
"81 277 CURVE SMOOTH",
"81 340 OFFCURVE",
"103 381 OFFCURVE",
"136 410 CURVE",
"129 415 LINE",
"123 402 OFFCURVE",
"121 389 OFFCURVE",
"121 379 CURVE SMOOTH",
"121 302 OFFCURVE",
"170 261 OFFCURVE",
"238 261 CURVE SMOOTH",
"313 261 OFFCURVE",
"358 311 OFFCURVE",
"358 381 CURVE SMOOTH",
"358 446 OFFCURVE",
"316 500 OFFCURVE",
"231 500 CURVE SMOOTH",
"117 500 OFFCURVE",
"35 406 OFFCURVE",
"35 267 CURVE SMOOTH",
"35 79 OFFCURVE",
"156 -12 OFFCURVE",
"374 -12 CURVE SMOOTH"
);
},
{
closed = 1;
nodes = (
"299 328 OFFCURVE",
"272 304 OFFCURVE",
"238 304 CURVE SMOOTH",
"204 304 OFFCURVE",
"173 322 OFFCURVE",
"173 371 CURVE SMOOTH",
"173 415 OFFCURVE",
"202 438 OFFCURVE",
"234 438 CURVE SMOOTH",
"272 438 OFFCURVE",
"299 412 OFFCURVE",
"299 371 CURVE SMOOTH"
);
}
);
width = 762;
},
{
layerId = "A2C49E55-5C54-436C-AF3A-B2B174879BD8";
paths = (
{
closed = 1;
nodes = (
"666 -12 OFFCURVE",
"767 89 OFFCURVE",
"767 293 CURVE SMOOTH",
"767 407 OFFCURVE",
"703 511 OFFCURVE",
"580 511 CURVE SMOOTH",
"483 511 OFFCURVE",
"446 458 OFFCURVE",
"446 402 CURVE SMOOTH",
"446 335 OFFCURVE",
"503 283 OFFCURVE",
"565 261 CURVE",
"549 300 LINE",
"317 300 LINE",
"317 236 LINE",
"604 236 LINE",
"621 273 LINE",
"579 298 OFFCURVE",
"554 319 OFFCURVE",
"554 357 CURVE SMOOTH",
"554 398 OFFCURVE",
"583 414 OFFCURVE",
"614 414 CURVE SMOOTH",
"652 414 OFFCURVE",
"693 385 OFFCURVE",
"693 321 CURVE SMOOTH",
"693 223 OFFCURVE",
"633 185 OFFCURVE",
"392 185 CURVE SMOOTH",
"187 185 OFFCURVE",
"103 226 OFFCURVE",
"103 333 CURVE SMOOTH",
"103 384 OFFCURVE",
"127 421 OFFCURVE",
"162 436 CURVE",
"135 440 LINE",
"124 419 OFFCURVE",
"114 397 OFFCURVE",
"114 371 CURVE SMOOTH",
"114 304 OFFCURVE",
"159 261 OFFCURVE",
"239 261 CURVE SMOOTH",
"312 261 OFFCURVE",
"371 304 OFFCURVE",
"371 387 CURVE SMOOTH",
"371 459 OFFCURVE",
"324 511 OFFCURVE",
"233 511 CURVE SMOOTH",
"119 511 OFFCURVE",
"29 425 OFFCURVE",
"29 281 CURVE SMOOTH",
"29 75 OFFCURVE",
"164 -12 OFFCURVE",
"392 -12 CURVE SMOOTH"
);
},
{
closed = 1;
nodes = (
"284 329 OFFCURVE",
"258 319 OFFCURVE",
"231 319 CURVE SMOOTH",
"201 319 OFFCURVE",
"178 337 OFFCURVE",
"178 376 CURVE SMOOTH",
"178 409 OFFCURVE",
"199 430 OFFCURVE",
"231 430 CURVE SMOOTH",
"269 430 OFFCURVE",
"284 406 OFFCURVE",
"284 376 CURVE SMOOTH"
);
}
);
width = 796;
}
);
unicode = 0C05;
},
{
glyphname = aatelu;
lastChange = "2020-01-21 19:05:42 +0000";
layers = (
{
layerId = "1282F4F2-4030-47E6-A043-DFF1281EB459";
paths = (
{
closed = 1;
nodes = (
"587 -12 OFFCURVE",
"661 67 OFFCURVE",
"661 159 CURVE SMOOTH",
"661 201 OFFCURVE",
"641 237 OFFCURVE",
"598 257 CURVE",
"507 295 OFFCURVE",
"473 328 OFFCURVE",
"473 382 CURVE SMOOTH",
"473 433 OFFCURVE",
"510 468 OFFCURVE",
"564 468 CURVE SMOOTH",
"619 468 OFFCURVE",
"657 432 OFFCURVE",
"657 367 CURVE SMOOTH",
"657 286 OFFCURVE",
"599 238 OFFCURVE",
"487 238 CURVE SMOOTH",
"263 238 LINE",
"263 214 LINE",
"480 214 LINE SMOOTH",
"611 214 OFFCURVE",
"684 270 OFFCURVE",
"684 367 CURVE SMOOTH",
"684 447 OFFCURVE",
"636 493 OFFCURVE",
"564 493 CURVE SMOOTH",
"501 493 OFFCURVE",
"446 454 OFFCURVE",
"446 383 CURVE SMOOTH",
"446 324 OFFCURVE",
"480 281 OFFCURVE",
"573 243 CURVE",
"614 228 OFFCURVE",
"634 200 OFFCURVE",
"634 159 CURVE SMOOTH",
"634 79 OFFCURVE",
"565 15 OFFCURVE",
"377 15 CURVE SMOOTH",
"171 15 OFFCURVE",
"68 120 OFFCURVE",
"68 269 CURVE SMOOTH",
"68 374 OFFCURVE",
"110 431 OFFCURVE",
"167 464 CURVE",
"167 465 LINE",
"135 439 OFFCURVE",
"122 415 OFFCURVE",
"122 381 CURVE SMOOTH",
"122 309 OFFCURVE",
"168 274 OFFCURVE",
"228 274 CURVE SMOOTH",
"290 274 OFFCURVE",
"334 316 OFFCURVE",
"334 383 CURVE SMOOTH",
"334 452 OFFCURVE",
"287 493 OFFCURVE",
"222 493 CURVE SMOOTH",
"136 493 OFFCURVE",
"42 420 OFFCURVE",
"42 270 CURVE SMOOTH",
"42 108 OFFCURVE",
"150 -12 OFFCURVE",
"377 -12 CURVE SMOOTH"
);
},
{
closed = 1;
nodes = (
"307 333 OFFCURVE",
"280 299 OFFCURVE",
"229 299 CURVE SMOOTH",
"183 299 OFFCURVE",
"147 323 OFFCURVE",
"147 383 CURVE SMOOTH",
"147 433 OFFCURVE",
"178 468 OFFCURVE",
"225 468 CURVE SMOOTH",
"275 468 OFFCURVE",
"307 434 OFFCURVE",
"307 383 CURVE SMOOTH"
);
}
);
width = 719;
},
{
layerId = UUID0;
paths = (
{
closed = 1;
nodes = (
"609 -12 OFFCURVE",
"686 66 OFFCURVE",
"686 165 CURVE SMOOTH",
"686 204 OFFCURVE",
"672 244 OFFCURVE",
"627 265 CURVE",
"540 302 OFFCURVE",
"495 330 OFFCURVE",
"495 373 CURVE SMOOTH",
"495 413 OFFCURVE",
"526 438 OFFCURVE",
"574 438 CURVE SMOOTH",
"641 438 OFFCURVE",
"658 395 OFFCURVE",
"658 361 CURVE SMOOTH",
"658 296 OFFCURVE",
"601 261 OFFCURVE",
"502 261 CURVE SMOOTH",
"289 261 LINE",
"289 210 LINE",
"489 210 LINE SMOOTH",
"623 210 OFFCURVE",
"710 277 OFFCURVE",
"710 375 CURVE SMOOTH",
"710 441 OFFCURVE",
"668 500 OFFCURVE",
"574 500 CURVE SMOOTH",
"499 500 OFFCURVE",
"442 459 OFFCURVE",
"442 387 CURVE SMOOTH",
"442 325 OFFCURVE",
"489 281 OFFCURVE",
"578 246 CURVE",
"615 232 OFFCURVE",
"626 211 OFFCURVE",
"626 194 CURVE SMOOTH",
"626 144 OFFCURVE",
"578 99 OFFCURVE",
"391 99 CURVE SMOOTH",
"174 99 OFFCURVE",
"81 163 OFFCURVE",
"81 277 CURVE SMOOTH",
"81 340 OFFCURVE",
"103 381 OFFCURVE",
"136 410 CURVE",
"129 415 LINE",
"123 402 OFFCURVE",
"121 389 OFFCURVE",
"121 379 CURVE SMOOTH",
"121 302 OFFCURVE",
"170 261 OFFCURVE",
"238 261 CURVE SMOOTH",
"313 261 OFFCURVE",
"358 311 OFFCURVE",
"358 381 CURVE SMOOTH",
"358 446 OFFCURVE",
"316 500 OFFCURVE",
"231 500 CURVE SMOOTH",
"117 500 OFFCURVE",
"35 406 OFFCURVE",
"35 267 CURVE SMOOTH",
"35 79 OFFCURVE",
"156 -12 OFFCURVE",
"391 -12 CURVE SMOOTH"
);
},
{
closed = 1;
nodes = (
"299 328 OFFCURVE",
"272 304 OFFCURVE",
"238 304 CURVE SMOOTH",
"204 304 OFFCURVE",
"173 322 OFFCURVE",
"173 371 CURVE SMOOTH",
"173 415 OFFCURVE",
"202 438 OFFCURVE",
"234 438 CURVE SMOOTH",
"272 438 OFFCURVE",
"299 412 OFFCURVE",
"299 371 CURVE SMOOTH"
);
}
);
width = 739;
},
{
layerId = "A2C49E55-5C54-436C-AF3A-B2B174879BD8";
paths = (
{
closed = 1;
nodes = (
"610 -12 OFFCURVE",
"720 54 OFFCURVE",
"720 179 CURVE SMOOTH",
"720 236 OFFCURVE",
"686 274 OFFCURVE",
"640 296 CURVE",
"558 316 OFFCURVE",
"530 346 OFFCURVE",
"530 381 CURVE SMOOTH",
"530 409 OFFCURVE",
"552 430 OFFCURVE",
"597 430 CURVE SMOOTH",
"649 430 OFFCURVE",
"671 401 OFFCURVE",
"671 368 CURVE SMOOTH",
"671 327 OFFCURVE",
"641 300 OFFCURVE",
"577 300 CURVE SMOOTH",
"317 300 LINE",
"317 236 LINE",
"533 236 LINE SMOOTH",
"639 236 OFFCURVE",
"749 271 OFFCURVE",
"749 384 CURVE SMOOTH",
"749 451 OFFCURVE",
"700 511 OFFCURVE",
"597 511 CURVE SMOOTH",
"497 511 OFFCURVE",
"453 460 OFFCURVE",
"453 401 CURVE SMOOTH",
"453 331 OFFCURVE",
"511 297 OFFCURVE",
"582 271 CURVE",
"605 261 OFFCURVE",
"614 248 OFFCURVE",
"614 231 CURVE SMOOTH",
"614 201 OFFCURVE",
"571 185 OFFCURVE",
"406 185 CURVE SMOOTH",
"187 185 OFFCURVE",
"103 226 OFFCURVE",
"103 333 CURVE SMOOTH",
"103 384 OFFCURVE",
"127 421 OFFCURVE",
"162 436 CURVE",
"135 440 LINE",
"124 419 OFFCURVE",
"114 397 OFFCURVE",
"114 371 CURVE SMOOTH",
"114 304 OFFCURVE",
"159 261 OFFCURVE",
"239 261 CURVE SMOOTH",
"312 261 OFFCURVE",
"371 304 OFFCURVE",
"371 387 CURVE SMOOTH",
"371 459 OFFCURVE",
"324 511 OFFCURVE",
"233 511 CURVE SMOOTH",
"119 511 OFFCURVE",
"29 425 OFFCURVE",
"29 281 CURVE SMOOTH",
"29 75 OFFCURVE",
"164 -12 OFFCURVE",
"407 -12 CURVE SMOOTH"
);
},
{
closed = 1;
nodes = (
"284 329 OFFCURVE",
"258 319 OFFCURVE",
"231 319 CURVE SMOOTH",
"201 319 OFFCURVE",
"178 337 OFFCURVE",
"178 376 CURVE SMOOTH",
"178 409 OFFCURVE",
"199 430 OFFCURVE",
"231 430 CURVE SMOOTH",
"269 430 OFFCURVE",
"284 406 OFFCURVE",
"284 376 CURVE SMOOTH"
);
}
);
width = 772;
}
);
unicode = 0C06;
},
{
glyphname = itelu;
lastChange = "2020-01-21 19:05:42 +0000";
layers = (
{
layerId = "1282F4F2-4030-47E6-A043-DFF1281EB459";
paths = (
{
closed = 1;
nodes = (
"378 -12 OFFCURVE",
"458 21 OFFCURVE",
"512 79 CURVE",
"519 87 LINE",
"563 138 OFFCURVE",
"587 208 OFFCURVE",
"587 292 CURVE SMOOTH",
"587 445 OFFCURVE",
"513 493 OFFCURVE",
"440 493 CURVE SMOOTH",
"367 493 OFFCURVE",
"314 445 OFFCURVE",
"293 358 CURVE",
"303 361 LINE",
"291 427 OFFCURVE",
"244 493 OFFCURVE",
"156 493 CURVE SMOOTH",
"88 493 OFFCURVE",
"36 450 OFFCURVE",
"36 381 CURVE SMOOTH",
"36 352 OFFCURVE",
"43 322 OFFCURVE",
"54 296 CURVE",
"79 304 LINE",
"70 324 OFFCURVE",
"63 349 OFFCURVE",
"63 381 CURVE SMOOTH",
"63 430 OFFCURVE",
"96 468 OFFCURVE",
"157 468 CURVE SMOOTH",
"229 468 OFFCURVE",
"273 409 OFFCURVE",
"286 344 CURVE",
"310 344 LINE",
"327 407 OFFCURVE",
"366 467 OFFCURVE",
"438 467 CURVE SMOOTH",
"493 467 OFFCURVE",
"560 436 OFFCURVE",
"560 293 CURVE SMOOTH",
"560 119 OFFCURVE",
"455 15 OFFCURVE",
"280 15 CURVE SMOOTH",
"155 15 OFFCURVE",
"123 68 OFFCURVE",
"123 123 CURVE SMOOTH",
"123 188 OFFCURVE",
"164 224 OFFCURVE",
"256 224 CURVE SMOOTH",
"418 224 OFFCURVE",
"517 119 OFFCURVE",
"517 0 CURVE SMOOTH",
"517 -12 OFFCURVE",
"516 -26 OFFCURVE",
"513 -42 CURVE",
"539 -45 LINE",
"542 -28 OFFCURVE",
"543 -15 OFFCURVE",
"543 -1 CURVE SMOOTH",
"543 137 OFFCURVE",
"421 249 OFFCURVE",
"254 249 CURVE SMOOTH",
"151 249 OFFCURVE",
"96 202 OFFCURVE",
"96 124 CURVE SMOOTH",
"96 42 OFFCURVE",
"154 -12 OFFCURVE",
"279 -12 CURVE SMOOTH"
);
}
);
width = 631;
},
{
layerId = UUID0;
paths = (
{
closed = 1;
nodes = (
"392 -12 OFFCURVE",
"464 23 OFFCURVE",
"512 77 CURVE",
"530 90 LINE",
"574 145 OFFCURVE",
"592 216 OFFCURVE",
"592 290 CURVE SMOOTH",
"592 431 OFFCURVE",
"540 500 OFFCURVE",
"441 500 CURVE SMOOTH",
"375 500 OFFCURVE",
"323 463 OFFCURVE",
"288 379 CURVE",
"312 390 LINE",
"289 450 OFFCURVE",
"236 500 OFFCURVE",
"159 500 CURVE SMOOTH",
"79 500 OFFCURVE",
"28 450 OFFCURVE",
"28 374 CURVE SMOOTH",
"28 346 OFFCURVE",
"36 315 OFFCURVE",
"51 284 CURVE",
"95 300 LINE",
"86 315 OFFCURVE",
"79 332 OFFCURVE",
"79 351 CURVE SMOOTH",
"79 391 OFFCURVE",
"111 416 OFFCURVE",
"167 416 CURVE SMOOTH",
"234 416 OFFCURVE",
"274 370 OFFCURVE",
"281 332 CURVE",
"317 332 LINE",
"335 379 OFFCURVE",
"375 416 OFFCURVE",
"439 416 CURVE SMOOTH",
"505 416 OFFCURVE",
"547 375 OFFCURVE",
"547 293 CURVE SMOOTH",
"547 172 OFFCURVE",
"464 98 OFFCURVE",
"304 98 CURVE SMOOTH",
"176 98 OFFCURVE",
"147 128 OFFCURVE",
"147 172 CURVE SMOOTH",
"147 216 OFFCURVE",
"189 236 OFFCURVE",
"256 236 CURVE SMOOTH",
"382 236 OFFCURVE",
"503 153 OFFCURVE",
"503 5 CURVE SMOOTH",
"503 -8 OFFCURVE",
"502 -25 OFFCURVE",
"499 -39 CURVE",
"563 -46 LINE",
"565 -36 OFFCURVE",
"566 -12 OFFCURVE",
"566 -2 CURVE SMOOTH",
"566 164 OFFCURVE",
"431 279 OFFCURVE",
"260 279 CURVE SMOOTH",
"133 279 OFFCURVE",
"81 223 OFFCURVE",
"81 145 CURVE SMOOTH",
"81 51 OFFCURVE",
"145 -12 OFFCURVE",
"287 -12 CURVE SMOOTH"
);
}
);
width = 629;
},
{
layerId = "A2C49E55-5C54-436C-AF3A-B2B174879BD8";
paths = (
{
closed = 1;
nodes = (
"422 -12 OFFCURVE",
"496 21 OFFCURVE",
"544 78 CURVE",
"570 97 LINE",
"618 158 OFFCURVE",
"641 236 OFFCURVE",
"641 315 CURVE SMOOTH",
"641 452 OFFCURVE",
"572 511 OFFCURVE",
"481 511 CURVE SMOOTH",
"407 511 OFFCURVE",
"353 473 OFFCURVE",
"315 410 CURVE",
"341 411 LINE",
"303 469 OFFCURVE",
"258 511 OFFCURVE",
"172 511 CURVE SMOOTH",
"67 511 OFFCURVE",
"22 455 OFFCURVE",
"22 381 CURVE SMOOTH",
"22 345 OFFCURVE",
"31 317 OFFCURVE",
"41 293 CURVE",
"107 311 LINE",
"102 321 OFFCURVE",
"98 332 OFFCURVE",
"98 344 CURVE SMOOTH",
"98 373 OFFCURVE",
"120 391 OFFCURVE",
"178 391 CURVE SMOOTH",
"246 391 OFFCURVE",
"275 364 OFFCURVE",
"296 340 CURVE",
"354 340 LINE",
"385 369 OFFCURVE",
"422 389 OFFCURVE",
"479 389 CURVE SMOOTH",
"534 389 OFFCURVE",
"573 369 OFFCURVE",
"573 319 CURVE SMOOTH",
"573 239 OFFCURVE",
"495 194 OFFCURVE",
"322 194 CURVE SMOOTH",
"217 194 OFFCURVE",
"197 214 OFFCURVE",
"197 235 CURVE SMOOTH",
"197 258 OFFCURVE",
"222 268 OFFCURVE",
"271 268 CURVE SMOOTH",
"436 268 OFFCURVE",
"521 148 OFFCURVE",
"521 5 CURVE SMOOTH",
"521 -8 OFFCURVE",
"520 -25 OFFCURVE",
"517 -39 CURVE",
"615 -50 LINE",
"617 -40 OFFCURVE",
"618 -12 OFFCURVE",
"618 -2 CURVE SMOOTH",
"618 159 OFFCURVE",
"483 325 OFFCURVE",
"277 325 CURVE SMOOTH",
"155 325 OFFCURVE",
"83 271 OFFCURVE",
"83 169 CURVE SMOOTH",
"83 51 OFFCURVE",
"165 -12 OFFCURVE",
"326 -12 CURVE SMOOTH"
);
}
);
width = 672;
}
);
rightMetricsKey = "=daalttelu+2";
unicode = 0C07;
},
{
glyphname = iitelu;
lastChange = "2020-01-21 19:05:42 +0000";
layers = (
{
components = (
{
alignment = -1;
name = hattelu;
transform = "{1, 0, 0, 1, 169, 0}";
}
);
layerId = "1282F4F2-4030-47E6-A043-DFF1281EB459";
paths = (
{
closed = 1;
nodes = (
"75 80 OFFCURVE",
"159 -12 OFFCURVE",
"300 -12 CURVE SMOOTH",
"445 -12 OFFCURVE",
"531 84 OFFCURVE",
"531 238 CURVE SMOOTH",
"531 410 OFFCURVE",
"428 493 OFFCURVE",
"304 493 CURVE SMOOTH",
"182 493 OFFCURVE",
"75 406 OFFCURVE",
"75 240 CURVE SMOOTH"
);
},
{
closed = 1;
nodes = (
"102 359 OFFCURVE",
"167 468 OFFCURVE",
"304 468 CURVE SMOOTH",
"429 468 OFFCURVE",
"504 377 OFFCURVE",
"504 238 CURVE SMOOTH",
"504 107 OFFCURVE",
"438 15 OFFCURVE",
"301 15 CURVE SMOOTH",
"167 15 OFFCURVE",
"102 99 OFFCURVE",
"102 239 CURVE SMOOTH"
);
},
{
closed = 1;
nodes = (
"19 268 LINE",
"19 244 LINE",
"682 244 LINE",
"673 246 LINE",
"636 227 OFFCURVE",
"615 190 OFFCURVE",
"615 148 CURVE SMOOTH",
"615 72 OFFCURVE",
"661 33 OFFCURVE",
"729 33 CURVE SMOOTH",
"799 33 OFFCURVE",
"840 75 OFFCURVE",
"840 149 CURVE SMOOTH",
"840 230 OFFCURVE",
"786 268 OFFCURVE",
"700 268 CURVE SMOOTH"
);
},
{
closed = 1;
nodes = (
"813 92 OFFCURVE",
"786 58 OFFCURVE",
"729 58 CURVE SMOOTH",
"677 58 OFFCURVE",
"641 82 OFFCURVE",
"641 148 CURVE SMOOTH",
"641 208 OFFCURVE",
"680 243 OFFCURVE",
"729 243 CURVE SMOOTH",
"781 243 OFFCURVE",
"813 209 OFFCURVE",
"813 149 CURVE SMOOTH"
);
},
{
closed = 1;
nodes = (
"683 443 OFFCURVE",
"643 414 OFFCURVE",
"612 357 CURVE",
"635 347 LINE",
"662 392 OFFCURVE",
"692 418 OFFCURVE",
"734 418 CURVE SMOOTH",
"776 418 OFFCURVE",
"801 394 OFFCURVE",
"801 355 CURVE SMOOTH",
"801 315 OFFCURVE",
"770 279 OFFCURVE",
"694 259 CURVE",
"719 246 LINE",
"789 267 OFFCURVE",
"828 304 OFFCURVE",
"828 355 CURVE SMOOTH",
"828 414 OFFCURVE",
"787 443 OFFCURVE",
"734 443 CURVE SMOOTH"
);
}
);
width = 870;
},
{
components = (
{
name = hattelu;
transform = "{1, 0, 0, 1, 187, 0}";
}
);
layerId = UUID0;
paths = (
{
closed = 1;
nodes = (
"65 92 OFFCURVE",
"157 -12 OFFCURVE",
"311 -12 CURVE SMOOTH",
"464 -12 OFFCURVE",
"559 91 OFFCURVE",
"559 243 CURVE SMOOTH",
"559 387 OFFCURVE",
"469 500 OFFCURVE",
"314 500 CURVE SMOOTH",
"157 500 OFFCURVE",
"65 385 OFFCURVE",
"65 243 CURVE SMOOTH"
);
},
{
closed = 1;
nodes = (
"129 382 OFFCURVE",
"200 455 OFFCURVE",
"314 455 CURVE SMOOTH",
"430 455 OFFCURVE",
"495 381 OFFCURVE",
"495 274 CURVE SMOOTH",
"495 170 OFFCURVE",
"434 100 OFFCURVE",
"311 100 CURVE SMOOTH",
"189 100 OFFCURVE",
"129 172 OFFCURVE",
"129 274 CURVE SMOOTH"
);
},
{
closed = 1;
nodes = (
"19 305 LINE",
"19 260 LINE",
"686 260 LINE",
"678 269 LINE",
"652 251 OFFCURVE",
"626 217 OFFCURVE",
"626 166 CURVE SMOOTH",
"626 82 OFFCURVE",
"677 38 OFFCURVE",
"758 38 CURVE SMOOTH",
"837 38 OFFCURVE",
"888 86 OFFCURVE",
"888 168 CURVE SMOOTH",
"888 266 OFFCURVE",
"823 305 OFFCURVE",
"715 305 CURVE SMOOTH"
);
},
{
closed = 1;
nodes = (
"829 148 OFFCURVE",
"801 124 OFFCURVE",
"759 124 CURVE SMOOTH",
"715 124 OFFCURVE",
"685 143 OFFCURVE",
"685 190 CURVE SMOOTH",
"685 236 OFFCURVE",
"711 261 OFFCURVE",
"755 261 CURVE SMOOTH",
"805 261 OFFCURVE",
"829 235 OFFCURVE",
"829 191 CURVE SMOOTH"
);
},
{
closed = 1;
nodes = (
"692 485 OFFCURVE",
"648 438 OFFCURVE",
"622 384 CURVE",
"663 365 LINE",
"687 401 OFFCURVE",
"714 426 OFFCURVE",
"753 426 CURVE SMOOTH",
"789 426 OFFCURVE",
"809 405 OFFCURVE",
"809 376 CURVE SMOOTH",
"809 347 OFFCURVE",
"787 316 OFFCURVE",
"729 301 CURVE",
"787 282 LINE",
"842 305 OFFCURVE",
"868 344 OFFCURVE",
"868 389 CURVE SMOOTH",
"868 454 OFFCURVE",
"817 485 OFFCURVE",
"762 485 CURVE SMOOTH"
);
}
);
width = 912;
},
{
components = (
{
alignment = -1;
name = hattelu;
transform = "{1, 0, 0, 1, 208, 0}";
}
);
layerId = "A2C49E55-5C54-436C-AF3A-B2B174879BD8";
paths = (
{
closed = 1;
nodes = (
"61 93 OFFCURVE",
"154 -12 OFFCURVE",
"331 -12 CURVE SMOOTH",
"507 -12 OFFCURVE",
"603 92 OFFCURVE",
"603 249 CURVE SMOOTH",
"603 395 OFFCURVE",
"510 511 OFFCURVE",
"335 511 CURVE SMOOTH",
"157 511 OFFCURVE",
"61 393 OFFCURVE",
"61 248 CURVE SMOOTH"
);
},
{
closed = 1;
nodes = (
"167 396 OFFCURVE",
"226 454 OFFCURVE",
"335 454 CURVE SMOOTH",
"446 454 OFFCURVE",
"497 393 OFFCURVE",
"497 317 CURVE SMOOTH",
"497 245 OFFCURVE",
"446 202 OFFCURVE",
"331 202 CURVE SMOOTH",
"217 202 OFFCURVE",
"167 247 OFFCURVE",
"167 317 CURVE SMOOTH"
);
},
{
closed = 1;
nodes = (
"18 336 LINE",
"18 279 LINE",
"725 279 LINE",
"723 293 LINE",
"691 270 OFFCURVE",
"667 237 OFFCURVE",
"667 178 CURVE SMOOTH",
"667 100 OFFCURVE",
"713 42 OFFCURVE",
"812 42 CURVE SMOOTH",
"907 42 OFFCURVE",
"962 90 OFFCURVE",
"962 184 CURVE SMOOTH",
"962 301 OFFCURVE",
"876 336 OFFCURVE",
"771 336 CURVE SMOOTH"
);
},
{
closed = 1;
nodes = (
"879 195 OFFCURVE",
"853 182 OFFCURVE",
"813 182 CURVE SMOOTH",
"776 182 OFFCURVE",
"750 196 OFFCURVE",
"750 228 CURVE SMOOTH",
"750 261 OFFCURVE",
"772 279 OFFCURVE",
"814 279 CURVE SMOOTH",
"857 279 OFFCURVE",
"879 259 OFFCURVE",
"879 228 CURVE SMOOTH"
);
},
{
closed = 1;
nodes = (
"729 507 OFFCURVE",
"685 441 OFFCURVE",
"660 384 CURVE",
"715 361 LINE",
"743 400 OFFCURVE",
"771 419 OFFCURVE",
"806 419 CURVE SMOOTH",
"832 419 OFFCURVE",
"854 407 OFFCURVE",
"854 380 CURVE SMOOTH",
"854 352 OFFCURVE",
"832 335 OFFCURVE",
"808 324 CURVE",
"862 292 LINE",
"900 314 OFFCURVE",
"934 351 OFFCURVE",
"934 399 CURVE SMOOTH",
"934 470 OFFCURVE",
"883 507 OFFCURVE",
"816 507 CURVE SMOOTH"
);
}
);
width = 983;
}
);
unicode = 0C08;
},
{
glyphname = utelu;
lastChange = "2020-01-21 19:05:42 +0000";
layers = (
{
layerId = "1282F4F2-4030-47E6-A043-DFF1281EB459";
paths = (
{
closed = 1;
nodes = (
"483 282 OFFCURVE",
"440 247 OFFCURVE",
"440 188 CURVE SMOOTH",
"440 122 OFFCURVE",
"481 87 OFFCURVE",
"545 87 CURVE SMOOTH",
"608 87 OFFCURVE",
"635 125 OFFCURVE",
"644 179 CURVE",
"642 182 LINE",
"642 79 OFFCURVE",
"608 15 OFFCURVE",
"509 15 CURVE SMOOTH",
"412 15 OFFCURVE",
"373 91 OFFCURVE",
"359 172 CURVE",
"335 172 LINE",
"324 73 OFFCURVE",
"284 15 OFFCURVE",
"209 15 CURVE SMOOTH",
"136 15 OFFCURVE",
"97 69 OFFCURVE",
"97 191 CURVE SMOOTH",
"97 373 OFFCURVE",
"206 468 OFFCURVE",
"375 468 CURVE SMOOTH",
"468 468 OFFCURVE",
"541 435 OFFCURVE",
"600 390 CURVE",
"616 412 LINE",
"558 456 OFFCURVE",
"480 493 OFFCURVE",
"376 493 CURVE SMOOTH",
"195 493 OFFCURVE",
"70 389 OFFCURVE",
"70 191 CURVE SMOOTH",
"70 50 OFFCURVE",
"125 -12 OFFCURVE",
"208 -12 CURVE SMOOTH",
"267 -12 OFFCURVE",
"335 18 OFFCURVE",
"351 143 CURVE",
"342 143 LINE",
"370 22 OFFCURVE",
"444 -12 OFFCURVE",
"510 -12 CURVE SMOOTH",
"613 -12 OFFCURVE",
"662 52 OFFCURVE",
"662 154 CURVE SMOOTH",
"662 243 OFFCURVE",
"625 282 OFFCURVE",
"549 282 CURVE SMOOTH"
);
},
{
closed = 1;
nodes = (
"501 112 OFFCURVE",
"467 133 OFFCURVE",
"467 188 CURVE SMOOTH",
"467 241 OFFCURVE",
"504 267 OFFCURVE",
"547 267 CURVE SMOOTH",
"600 267 OFFCURVE",
"627 242 OFFCURVE",
"627 193 CURVE SMOOTH",
"627 148 OFFCURVE",
"598 112 OFFCURVE",
"546 112 CURVE SMOOTH"
);
},
{
closed = 1;
nodes = (
"362 636 LINE",
"366 479 LINE",
"390 479 LINE",
"394 636 LINE"
);
},
{
closed = 1;
nodes = (
"19 267 LINE",
"495 267 LINE",
"548 273 LINE",
"600 267 LINE",
"759 267 LINE",
"759 291 LINE",
"19 291 LINE"
);
}
);
width = 777;
},
{
layerId = UUID0;
paths = (
{
closed = 1;
nodes = (
"468 311 OFFCURVE",
"424 265 OFFCURVE",
"424 212 CURVE SMOOTH",
"424 142 OFFCURVE",
"469 109 OFFCURVE",
"537 109 CURVE SMOOTH",
"595 109 OFFCURVE",
"632 141 OFFCURVE",
"641 194 CURVE",
"639 190 LINE",
"636 124 OFFCURVE",
"611 76 OFFCURVE",
"524 76 CURVE SMOOTH",
"421 76 OFFCURVE",
"385 135 OFFCURVE",
"365 204 CURVE",
"334 204 LINE",
"314 130 OFFCURVE",
"275 98 OFFCURVE",
"220 98 CURVE SMOOTH",
"164 98 OFFCURVE",
"119 127 OFFCURVE",
"119 217 CURVE SMOOTH",
"119 370 OFFCURVE",
"214 455 OFFCURVE",
"370 455 CURVE SMOOTH",
"457 455 OFFCURVE",
"528 423 OFFCURVE",
"592 374 CURVE",
"632 423 LINE",
"555 474 OFFCURVE",
"475 500 OFFCURVE",
"371 500 CURVE",
"180 500 OFFCURVE",
"56 379 OFFCURVE",
"56 198 CURVE SMOOTH",
"56 66 OFFCURVE",
"111 -12 OFFCURVE",
"207 -12 CURVE SMOOTH",
"267 -12 OFFCURVE",
"326 18 OFFCURVE",
"368 146 CURVE",
"333 145 LINE",
"368 18 OFFCURVE",
"441 -12 OFFCURVE",
"520 -12 CURVE SMOOTH",
"627 -12 OFFCURVE",
"680 70 OFFCURVE",
"680 159 CURVE SMOOTH",
"680 258 OFFCURVE",
"620 311 OFFCURVE",
"546 311 CURVE SMOOTH"
);
},
{
closed = 1;
nodes = (
"504 152 OFFCURVE",
"483 173 OFFCURVE",
"483 213 CURVE SMOOTH",
"483 253 OFFCURVE",
"507 277 OFFCURVE",
"545 277 CURVE SMOOTH",
"583 277 OFFCURVE",
"607 255 OFFCURVE",
"607 215 CURVE SMOOTH",
"607 175 OFFCURVE",
"583 152 OFFCURVE",
"545 152 CURVE SMOOTH"
);
},
{
closed = 1;
nodes = (
"329 641 LINE",
"359 485 LINE",
"404 485 LINE",
"434 641 LINE"
);
},
{
closed = 1;
nodes = (
"19 272 LINE",
"480 272 LINE",
"542 279 LINE",
"615 272 LINE",
"780 272 LINE",
"780 317 LINE",
"19 317 LINE"
);
}
);
width = 798;
},
{
layerId = "A2C49E55-5C54-436C-AF3A-B2B174879BD8";
paths = (
{
closed = 1;
nodes = (
"481 382 OFFCURVE",
"429 338 OFFCURVE",
"429 282 CURVE SMOOTH",
"429 224 OFFCURVE",
"474 185 OFFCURVE",
"554 185 CURVE SMOOTH",
"630 185 OFFCURVE",
"659 231 OFFCURVE",
"672 289 CURVE",
"656 260 LINE",
"652 198 OFFCURVE",
"626 157 OFFCURVE",
"539 157 CURVE SMOOTH",
"449 157 OFFCURVE",
"410 204 OFFCURVE",
"394 265 CURVE",
"332 265 LINE",
"316 234 OFFCURVE",
"295 204 OFFCURVE",
"235 204 CURVE SMOOTH",
"177 204 OFFCURVE",
"150 234 OFFCURVE",
"150 286 CURVE SMOOTH",
"150 369 OFFCURVE",
"214 454 OFFCURVE",
"387 454 CURVE SMOOTH",
"481 454 OFFCURVE",
"540 431 OFFCURVE",
"612 386 CURVE",
"655 441 LINE",
"578 491 OFFCURVE",
"490 511 OFFCURVE",
"387 511 CURVE SMOOTH",
"179 511 OFFCURVE",
"44 395 OFFCURVE",
"44 205 CURVE SMOOTH",
"44 73 OFFCURVE",
"98 -12 OFFCURVE",
"210 -12 CURVE SMOOTH",
"295 -12 OFFCURVE",
"351 40 OFFCURVE",
"380 153 CURVE",
"345 156 LINE",
"374 55 OFFCURVE",
"439 -13 OFFCURVE",
"550 -13 CURVE SMOOTH",
"663 -13 OFFCURVE",
"722 73 OFFCURVE",
"722 194 CURVE SMOOTH",
"722 333 OFFCURVE",
"655 382 OFFCURVE",
"568 382 CURVE SMOOTH"
);
},
{
closed = 1;
nodes = (
"537 243 OFFCURVE",
"515 254 OFFCURVE",
"515 286 CURVE SMOOTH",
"515 314 OFFCURVE",
"539 331 OFFCURVE",
"569 331 CURVE SMOOTH",
"605 331 OFFCURVE",
"623 310 OFFCURVE",
"623 285 CURVE SMOOTH",
"623 255 OFFCURVE",
"600 243 OFFCURVE",
"568 243 CURVE SMOOTH"
);
},
{
closed = 1;
nodes = (
"310 644 LINE",
"347 483 LINE",
"432 483 LINE",
"468 644 LINE"
);
},
{
closed = 1;
nodes = (
"18 327 LINE",
"504 327 LINE",
"566 346 LINE",
"639 327 LINE",
"819 327 LINE",
"819 384 LINE",
"18 384 LINE"
);
}
);
width = 836;
}
);
unicode = 0C09;
},
{
glyphname = uutelu;
lastChange = "2020-01-21 19:05:42 +0000";
layers = (
{
layerId = "1282F4F2-4030-47E6-A043-DFF1281EB459";
paths = (
{
closed = 1;
nodes = (
"483 282 OFFCURVE",
"440 247 OFFCURVE",
"440 188 CURVE SMOOTH",
"440 122 OFFCURVE",
"481 87 OFFCURVE",
"545 87 CURVE SMOOTH",
"608 87 OFFCURVE",
"635 125 OFFCURVE",
"644 179 CURVE",
"642 182 LINE",
"642 79 OFFCURVE",
"608 15 OFFCURVE",
"509 15 CURVE SMOOTH",
"412 15 OFFCURVE",
"373 91 OFFCURVE",
"359 172 CURVE",
"335 172 LINE",
"324 73 OFFCURVE",
"284 15 OFFCURVE",
"209 15 CURVE SMOOTH",
"136 15 OFFCURVE",
"97 69 OFFCURVE",
"97 191 CURVE SMOOTH",
"97 373 OFFCURVE",
"206 468 OFFCURVE",
"375 468 CURVE SMOOTH",
"468 468 OFFCURVE",
"541 435 OFFCURVE",
"600 390 CURVE",
"616 412 LINE",
"558 456 OFFCURVE",
"480 493 OFFCURVE",
"376 493 CURVE SMOOTH",
"195 493 OFFCURVE",
"70 389 OFFCURVE",
"70 191 CURVE SMOOTH",
"70 50 OFFCURVE",
"125 -12 OFFCURVE",
"208 -12 CURVE SMOOTH",
"267 -12 OFFCURVE",
"335 18 OFFCURVE",
"351 143 CURVE",
"342 143 LINE",
"370 22 OFFCURVE",
"444 -12 OFFCURVE",
"510 -12 CURVE SMOOTH",
"613 -12 OFFCURVE",
"662 52 OFFCURVE",
"662 154 CURVE SMOOTH",
"662 243 OFFCURVE",
"625 282 OFFCURVE",
"549 282 CURVE SMOOTH"
);
},
{
closed = 1;
nodes = (
"501 112 OFFCURVE",
"467 133 OFFCURVE",
"467 188 CURVE SMOOTH",
"467 241 OFFCURVE",
"504 267 OFFCURVE",
"547 267 CURVE SMOOTH",
"600 267 OFFCURVE",
"627 242 OFFCURVE",
"627 195 CURVE SMOOTH",
"627 148 OFFCURVE",
"598 112 OFFCURVE",
"546 112 CURVE SMOOTH"
);
},
{
closed = 1;
nodes = (
"295 636 LINE",
"299 479 LINE",
"323 479 LINE",
"327 636 LINE"
);
},
{
closed = 1;
nodes = (
"429 636 LINE",
"433 479 LINE",
"457 479 LINE",
"461 636 LINE"
);
},
{
closed = 1;
nodes = (
"19 291 LINE",
"19 267 LINE",
"496 267 LINE",
"550 273 LINE",
"607 267 LINE",
"813 267 LINE",
"804 269 LINE",
"767 250 OFFCURVE",
"746 213 OFFCURVE",
"746 171 CURVE SMOOTH",
"746 95 OFFCURVE",
"792 56 OFFCURVE",
"860 56 CURVE SMOOTH",
"930 56 OFFCURVE",
"971 98 OFFCURVE",
"971 172 CURVE SMOOTH",
"971 253 OFFCURVE",
"917 291 OFFCURVE",
"831 291 CURVE SMOOTH"
);
},
{
closed = 1;
nodes = (
"944 115 OFFCURVE",
"917 81 OFFCURVE",
"860 81 CURVE SMOOTH",
"808 81 OFFCURVE",
"772 105 OFFCURVE",
"772 171 CURVE SMOOTH",
"772 231 OFFCURVE",
"811 266 OFFCURVE",
"860 266 CURVE SMOOTH",
"912 266 OFFCURVE",
"944 232 OFFCURVE",
"944 172 CURVE SMOOTH"
);
},
{
closed = 1;
nodes = (
"814 466 OFFCURVE",
"774 437 OFFCURVE",
"743 380 CURVE",
"766 370 LINE",
"793 415 OFFCURVE",
"823 441 OFFCURVE",
"865 441 CURVE SMOOTH",
"907 441 OFFCURVE",
"932 417 OFFCURVE",
"932 378 CURVE SMOOTH",
"932 338 OFFCURVE",
"901 302 OFFCURVE",
"825 282 CURVE",
"850 269 LINE",
"920 290 OFFCURVE",
"959 327 OFFCURVE",
"959 378 CURVE SMOOTH",
"959 437 OFFCURVE",
"918 466 OFFCURVE",
"865 466 CURVE SMOOTH"
);
}
);
width = 989;
},
{
layerId = UUID0;
paths = (
{
closed = 1;
nodes = (
"468 311 OFFCURVE",
"424 265 OFFCURVE",
"424 212 CURVE SMOOTH",
"424 142 OFFCURVE",
"469 109 OFFCURVE",
"537 109 CURVE SMOOTH",
"595 109 OFFCURVE",
"632 141 OFFCURVE",
"641 194 CURVE",
"639 190 LINE",
"636 124 OFFCURVE",
"611 76 OFFCURVE",
"524 76 CURVE SMOOTH",
"421 76 OFFCURVE",
"385 135 OFFCURVE",
"365 204 CURVE",
"334 204 LINE",
"314 130 OFFCURVE",
"275 98 OFFCURVE",
"220 98 CURVE SMOOTH",
"164 98 OFFCURVE",
"119 127 OFFCURVE",
"119 217 CURVE SMOOTH",
"119 370 OFFCURVE",
"214 455 OFFCURVE",
"370 455 CURVE SMOOTH",
"457 455 OFFCURVE",
"528 423 OFFCURVE",
"592 374 CURVE",
"632 423 LINE",
"555 474 OFFCURVE",
"475 500 OFFCURVE",
"371 500 CURVE",
"180 500 OFFCURVE",
"56 379 OFFCURVE",
"56 198 CURVE SMOOTH",
"56 66 OFFCURVE",
"111 -12 OFFCURVE",
"207 -12 CURVE SMOOTH",
"267 -12 OFFCURVE",
"326 18 OFFCURVE",
"368 146 CURVE",
"333 145 LINE",
"368 18 OFFCURVE",
"441 -12 OFFCURVE",
"520 -12 CURVE SMOOTH",
"627 -12 OFFCURVE",
"680 70 OFFCURVE",
"680 159 CURVE SMOOTH",
"680 258 OFFCURVE",
"620 311 OFFCURVE",
"546 311 CURVE SMOOTH"
);
},
{
closed = 1;
nodes = (
"504 152 OFFCURVE",
"483 173 OFFCURVE",
"483 213 CURVE SMOOTH",
"483 253 OFFCURVE",
"507 277 OFFCURVE",
"545 277 CURVE SMOOTH",
"583 277 OFFCURVE",
"607 255 OFFCURVE",
"607 215 CURVE SMOOTH",
"607 175 OFFCURVE",
"583 152 OFFCURVE",
"545 152 CURVE SMOOTH"
);
},
{
closed = 1;
nodes = (
"261 641 LINE",
"284 485 LINE",
"329 485 LINE",
"352 641 LINE"
);
},
{
closed = 1;
nodes = (
"411 641 LINE",
"434 485 LINE",
"479 485 LINE",
"502 641 LINE"
);
},
{
closed = 1;
nodes = (
"19 317 LINE",
"19 272 LINE",
"475 272 LINE",
"546 282 LINE",
"596 272 LINE",
"807 272 LINE",
"797 281 LINE",
"771 263 OFFCURVE",
"747 229 OFFCURVE",
"747 178 CURVE SMOOTH",
"747 94 OFFCURVE",
"798 50 OFFCURVE",
"879 50 CURVE SMOOTH",
"958 50 OFFCURVE",
"1009 98 OFFCURVE",
"1009 180 CURVE SMOOTH",
"1009 278 OFFCURVE",
"944 317 OFFCURVE",
"843 317 CURVE SMOOTH"
);
},
{
closed = 1;
nodes = (
"950 160 OFFCURVE",
"922 136 OFFCURVE",
"880 136 CURVE SMOOTH",
"836 136 OFFCURVE",
"806 155 OFFCURVE",
"806 202 CURVE SMOOTH",
"806 248 OFFCURVE",
"832 273 OFFCURVE",
"876 273 CURVE SMOOTH",
"926 273 OFFCURVE",
"950 247 OFFCURVE",
"950 203 CURVE SMOOTH"
);
},
{
closed = 1;
nodes = (
"813 497 OFFCURVE",
"769 450 OFFCURVE",
"743 396 CURVE",
"784 377 LINE",
"808 413 OFFCURVE",
"836 438 OFFCURVE",
"874 438 CURVE SMOOTH",
"910 438 OFFCURVE",
"930 417 OFFCURVE",
"930 388 CURVE SMOOTH",
"930 359 OFFCURVE",
"908 328 OFFCURVE",
"850 313 CURVE",
"908 294 LINE",
"963 317 OFFCURVE",
"989 356 OFFCURVE",
"989 401 CURVE SMOOTH",
"989 466 OFFCURVE",
"938 497 OFFCURVE",
"883 497 CURVE SMOOTH"
);
}
);
width = 1027;
},
{
layerId = "A2C49E55-5C54-436C-AF3A-B2B174879BD8";
paths = (
{
closed = 1;
nodes = (
"481 382 OFFCURVE",
"429 339 OFFCURVE",
"429 283 CURVE SMOOTH",
"429 224 OFFCURVE",
"474 185 OFFCURVE",
"554 185 CURVE SMOOTH",
"630 185 OFFCURVE",
"659 230 OFFCURVE",
"672 289 CURVE",
"656 260 LINE",
"652 198 OFFCURVE",
"626 157 OFFCURVE",
"539 157 CURVE SMOOTH",
"449 157 OFFCURVE",
"410 204 OFFCURVE",
"394 265 CURVE",
"332 265 LINE",
"316 234 OFFCURVE",
"295 204 OFFCURVE",
"235 204 CURVE SMOOTH",
"177 204 OFFCURVE",
"150 234 OFFCURVE",
"150 286 CURVE SMOOTH",
"150 369 OFFCURVE",
"214 454 OFFCURVE",
"387 454 CURVE SMOOTH",
"481 454 OFFCURVE",
"540 431 OFFCURVE",
"612 386 CURVE",
"655 441 LINE",
"578 491 OFFCURVE",
"490 511 OFFCURVE",
"387 511 CURVE SMOOTH",
"179 511 OFFCURVE",
"44 395 OFFCURVE",
"44 205 CURVE SMOOTH",
"44 73 OFFCURVE",
"98 -12 OFFCURVE",
"210 -12 CURVE SMOOTH",
"295 -12 OFFCURVE",
"351 40 OFFCURVE",
"380 153 CURVE",
"345 156 LINE",
"374 55 OFFCURVE",
"439 -13 OFFCURVE",
"550 -13 CURVE SMOOTH",
"663 -13 OFFCURVE",
"722 73 OFFCURVE",
"722 193 CURVE SMOOTH",
"722 333 OFFCURVE",
"655 382 OFFCURVE",
"568 382 CURVE SMOOTH"
);
},
{
closed = 1;
nodes = (
"539 243 OFFCURVE",
"515 254 OFFCURVE",
"515 286 CURVE SMOOTH",
"515 314 OFFCURVE",
"539 331 OFFCURVE",
"568 331 CURVE SMOOTH",
"605 331 OFFCURVE",
"623 310 OFFCURVE",
"623 285 CURVE SMOOTH",
"623 255 OFFCURVE",
"599 243 OFFCURVE",
"568 243 CURVE SMOOTH"
);
},
{
closed = 1;
nodes = (
"227 644 LINE",
"254 483 LINE",
"339 483 LINE",
"365 644 LINE"
);
},
{
closed = 1;
nodes = (
"413 644 LINE",
"440 483 LINE",
"525 483 LINE",
"551 644 LINE"
);
},
{
closed = 1;
nodes = (
"18 384 LINE",
"18 327 LINE",
"488 327 LINE",
"576 339 LINE",
"659 327 LINE",
"842 327 LINE",
"840 341 LINE",
"808 318 OFFCURVE",
"784 285 OFFCURVE",
"784 226 CURVE SMOOTH",
"784 148 OFFCURVE",
"830 90 OFFCURVE",
"929 90 CURVE SMOOTH",
"1024 90 OFFCURVE",
"1079 138 OFFCURVE",
"1079 232 CURVE SMOOTH",
"1079 349 OFFCURVE",
"993 384 OFFCURVE",
"888 384 CURVE SMOOTH"
);
},
{
closed = 1;
nodes = (
"993 243 OFFCURVE",
"967 230 OFFCURVE",
"930 230 CURVE SMOOTH",
"896 230 OFFCURVE",
"870 244 OFFCURVE",
"870 276 CURVE SMOOTH",
"870 309 OFFCURVE",
"892 327 OFFCURVE",
"931 327 CURVE SMOOTH",
"971 327 OFFCURVE",
"993 307 OFFCURVE",
"993 276 CURVE SMOOTH"
);
},
{
closed = 1;
nodes = (
"846 555 OFFCURVE",
"802 489 OFFCURVE",
"777 432 CURVE",
"834 408 LINE",
"862 447 OFFCURVE",
"888 465 OFFCURVE",
"923 465 CURVE SMOOTH",
"949 465 OFFCURVE",
"970 454 OFFCURVE",
"970 427 CURVE SMOOTH",
"970 399 OFFCURVE",
"949 383 OFFCURVE",
"925 372 CURVE",
"979 340 LINE",
"1017 362 OFFCURVE",
"1051 399 OFFCURVE",
"1051 447 CURVE SMOOTH",
"1051 518 OFFCURVE",
"1000 555 OFFCURVE",
"933 555 CURVE SMOOTH"
);
}
);
width = 1096;
}
);
rightMetricsKey = utelu;
unicode = 0C0A;
},
{
glyphname = lvocalictelu;
lastChange = "2020-01-21 19:05:42 +0000";
layers = (
{
layerId = "1282F4F2-4030-47E6-A043-DFF1281EB459";
paths = (
{
closed = 1;
nodes = (
"663 -61 OFFCURVE",
"744 70 OFFCURVE",
"744 224 CURVE SMOOTH",
"744 346 OFFCURVE",
"696 427 OFFCURVE",
"605 493 CURVE",
"589 472 LINE",
"677 407 OFFCURVE",
"717 338 OFFCURVE",
"717 224 CURVE SMOOTH",
"717 94 OFFCURVE",
"654 -34 OFFCURVE",
"503 -34 CURVE SMOOTH",
"412 -34 OFFCURVE",
"379 21 OFFCURVE",
"379 81 CURVE SMOOTH",
"379 133 OFFCURVE",
"400 165 OFFCURVE",
"453 233 CURVE SMOOTH",
"494 286 OFFCURVE",
"518 329 OFFCURVE",
"518 379 CURVE SMOOTH",
"518 440 OFFCURVE",
"486 493 OFFCURVE",
"407 493 CURVE SMOOTH",
"332 493 OFFCURVE",
"284 433 OFFCURVE",
"267 341 CURVE",
"276 343 LINE",
"264 444 OFFCURVE",
"215 493 OFFCURVE",
"145 493 CURVE SMOOTH",
"83 493 OFFCURVE",
"36 451 OFFCURVE",
"36 381 CURVE SMOOTH",
"36 344 OFFCURVE",
"45 312 OFFCURVE",
"62 280 CURVE",
"87 288 LINE",
"70 317 OFFCURVE",
"63 349 OFFCURVE",
"63 382 CURVE SMOOTH",
"63 435 OFFCURVE",
"94 468 OFFCURVE",
"145 468 CURVE SMOOTH",
"204 468 OFFCURVE",
"249 420 OFFCURVE",
"259 315 CURVE",
"283 315 LINE",
"298 401 OFFCURVE",
"337 468 OFFCURVE",
"407 468 CURVE SMOOTH",
"471 468 OFFCURVE",
"491 426 OFFCURVE",
"491 378 CURVE SMOOTH",
"491 337 OFFCURVE",
"471 298 OFFCURVE",
"432 249 CURVE SMOOTH",
"374 176 OFFCURVE",
"352 132 OFFCURVE",
"352 77 CURVE SMOOTH",
"352 3 OFFCURVE",
"401 -61 OFFCURVE",
"503 -61 CURVE SMOOTH"
);
}
);
width = 787;
},
{
layerId = UUID0;
paths = (
{
closed = 1;
nodes = (
"662 -102 OFFCURVE",
"754 70 OFFCURVE",
"754 210 CURVE SMOOTH",
"754 361 OFFCURVE",
"688 452 OFFCURVE",
"611 500 CURVE",
"568 446 LINE",
"649 403 OFFCURVE",
"708 338 OFFCURVE",
"708 220 CURVE SMOOTH",
"708 107 OFFCURVE",
"645 9 OFFCURVE",
"508 9 CURVE SMOOTH",
"441 9 OFFCURVE",
"405 38 OFFCURVE",
"405 92 CURVE SMOOTH",
"405 130 OFFCURVE",
"420 164 OFFCURVE",
"463 224 CURVE SMOOTH",
"510 289 OFFCURVE",
"536 332 OFFCURVE",
"536 392 CURVE SMOOTH",
"536 455 OFFCURVE",
"491 501 OFFCURVE",
"415 501 CURVE SMOOTH",
"326 501 OFFCURVE",
"273 427 OFFCURVE",
"254 353 CURVE",
"292 342 LINE",
"277 459 OFFCURVE",
"216 501 OFFCURVE",
"153 501 CURVE SMOOTH",
"66 501 OFFCURVE",
"28 441 OFFCURVE",
"28 381 CURVE SMOOTH",
"28 338 OFFCURVE",
"41 302 OFFCURVE",
"58 270 CURVE",
"103 285 LINE",
"88 310 OFFCURVE",
"79 334 OFFCURVE",
"79 361 CURVE SMOOTH",
"79 397 OFFCURVE",
"108 417 OFFCURVE",
"145 417 CURVE SMOOTH",
"198 417 OFFCURVE",
"234 390 OFFCURVE",
"257 315 CURVE",
"288 315 LINE",
"305 375 OFFCURVE",
"339 417 OFFCURVE",
"397 417 CURVE SMOOTH",
"441 417 OFFCURVE",
"468 397 OFFCURVE",
"468 351 CURVE SMOOTH",
"468 326 OFFCURVE",
"457 296 OFFCURVE",
"418 240 CURVE SMOOTH",
"355 150 OFFCURVE",
"328 101 OFFCURVE",
"328 40 CURVE SMOOTH",
"328 -47 OFFCURVE",
"386 -102 OFFCURVE",
"493 -102 CURVE SMOOTH"
);
}
);
width = 792;
},
{
layerId = "A2C49E55-5C54-436C-AF3A-B2B174879BD8";
paths = (
{
closed = 1;
nodes = (
"684 -143 OFFCURVE",
"775 29 OFFCURVE",
"775 199 CURVE SMOOTH",
"775 361 OFFCURVE",
"708 457 OFFCURVE",
"620 512 CURVE",
"560 436 LINE",
"641 393 OFFCURVE",
"705 338 OFFCURVE",
"705 220 CURVE SMOOTH",
"705 103 OFFCURVE",
"632 39 OFFCURVE",
"531 39 CURVE SMOOTH",
"463 39 OFFCURVE",
"432 63 OFFCURVE",
"432 105 CURVE SMOOTH",
"432 135 OFFCURVE",
"441 163 OFFCURVE",
"486 225 CURVE SMOOTH",
"531 288 OFFCURVE",
"555 333 OFFCURVE",
"555 392 CURVE SMOOTH",
"555 460 OFFCURVE",
"513 511 OFFCURVE",
"433 511 CURVE SMOOTH",
"339 511 OFFCURVE",
"281 436 OFFCURVE",
"258 351 CURVE",
"304 352 LINE",
"285 465 OFFCURVE",
"225 511 OFFCURVE",
"153 511 CURVE SMOOTH",
"79 511 OFFCURVE",
"22 470 OFFCURVE",
"22 384 CURVE SMOOTH",
"22 341 OFFCURVE",
"33 310 OFFCURVE",
"47 274 CURVE",
"113 290 LINE",
"106 304 OFFCURVE",
"99 322 OFFCURVE",
"99 342 CURVE SMOOTH",
"99 377 OFFCURVE",
"125 391 OFFCURVE",
"157 391 CURVE SMOOTH",
"200 391 OFFCURVE",
"232 370 OFFCURVE",
"254 310 CURVE",
"308 310 LINE",
"324 357 OFFCURVE",
"356 391 OFFCURVE",
"401 391 CURVE SMOOTH",
"436 391 OFFCURVE",
"456 376 OFFCURVE",
"456 338 CURVE SMOOTH",
"456 312 OFFCURVE",
"445 284 OFFCURVE",
"413 238 CURVE SMOOTH",
"349 147 OFFCURVE",
"321 103 OFFCURVE",
"321 27 CURVE SMOOTH",
"321 -77 OFFCURVE",
"385 -143 OFFCURVE",
"508 -143 CURVE SMOOTH"
);
}
);
width = 809;
}
);
unicode = 0C0C;
},
{
glyphname = etelu;
lastChange = "2020-01-21 19:05:42 +0000";
layers = (
{
layerId = "1282F4F2-4030-47E6-A043-DFF1281EB459";
paths = (
{
closed = 1;
nodes = (
"288 205 OFFCURVE",
"236 262 OFFCURVE",
"162 262 CURVE SMOOTH",
"84 262 OFFCURVE",
"37 200 OFFCURVE",
"37 126 CURVE SMOOTH",
"37 34 OFFCURVE",
"91 -12 OFFCURVE",
"163 -12 CURVE SMOOTH",
"228 -12 OFFCURVE",
"288 27 OFFCURVE",
"288 127 CURVE SMOOTH"
);
},
{
closed = 1;
nodes = (
"65 193 OFFCURVE",
"100 237 OFFCURVE",
"163 237 CURVE SMOOTH",
"218 237 OFFCURVE",
"263 194 OFFCURVE",
"263 126 CURVE SMOOTH",
"263 49 OFFCURVE",
"218 14 OFFCURVE",
"162 14 CURVE SMOOTH",
"99 14 OFFCURVE",
"65 58 OFFCURVE",
"65 127 CURVE SMOOTH"
);
},
{
closed = 1;
nodes = (
"265 153 LINE",
"305 36 OFFCURVE",
"372 -12 OFFCURVE",
"451 -12 CURVE SMOOTH",
"534 -12 OFFCURVE",
"610 32 OFFCURVE",
"610 219 CURVE SMOOTH",
"610 475 OFFCURVE",
"458 687 OFFCURVE",
"218 699 CURVE",
"218 674 LINE",
"430 662 OFFCURVE",
"583 479 OFFCURVE",
"583 220 CURVE SMOOTH",
"583 51 OFFCURVE",
"522 15 OFFCURVE",
"451 15 CURVE SMOOTH",
"374 15 OFFCURVE",
"310 75 OFFCURVE",
"268 200 CURVE"
);
}
);
width = 654;
},
{
layerId = UUID0;
paths = (
{
closed = 1;
nodes = (
"319 222 OFFCURVE",
"269 291 OFFCURVE",
"176 291 CURVE SMOOTH",
"81 291 OFFCURVE",
"29 220 OFFCURVE",
"29 139 CURVE SMOOTH",
"29 46 OFFCURVE",
"87 -12 OFFCURVE",
"175 -12 CURVE SMOOTH",
"254 -12 OFFCURVE",
"319 38 OFFCURVE",
"319 143 CURVE SMOOTH"
);
},
{
closed = 1;
nodes = (
"89 214 OFFCURVE",
"123 248 OFFCURVE",
"176 248 CURVE SMOOTH",
"230 248 OFFCURVE",
"264 213 OFFCURVE",
"264 161 CURVE SMOOTH",
"264 105 OFFCURVE",
"229 77 OFFCURVE",
"175 77 CURVE SMOOTH",
"119 77 OFFCURVE",
"89 111 OFFCURVE",
"89 160 CURVE SMOOTH"
);
},
{
closed = 1;
nodes = (
"301 126 LINE",
"338 55 OFFCURVE",
"385 -12 OFFCURVE",
"477 -12 CURVE SMOOTH",
"585 -12 OFFCURVE",
"634 80 OFFCURVE",
"634 235 CURVE SMOOTH",
"634 497 OFFCURVE",
"477 700 OFFCURVE",
"234 707 CURVE",
"231 628 LINE",
"462 616 OFFCURVE",
"586 450 OFFCURVE",
"586 259 CURVE SMOOTH",
"586 149 OFFCURVE",
"548 98 OFFCURVE",
"469 98 CURVE SMOOTH",
"394 98 OFFCURVE",
"349 137 OFFCURVE",
"296 225 CURVE"
);
}
);
width = 671;
},
{
layerId = "A2C49E55-5C54-436C-AF3A-B2B174879BD8";
paths = (
{
closed = 1;
nodes = (
"338 265 OFFCURVE",
"275 326 OFFCURVE",
"180 326 CURVE SMOOTH",
"86 326 OFFCURVE",
"23 263 OFFCURVE",
"23 161 CURVE SMOOTH",
"23 49 OFFCURVE",
"92 -12 OFFCURVE",
"181 -12 CURVE SMOOTH",
"262 -12 OFFCURVE",
"338 43 OFFCURVE",
"338 161 CURVE SMOOTH"
);
},
{
closed = 1;
nodes = (
"111 252 OFFCURVE",
"136 271 OFFCURVE",
"182 271 CURVE SMOOTH",
"230 271 OFFCURVE",
"255 251 OFFCURVE",
"255 220 CURVE SMOOTH",
"255 188 OFFCURVE",
"229 176 OFFCURVE",
"181 176 CURVE SMOOTH",
"132 176 OFFCURVE",
"111 192 OFFCURVE",
"111 221 CURVE SMOOTH"
);
},
{
closed = 1;
nodes = (
"306 139 LINE",
"360 46 OFFCURVE",
"400 -12 OFFCURVE",
"495 -12 CURVE SMOOTH",
"609 -12 OFFCURVE",
"664 84 OFFCURVE",
"664 246 CURVE SMOOTH",
"664 508 OFFCURVE",
"498 707 OFFCURVE",
"252 716 CURVE",
"245 601 LINE",
"466 590 OFFCURVE",
"587 462 OFFCURVE",
"587 316 CURVE SMOOTH",
"587 235 OFFCURVE",
"549 204 OFFCURVE",
"469 204 CURVE SMOOTH",
"409 204 OFFCURVE",
"351 228 OFFCURVE",
"285 288 CURVE"
);
}
);
width = 695;
}
);
leftMetricsKey = paalttelu;
rightMetricsKey = "=paalttelu+2";
unicode = 0C0E;
},
{
glyphname = eetelu;
lastChange = "2020-01-21 19:05:42 +0000";
layers = (
{
layerId = "1282F4F2-4030-47E6-A043-DFF1281EB459";
paths = (
{
closed = 1;
nodes = (
"288 205 OFFCURVE",
"236 262 OFFCURVE",
"162 262 CURVE SMOOTH",
"84 262 OFFCURVE",
"37 200 OFFCURVE",
"37 126 CURVE SMOOTH",
"37 34 OFFCURVE",
"91 -12 OFFCURVE",
"163 -12 CURVE SMOOTH",
"228 -12 OFFCURVE",
"288 27 OFFCURVE",
"288 127 CURVE SMOOTH"
);
},
{
closed = 1;
nodes = (
"65 193 OFFCURVE",
"100 237 OFFCURVE",
"163 237 CURVE SMOOTH",
"218 237 OFFCURVE",
"263 194 OFFCURVE",
"263 126 CURVE SMOOTH",
"263 49 OFFCURVE",
"218 14 OFFCURVE",
"162 14 CURVE SMOOTH",
"99 14 OFFCURVE",
"65 58 OFFCURVE",
"65 127 CURVE SMOOTH"
);
},
{
closed = 1;
nodes = (
"265 153 LINE",
"305 36 OFFCURVE",
"372 -12 OFFCURVE",
"451 -12 CURVE SMOOTH",
"534 -12 OFFCURVE",
"610 32 OFFCURVE",
"610 219 CURVE SMOOTH",
"610 475 OFFCURVE",
"458 687 OFFCURVE",
"218 699 CURVE",
"218 674 LINE",
"430 662 OFFCURVE",
"583 479 OFFCURVE",
"583 220 CURVE SMOOTH",
"583 51 OFFCURVE",
"522 15 OFFCURVE",
"451 15 CURVE SMOOTH",
"374 15 OFFCURVE",
"310 75 OFFCURVE",
"268 200 CURVE"
);
},
{
closed = 1;
nodes = (
"117 631 OFFCURVE",
"147 573 OFFCURVE",
"176 526 CURVE",
"200 537 LINE",
"167 589 OFFCURVE",
"144 637 OFFCURVE",
"144 693 CURVE SMOOTH",
"144 741 OFFCURVE",
"165 790 OFFCURVE",
"234 790 CURVE SMOOTH",
"252 790 OFFCURVE",
"270 786 OFFCURVE",
"282 781 CURVE",
"291 806 LINE",
"277 811 OFFCURVE",
"257 815 OFFCURVE",
"234 815 CURVE SMOOTH",
"164 815 OFFCURVE",
"117 774 OFFCURVE",
"117 693 CURVE SMOOTH"
);
}
);
width = 654;
},
{
layerId = UUID0;
paths = (
{
closed = 1;
nodes = (
"319 222 OFFCURVE",
"269 291 OFFCURVE",
"176 291 CURVE SMOOTH",
"81 291 OFFCURVE",
"29 220 OFFCURVE",
"29 139 CURVE SMOOTH",
"29 46 OFFCURVE",
"87 -12 OFFCURVE",
"175 -12 CURVE SMOOTH",
"254 -12 OFFCURVE",
"319 38 OFFCURVE",
"319 143 CURVE SMOOTH"
);
},
{
closed = 1;
nodes = (
"89 214 OFFCURVE",
"123 248 OFFCURVE",
"176 248 CURVE SMOOTH",
"230 248 OFFCURVE",
"264 213 OFFCURVE",
"264 161 CURVE SMOOTH",
"264 105 OFFCURVE",
"229 77 OFFCURVE",
"175 77 CURVE SMOOTH",
"119 77 OFFCURVE",
"89 111 OFFCURVE",
"89 160 CURVE SMOOTH"
);
},
{
closed = 1;
nodes = (
"301 126 LINE",
"338 55 OFFCURVE",
"385 -12 OFFCURVE",
"477 -12 CURVE SMOOTH",
"585 -12 OFFCURVE",
"634 80 OFFCURVE",
"634 235 CURVE SMOOTH",
"634 497 OFFCURVE",
"477 687 OFFCURVE",
"256 704 CURVE",
"247 626 LINE",
"466 608 OFFCURVE",
"586 450 OFFCURVE",
"586 259 CURVE SMOOTH",
"586 149 OFFCURVE",
"548 98 OFFCURVE",
"469 98 CURVE SMOOTH",
"394 98 OFFCURVE",
"349 137 OFFCURVE",
"296 225 CURVE"
);
},
{
closed = 1;
nodes = (
"118 634 OFFCURVE",
"148 578 OFFCURVE",
"188 517 CURVE",
"230 534 LINE",
"202 589 OFFCURVE",
"186 631 OFFCURVE",
"186 681 CURVE SMOOTH",
"186 744 OFFCURVE",
"224 762 OFFCURVE",
"256 762 CURVE SMOOTH",
"268 762 OFFCURVE",
"286 760 OFFCURVE",
"300 755 CURVE",
"318 808 LINE",
"301 816 OFFCURVE",
"278 824 OFFCURVE",
"237 824 CURVE SMOOTH",
"168 824 OFFCURVE",
"118 776 OFFCURVE",
"118 696 CURVE SMOOTH"
);
}
);
width = 671;
},
{
layerId = "A2C49E55-5C54-436C-AF3A-B2B174879BD8";
paths = (
{
closed = 1;
nodes = (
"338 265 OFFCURVE",
"275 326 OFFCURVE",
"180 326 CURVE SMOOTH",
"86 326 OFFCURVE",
"23 263 OFFCURVE",
"23 161 CURVE SMOOTH",
"23 49 OFFCURVE",
"92 -12 OFFCURVE",
"181 -12 CURVE SMOOTH",
"262 -12 OFFCURVE",
"338 43 OFFCURVE",
"338 161 CURVE SMOOTH"
);
},
{
closed = 1;
nodes = (
"111 252 OFFCURVE",
"136 271 OFFCURVE",
"182 271 CURVE SMOOTH",
"230 271 OFFCURVE",
"255 251 OFFCURVE",
"255 220 CURVE SMOOTH",
"255 188 OFFCURVE",
"229 176 OFFCURVE",
"181 176 CURVE SMOOTH",
"132 176 OFFCURVE",
"111 192 OFFCURVE",
"111 221 CURVE SMOOTH"
);
},
{
closed = 1;
nodes = (
"306 139 LINE",
"360 46 OFFCURVE",
"400 -12 OFFCURVE",
"495 -12 CURVE SMOOTH",
"609 -12 OFFCURVE",
"664 84 OFFCURVE",
"664 246 CURVE SMOOTH",
"664 497 OFFCURVE",
"511 691 OFFCURVE",
"288 713 CURVE",
"275 598 LINE",
"475 581 OFFCURVE",
"587 457 OFFCURVE",
"587 316 CURVE SMOOTH",
"587 235 OFFCURVE",
"549 204 OFFCURVE",
"469 204 CURVE SMOOTH",
"409 204 OFFCURVE",
"351 228 OFFCURVE",
"285 288 CURVE"
);
},
{
closed = 1;
nodes = (
"115 622 OFFCURVE",
"158 560 OFFCURVE",
"212 499 CURVE",
"269 521 LINE",
"239 584 OFFCURVE",
"223 628 OFFCURVE",
"223 683 CURVE SMOOTH",
"223 738 OFFCURVE",
"251 760 OFFCURVE",
"282 760 CURVE SMOOTH",
"299 760 OFFCURVE",
"312 758 OFFCURVE",
"326 753 CURVE",
"347 819 LINE",
"324 830 OFFCURVE",
"291 839 OFFCURVE",
"253 839 CURVE SMOOTH",
"161 839 OFFCURVE",
"115 780 OFFCURVE",
"115 701 CURVE SMOOTH"
);
}
);
width = 695;
}
);
widthMetricsKey = etelu;
unicode = 0C0F;
},
{
glyphname = aitelu;
lastChange = "2020-01-21 19:05:42 +0000";
layers = (
{
layerId = "1282F4F2-4030-47E6-A043-DFF1281EB459";
paths = (
{
closed = 1;
nodes = (
"292 205 OFFCURVE",
"240 262 OFFCURVE",
"166 262 CURVE SMOOTH",
"88 262 OFFCURVE",
"41 200 OFFCURVE",
"41 126 CURVE SMOOTH",
"41 34 OFFCURVE",
"95 -12 OFFCURVE",
"167 -12 CURVE SMOOTH",
"232 -12 OFFCURVE",
"292 27 OFFCURVE",
"292 127 CURVE SMOOTH"
);
},
{
closed = 1;
nodes = (
"68 193 OFFCURVE",
"103 237 OFFCURVE",
"167 237 CURVE SMOOTH",
"222 237 OFFCURVE",
"267 194 OFFCURVE",
"267 126 CURVE SMOOTH",
"267 49 OFFCURVE",
"222 14 OFFCURVE",
"166 14 CURVE SMOOTH",
"103 14 OFFCURVE",
"68 58 OFFCURVE",
"68 127 CURVE SMOOTH"
);
},
{
closed = 1;
nodes = (
"550 -12 OFFCURVE",
"623 50 OFFCURVE",
"623 228 CURVE SMOOTH",
"623 409 OFFCURVE",
"555 493 OFFCURVE",
"456 493 CURVE SMOOTH",
"377 493 OFFCURVE",
"324 439 OFFCURVE",
"303 358 CURVE",
"313 361 LINE",
"301 427 OFFCURVE",
"254 493 OFFCURVE",
"168 493 CURVE SMOOTH",
"98 493 OFFCURVE",
"46 450 OFFCURVE",
"46 381 CURVE SMOOTH",
"46 353 OFFCURVE",
"51 332 OFFCURVE",
"60 306 CURVE",
"85 313 LINE",
"77 333 OFFCURVE",
"73 355 OFFCURVE",
"73 381 CURVE SMOOTH",
"73 429 OFFCURVE",
"106 468 OFFCURVE",
"168 468 CURVE SMOOTH",
"239 468 OFFCURVE",
"283 409 OFFCURVE",
"296 344 CURVE",
"320 344 LINE",
"337 402 OFFCURVE",
"375 468 OFFCURVE",
"456 468 CURVE SMOOTH",
"545 468 OFFCURVE",
"596 385 OFFCURVE",
"596 228 CURVE SMOOTH",
"596 67 OFFCURVE",
"537 15 OFFCURVE",
"461 15 CURVE SMOOTH",
"378 15 OFFCURVE",
"314 75 OFFCURVE",
"272 200 CURVE",
"269 153 LINE",
"309 36 OFFCURVE",
"376 -12 OFFCURVE",
"464 -12 CURVE SMOOTH"
);
}
);
width = 670;
},
{
layerId = UUID0;
paths = (
{
closed = 1;
nodes = (
"326 222 OFFCURVE",
"276 291 OFFCURVE",
"183 291 CURVE SMOOTH",
"88 291 OFFCURVE",
"36 220 OFFCURVE",
"36 139 CURVE SMOOTH",
"36 46 OFFCURVE",
"94 -12 OFFCURVE",
"182 -12 CURVE SMOOTH",
"261 -12 OFFCURVE",
"326 38 OFFCURVE",
"326 143 CURVE SMOOTH"
);
},
{
closed = 1;
nodes = (
"96 214 OFFCURVE",
"130 248 OFFCURVE",
"183 248 CURVE SMOOTH",
"237 248 OFFCURVE",
"271 213 OFFCURVE",
"271 161 CURVE SMOOTH",
"271 105 OFFCURVE",
"236 77 OFFCURVE",
"182 77 CURVE SMOOTH",
"126 77 OFFCURVE",
"96 111 OFFCURVE",
"96 160 CURVE SMOOTH"
);
},
{
closed = 1;
nodes = (
"597 -12 OFFCURVE",
"648 83 OFFCURVE",
"648 245 CURVE SMOOTH",
"648 375 OFFCURVE",
"602 500 OFFCURVE",
"471 500 CURVE SMOOTH",
"389 500 OFFCURVE",
"337 451 OFFCURVE",
"304 379 CURVE",
"327 390 LINE",
"304 450 OFFCURVE",
"251 500 OFFCURVE",
"172 500 CURVE SMOOTH",
"90 500 OFFCURVE",
"39 450 OFFCURVE",
"39 374 CURVE SMOOTH",
"39 350 OFFCURVE",
"45 322 OFFCURVE",
"55 300 CURVE",
"98 313 LINE",
"94 323 OFFCURVE",
"90 336 OFFCURVE",
"90 351 CURVE SMOOTH",
"90 391 OFFCURVE",
"122 416 OFFCURVE",
"180 416 CURVE SMOOTH",
"249 416 OFFCURVE",
"289 370 OFFCURVE",
"296 332 CURVE",
"332 332 LINE",
"352 378 OFFCURVE",
"392 416 OFFCURVE",
"459 416 CURVE SMOOTH",
"562 416 OFFCURVE",
"603 335 OFFCURVE",
"603 249 CURVE SMOOTH",
"603 151 OFFCURVE",
"563 98 OFFCURVE",
"482 98 CURVE SMOOTH",
"401 98 OFFCURVE",
"356 137 OFFCURVE",
"303 225 CURVE",
"308 126 LINE",
"345 55 OFFCURVE",
"392 -12 OFFCURVE",
"489 -12 CURVE SMOOTH"
);
}
);
width = 687;
},
{
layerId = "A2C49E55-5C54-436C-AF3A-B2B174879BD8";
paths = (
{
closed = 1;
nodes = (
"345 265 OFFCURVE",
"282 326 OFFCURVE",
"187 326 CURVE SMOOTH",
"93 326 OFFCURVE",
"30 263 OFFCURVE",
"30 161 CURVE SMOOTH",
"30 49 OFFCURVE",
"99 -12 OFFCURVE",
"188 -12 CURVE SMOOTH",
"269 -12 OFFCURVE",
"345 43 OFFCURVE",
"345 161 CURVE SMOOTH"
);
},
{
closed = 1;
nodes = (
"118 252 OFFCURVE",
"143 271 OFFCURVE",
"189 271 CURVE SMOOTH",
"237 271 OFFCURVE",
"262 251 OFFCURVE",
"262 220 CURVE SMOOTH",
"262 186 OFFCURVE",
"236 174 OFFCURVE",
"188 174 CURVE SMOOTH",
"139 174 OFFCURVE",
"118 190 OFFCURVE",
"118 221 CURVE SMOOTH"
);
},
{
closed = 1;
nodes = (
"621 -12 OFFCURVE",
"676 85 OFFCURVE",
"676 254 CURVE SMOOTH",
"676 431 OFFCURVE",
"606 511 OFFCURVE",
"497 511 CURVE SMOOTH",
"422 511 OFFCURVE",
"371 473 OFFCURVE",
"333 412 CURVE",
"352 411 LINE",
"314 469 OFFCURVE",
"269 511 OFFCURVE",
"183 511 CURVE SMOOTH",
"78 511 OFFCURVE",
"33 455 OFFCURVE",
"33 381 CURVE SMOOTH",
"33 357 OFFCURVE",
"37 337 OFFCURVE",
"42 319 CURVE",
"111 331 LINE",
"110 335 OFFCURVE",
"109 339 OFFCURVE",
"109 344 CURVE SMOOTH",
"109 373 OFFCURVE",
"131 391 OFFCURVE",
"196 391 CURVE SMOOTH",
"252 391 OFFCURVE",
"290 363 OFFCURVE",
"309 324 CURVE",
"363 324 LINE",
"385 357 OFFCURVE",
"422 389 OFFCURVE",
"490 389 CURVE SMOOTH",
"558 389 OFFCURVE",
"606 355 OFFCURVE",
"606 293 CURVE SMOOTH",
"606 233 OFFCURVE",
"569 204 OFFCURVE",
"494 204 CURVE SMOOTH",
"411 204 OFFCURVE",
"358 228 OFFCURVE",
"292 288 CURVE",
"313 139 LINE",
"367 46 OFFCURVE",
"407 -12 OFFCURVE",
"509 -12 CURVE SMOOTH"
);
}
);
width = 709;
}
);
rightMetricsKey = "=|ttatelu";
unicode = 0C10;
},
{
glyphname = otelu;
lastChange = "2020-01-21 19:05:42 +0000";
layers = (
{
layerId = "1282F4F2-4030-47E6-A043-DFF1281EB459";
paths = (
{
closed = 1;
nodes = (
"575 -12 OFFCURVE",
"626 34 OFFCURVE",
"626 129 CURVE SMOOTH",
"626 201 OFFCURVE",
"593 270 OFFCURVE",
"495 302 CURVE",
"487 277 LINE",
"574 249 OFFCURVE",
"599 190 OFFCURVE",
"599 129 CURVE SMOOTH",
"599 56 OFFCURVE",
"566 15 OFFCURVE",
"488 15 CURVE SMOOTH",
"407 15 OFFCURVE",
"359 63 OFFCURVE",
"346 172 CURVE",
"322 172 LINE",
"311 81 OFFCURVE",
"272 15 OFFCURVE",
"177 15 CURVE SMOOTH",
"113 15 OFFCURVE",
"72 45 OFFCURVE",
"72 110 CURVE SMOOTH",
"72 167 OFFCURVE",
"105 200 OFFCURVE",
"183 236 CURVE SMOOTH",
"261 272 OFFCURVE",
"305 304 OFFCURVE",
"305 378 CURVE SMOOTH",
"305 433 OFFCURVE",
"273 493 OFFCURVE",
"178 493 CURVE SMOOTH",
"83 493 OFFCURVE",
"40 435 OFFCURVE",
"40 373 CURVE SMOOTH",
"40 340 OFFCURVE",
"46 317 OFFCURVE",
"52 298 CURVE",
"78 302 LINE",
"71 321 OFFCURVE",
"67 344 OFFCURVE",
"67 373 CURVE SMOOTH",
"67 427 OFFCURVE",
"98 468 OFFCURVE",
"178 468 CURVE SMOOTH",
"256 468 OFFCURVE",
"278 422 OFFCURVE",
"278 378 CURVE SMOOTH",
"278 321 OFFCURVE",
"249 294 OFFCURVE",
"171 258 CURVE SMOOTH",
"89 220 OFFCURVE",
"45 182 OFFCURVE",
"45 110 CURVE SMOOTH",
"45 39 OFFCURVE",
"88 -12 OFFCURVE",
"177 -12 CURVE SMOOTH",
"256 -12 OFFCURVE",
"321 29 OFFCURVE",
"338 143 CURVE",
"329 143 LINE",
"344 40 OFFCURVE",
"397 -12 OFFCURVE",
"488 -12 CURVE SMOOTH"
);
}
);
width = 665;
},
{
layerId = UUID0;
paths = (
{
closed = 1;
nodes = (
"608 -12 OFFCURVE",
"653 44 OFFCURVE",
"653 147 CURVE SMOOTH",
"653 242 OFFCURVE",
"607 304 OFFCURVE",
"523 325 CURVE",
"511 251 LINE",
"568 242 OFFCURVE",
"608 218 OFFCURVE",
"608 168 CURVE SMOOTH",
"608 126 OFFCURVE",
"576 98 OFFCURVE",
"509 98 CURVE SMOOTH",
"428 98 OFFCURVE",
"382 134 OFFCURVE",
"363 204 CURVE",
"332 204 LINE",
"312 130 OFFCURVE",
"266 98 OFFCURVE",
"192 98 CURVE SMOOTH",
"133 98 OFFCURVE",
"110 117 OFFCURVE",
"110 154 CURVE SMOOTH",
"110 182 OFFCURVE",
"125 207 OFFCURVE",
"206 242 CURVE SMOOTH",
"293 280 OFFCURVE",
"331 319 OFFCURVE",
"331 385 CURVE SMOOTH",
"331 446 OFFCURVE",
"286 500 OFFCURVE",
"190 500 CURVE SMOOTH",
"95 500 OFFCURVE",
"33 449 OFFCURVE",
"33 370 CURVE SMOOTH",
"33 345 OFFCURVE",
"36 322 OFFCURVE",
"43 296 CURVE",
"125 305 LINE",
"114 330 OFFCURVE",
"110 353 OFFCURVE",
"110 376 CURVE SMOOTH",
"110 426 OFFCURVE",
"139 455 OFFCURVE",
"192 455 CURVE SMOOTH",
"239 455 OFFCURVE",
"274 431 OFFCURVE",
"274 381 CURVE SMOOTH",
"274 338 OFFCURVE",
"248 309 OFFCURVE",
"178 281 CURVE SMOOTH",
"89 245 OFFCURVE",
"42 199 OFFCURVE",
"42 127 CURVE SMOOTH",
"42 35 OFFCURVE",
"103 -12 OFFCURVE",
"184 -12 CURVE SMOOTH",
"269 -12 OFFCURVE",
"328 28 OFFCURVE",
"365 147 CURVE",
"329 148 LINE",
"369 28 OFFCURVE",
"435 -12 OFFCURVE",
"516 -12 CURVE SMOOTH"
);
}
);
width = 684;
},
{
layerId = "A2C49E55-5C54-436C-AF3A-B2B174879BD8";
paths = (
{
closed = 1;
nodes = (
"635 -12 OFFCURVE",
"708 44 OFFCURVE",
"708 184 CURVE SMOOTH",
"708 316 OFFCURVE",
"647 379 OFFCURVE",
"559 406 CURVE",
"541 320 LINE",
"605 312 OFFCURVE",
"628 289 OFFCURVE",
"628 257 CURVE SMOOTH",
"628 222 OFFCURVE",
"600 204 OFFCURVE",
"539 204 CURVE SMOOTH",
"469 204 OFFCURVE",
"428 225 OFFCURVE",
"408 279 CURVE",
"354 279 LINE",
"335 230 OFFCURVE",
"296 204 OFFCURVE",
"223 204 CURVE SMOOTH",
"170 204 OFFCURVE",
"152 215 OFFCURVE",
"152 234 CURVE SMOOTH",
"152 255 OFFCURVE",
"173 264 OFFCURVE",
"248 286 CURVE SMOOTH",
"359 319 OFFCURVE",
"380 356 OFFCURVE",
"380 404 CURVE SMOOTH",
"380 462 OFFCURVE",
"338 511 OFFCURVE",
"221 511 CURVE SMOOTH",
"102 511 OFFCURVE",
"27 468 OFFCURVE",
"27 382 CURVE SMOOTH",
"27 360 OFFCURVE",
"31 340 OFFCURVE",
"37 318 CURVE",
"182 339 LINE",
"173 360 OFFCURVE",
"169 375 OFFCURVE",
"169 395 CURVE SMOOTH",
"169 427 OFFCURVE",
"185 454 OFFCURVE",
"237 454 CURVE SMOOTH",
"280 454 OFFCURVE",
"300 439 OFFCURVE",
"300 407 CURVE SMOOTH",
"300 374 OFFCURVE",
"281 356 OFFCURVE",
"193 331 CURVE SMOOTH",
"89 301 OFFCURVE",
"38 255 OFFCURVE",
"38 155 CURVE SMOOTH",
"38 35 OFFCURVE",
"125 -12 OFFCURVE",
"196 -12 CURVE SMOOTH",
"307 -12 OFFCURVE",
"366 46 OFFCURVE",
"397 149 CURVE",
"362 152 LINE",
"398 30 OFFCURVE",
"469 -12 OFFCURVE",
"550 -12 CURVE SMOOTH"
);
}
);
width = 734;
}
);
unicode = 0C12;
},
{
glyphname = ootelu;
lastChange = "2020-01-21 19:05:42 +0000";
layers = (
{
components = (
{
alignment = -1;
name = otelu;
}
);
layerId = "1282F4F2-4030-47E6-A043-DFF1281EB459";
paths = (
{
closed = 1;
nodes = (
"105 661 OFFCURVE",
"61 623 OFFCURVE",
"61 563 CURVE SMOOTH",
"61 523 OFFCURVE",
"85 487 OFFCURVE",
"114 465 CURVE",
"133 480 LINE",
"103 502 OFFCURVE",
"88 531 OFFCURVE",
"88 563 CURVE SMOOTH",
"88 612 OFFCURVE",
"124 636 OFFCURVE",
"175 636 CURVE SMOOTH",
"236 636 OFFCURVE",
"276 597 OFFCURVE",
"276 520 CURVE",
"302 520 LINE",
"302 590 OFFCURVE",
"270 661 OFFCURVE",
"175 661 CURVE SMOOTH"
);
}
);
width = 665;
},
{
components = (
{
alignment = -1;
name = otelu;
}
);
layerId = UUID0;
paths = (
{
closed = 1;
nodes = (
"104 669 OFFCURVE",
"57 629 OFFCURVE",
"57 564 CURVE SMOOTH",
"57 524 OFFCURVE",
"78 487 OFFCURVE",
"109 464 CURVE",
"151 486 LINE",
"126 501 OFFCURVE",
"108 520 OFFCURVE",
"108 551 CURVE SMOOTH",
"108 584 OFFCURVE",
"134 606 OFFCURVE",
"178 606 CURVE SMOOTH",
"237 606 OFFCURVE",
"262 573 OFFCURVE",
"270 521 CURVE",
"314 521 LINE",
"310 598 OFFCURVE",
"274 669 OFFCURVE",
"179 669 CURVE SMOOTH"
);
}
);
width = 684;
},
{
components = (
{
alignment = -1;
name = otelu;
}
);
layerId = "A2C49E55-5C54-436C-AF3A-B2B174879BD8";
paths = (
{
closed = 1;
nodes = (
"106 696 OFFCURVE",
"61 640 OFFCURVE",
"61 576 CURVE SMOOTH",
"61 535 OFFCURVE",
"83 499 OFFCURVE",
"104 481 CURVE",
"167 500 LINE",
"146 513 OFFCURVE",
"133 530 OFFCURVE",
"133 553 CURVE SMOOTH",
"133 585 OFFCURVE",
"157 604 OFFCURVE",
"203 604 CURVE SMOOTH",
"257 604 OFFCURVE",
"289 577 OFFCURVE",
"301 523 CURVE",
"362 524 LINE",
"357 626 OFFCURVE",
"307 696 OFFCURVE",
"203 696 CURVE SMOOTH"
);
}
);
width = 734;
}
);
leftMetricsKey = otelu;
widthMetricsKey = otelu;
unicode = 0C13;
},
{
glyphname = autelu;
lastChange = "2020-01-21 19:05:42 +0000";
layers = (
{
components = (
{
alignment = -1;
name = otelu;
}
);
layerId = "1282F4F2-4030-47E6-A043-DFF1281EB459";
paths = (
{
closed = 1;
nodes = (
"194 646 LINE SMOOTH",
"266 646 OFFCURVE",
"305 627 OFFCURVE",
"305 568 CURVE SMOOTH",
"305 503 OFFCURVE",
"253 493 OFFCURVE",
"180 493 CURVE SMOOTH",
"116 493 LINE",
"116 469 LINE",
"175 469 LINE SMOOTH",
"266 469 OFFCURVE",
"332 489 OFFCURVE",
"332 568 CURVE SMOOTH",
"332 642 OFFCURVE",
"271 663 OFFCURVE",
"194 663 CURVE SMOOTH",
"101 663 LINE",
"101 646 LINE"
);
},
{
closed = 1;
nodes = (
"60 670 LINE",
"55 646 LINE",
"478 646 LINE",
"468 650 LINE",
"430 626 OFFCURVE",
"416 597 OFFCURVE",
"416 560 CURVE SMOOTH",
"416 489 OFFCURVE",
"462 455 OFFCURVE",
"521 455 CURVE SMOOTH",
"581 455 OFFCURVE",
"625 495 OFFCURVE",
"625 562 CURVE SMOOTH",
"625 590 OFFCURVE",
"615 617 OFFCURVE",
"599 634 CURVE SMOOTH",
"574 660 OFFCURVE",
"544 670 OFFCURVE",
"486 670 CURVE SMOOTH"
);
},
{
closed = 1;
nodes = (
"478 480 OFFCURVE",
"442 502 OFFCURVE",
"442 562 CURVE SMOOTH",
"442 610 OFFCURVE",
"473 645 OFFCURVE",
"518 645 CURVE SMOOTH",
"566 645 OFFCURVE",
"598 611 OFFCURVE",
"598 562 CURVE SMOOTH",
"598 512 OFFCURVE",
"571 480 OFFCURVE",
"522 480 CURVE SMOOTH"
);
}
);
width = 665;
},
{
components = (
{
alignment = -1;
name = otelu;
}
);
layerId = UUID0;
paths = (
{
closed = 1;
nodes = (
"193 605 LINE SMOOTH",
"240 605 OFFCURVE",
"284 598 OFFCURVE",
"284 551 CURVE SMOOTH",
"284 507 OFFCURVE",
"246 500 OFFCURVE",
"186 500 CURVE SMOOTH",
"130 500 LINE",
"130 455 LINE",
"186 455 LINE SMOOTH",
"282 455 OFFCURVE",
"341 484 OFFCURVE",
"341 551 CURVE SMOOTH",
"341 619 OFFCURVE",
"261 642 OFFCURVE",
"158 642 CURVE SMOOTH",
"117 642 LINE",
"110 605 LINE"
);
},
{
closed = 1;
nodes = (
"51 679 LINE",
"44 605 LINE",
"454 605 LINE",
"453 623 LINE",
"435 604 OFFCURVE",
"426 573 OFFCURVE",
"426 550 CURVE SMOOTH",
"426 481 OFFCURVE",
"472 439 OFFCURVE",
"543 439 CURVE SMOOTH",
"617 439 OFFCURVE",
"662 485 OFFCURVE",
"662 556 CURVE SMOOTH",
"662 595 OFFCURVE",
"644 629 OFFCURVE",
"613 650 CURVE SMOOTH",
"581 671 OFFCURVE",
"543 679 OFFCURVE",
"467 679 CURVE SMOOTH"
);
},
{
closed = 1;
nodes = (
"511 482 OFFCURVE",
"481 496 OFFCURVE",
"481 547 CURVE SMOOTH",
"481 589 OFFCURVE",
"509 610 OFFCURVE",
"540 610 CURVE SMOOTH",
"579 610 OFFCURVE",
"603 587 OFFCURVE",
"603 547 CURVE SMOOTH",
"603 503 OFFCURVE",
"577 482 OFFCURVE",
"544 482 CURVE SMOOTH"
);
}
);
width = 684;
},
{
components = (
{
alignment = -1;
name = otelu;
}
);
layerId = "A2C49E55-5C54-436C-AF3A-B2B174879BD8";
paths = (
{
closed = 1;
nodes = (
"221 583 LINE SMOOTH",
"270 583 OFFCURVE",
"280 569 OFFCURVE",
"280 545 CURVE SMOOTH",
"280 519 OFFCURVE",
"264 511 OFFCURVE",
"228 511 CURVE SMOOTH",
"128 511 LINE",
"128 454 LINE",
"199 454 LINE SMOOTH",
"299 454 OFFCURVE",
"364 477 OFFCURVE",
"364 545 CURVE SMOOTH",
"364 627 OFFCURVE",
"278 639 OFFCURVE",
"184 639 CURVE SMOOTH",
"86 639 LINE",
"69 583 LINE"
);
},
{
closed = 1;
nodes = (
"57 714 LINE",
"41 583 LINE",
"477 583 LINE",
"453 610 LINE",
"448 598 OFFCURVE",
"441 580 OFFCURVE",
"441 556 CURVE SMOOTH",
"441 477 OFFCURVE",
"488 431 OFFCURVE",
"572 431 CURVE SMOOTH",
"659 431 OFFCURVE",
"713 473 OFFCURVE",
"713 562 CURVE SMOOTH",
"713 615 OFFCURVE",
"690 650 OFFCURVE",
"653 676 CURVE SMOOTH",
"618 701 OFFCURVE",
"568 714 OFFCURVE",
"465 714 CURVE SMOOTH"
);
},
{
closed = 1;
nodes = (
"543 489 OFFCURVE",
"517 503 OFFCURVE",
"517 544 CURVE SMOOTH",
"517 577 OFFCURVE",
"539 594 OFFCURVE",
"572 594 CURVE SMOOTH",
"606 594 OFFCURVE",
"628 575 OFFCURVE",
"628 544 CURVE SMOOTH",
"628 502 OFFCURVE",
"602 489 OFFCURVE",
"570 489 CURVE SMOOTH"
);
}
);
width = 734;
}
);
widthMetricsKey = otelu;
unicode = 0C14;
},
{
glyphname = khatelu;
lastChange = "2020-01-21 19:05:42 +0000";
layers = (
{
layerId = "1282F4F2-4030-47E6-A043-DFF1281EB459";
paths = (
{
closed = 1;
nodes = (
"590 -12 OFFCURVE",
"663 38 OFFCURVE",
"663 197 CURVE SMOOTH",
"663 363 OFFCURVE",
"559 484 OFFCURVE",
"419 496 CURVE",
"419 471 LINE",
"544 458 OFFCURVE",
"636 351 OFFCURVE",
"636 197 CURVE SMOOTH",
"636 51 OFFCURVE",
"573 15 OFFCURVE",
"494 15 CURVE SMOOTH",
"432 15 OFFCURVE",
"389 46 OFFCURVE",
"333 105 CURVE",
"272 164 OFFCURVE",
"221 207 OFFCURVE",
"149 207 CURVE SMOOTH",
"78 207 OFFCURVE",
"34 164 OFFCURVE",
"34 100 CURVE SMOOTH",
"34 33 OFFCURVE",
"80 -12 OFFCURVE",
"159 -12 CURVE SMOOTH",
"291 -12 OFFCURVE",
"382 94 OFFCURVE",
"382 260 CURVE SMOOTH",
"382 386 OFFCURVE",
"314 493 OFFCURVE",
"178 493 CURVE SMOOTH",
"98 493 OFFCURVE",
"52 449 OFFCURVE",
"52 382 CURVE SMOOTH",
"52 315 OFFCURVE",
"96 273 OFFCURVE",
"158 273 CURVE SMOOTH",
"220 273 OFFCURVE",
"265 308 OFFCURVE",
"265 382 CURVE SMOOTH",
"265 418 OFFCURVE",
"246 454 OFFCURVE",
"209 473 CURVE",
"200 472 LINE",
"293 459 OFFCURVE",
"355 382 OFFCURVE",
"355 260 CURVE SMOOTH",
"355 104 OFFCURVE",
"274 14 OFFCURVE",
"160 14 CURVE SMOOTH",
"105 14 OFFCURVE",
"61 42 OFFCURVE",
"61 100 CURVE SMOOTH",
"61 153 OFFCURVE",
"97 182 OFFCURVE",
"148 182 CURVE SMOOTH",
"207 182 OFFCURVE",
"254 148 OFFCURVE",
"320 82 CURVE",
"371 26 OFFCURVE",
"419 -12 OFFCURVE",
"494 -12 CURVE SMOOTH"
);
},
{
closed = 1;
nodes = (
"79 433 OFFCURVE",
"111 467 OFFCURVE",
"161 467 CURVE SMOOTH",
"207 467 OFFCURVE",
"239 432 OFFCURVE",
"239 382 CURVE SMOOTH",
"239 322 OFFCURVE",
"203 298 OFFCURVE",
"157 298 CURVE SMOOTH",
"106 298 OFFCURVE",
"79 332 OFFCURVE",
"79 382 CURVE SMOOTH"
);
},
{
closed = 1;
nodes = (
"344 -125 LINE",
"340 32 LINE",
"316 32 LINE",
"312 -125 LINE"
);
}
);
width = 705;
},
{
layerId = UUID0;
paths = (
{
closed = 1;
nodes = (
"640 -12 OFFCURVE",
"689 82 OFFCURVE",
"689 215 CURVE SMOOTH",
"689 375 OFFCURVE",
"596 489 OFFCURVE",
"440 504 CURVE",
"434 423 LINE",
"569 410 OFFCURVE",
"644 339 OFFCURVE",
"644 229 CURVE SMOOTH",
"644 146 OFFCURVE",
"610 98 OFFCURVE",
"512 98 CURVE SMOOTH",
"446 98 OFFCURVE",
"405 115 OFFCURVE",
"350 155 CURVE",
"287 208 OFFCURVE",
"231 237 OFFCURVE",
"161 237 CURVE SMOOTH",
"66 237 OFFCURVE",
"27 185 OFFCURVE",
"27 123 CURVE SMOOTH",
"27 47 OFFCURVE",
"74 -12 OFFCURVE",
"181 -12 CURVE SMOOTH",
"328 -12 OFFCURVE",
"407 105 OFFCURVE",
"407 263 CURVE SMOOTH",
"407 412 OFFCURVE",
"331 500 OFFCURVE",
"190 500 CURVE SMOOTH",
"101 500 OFFCURVE",
"46 450 OFFCURVE",
"46 378 CURVE SMOOTH",
"46 311 OFFCURVE",
"92 261 OFFCURVE",
"167 261 CURVE SMOOTH",
"238 261 OFFCURVE",
"287 296 OFFCURVE",
"287 374 CURVE SMOOTH",
"287 402 OFFCURVE",
"280 421 OFFCURVE",
"266 438 CURVE",
"262 433 LINE",
"319 412 OFFCURVE",
"360 358 OFFCURVE",
"360 272 CURVE SMOOTH",
"360 149 OFFCURVE",
"301 84 OFFCURVE",
"177 84 CURVE SMOOTH",
"119 84 OFFCURVE",
"87 103 OFFCURVE",
"87 143 CURVE SMOOTH",
"87 178 OFFCURVE",
"113 194 OFFCURVE",
"156 194 CURVE SMOOTH",
"219 194 OFFCURVE",
"273 159 OFFCURVE",
"322 113 CURVE",
"380 37 OFFCURVE",
"443 -12 OFFCURVE",
"524 -12 CURVE SMOOTH"
);
},
{
closed = 1;
nodes = (
"105 413 OFFCURVE",
"131 438 OFFCURVE",
"170 438 CURVE SMOOTH",
"205 438 OFFCURVE",
"231 416 OFFCURVE",
"231 371 CURVE SMOOTH",
"231 322 OFFCURVE",
"200 304 OFFCURVE",
"166 304 CURVE SMOOTH",
"131 304 OFFCURVE",
"105 329 OFFCURVE",
"105 372 CURVE SMOOTH"
);
},
{
closed = 1;
nodes = (
"408 -125 LINE",
"377 28 LINE",
"332 28 LINE",
"301 -125 LINE"
);
}
);
width = 724;
},
{
layerId = "A2C49E55-5C54-436C-AF3A-B2B174879BD8";
paths = (
{
closed = 1;
nodes = (
"671 -12 OFFCURVE",
"722 86 OFFCURVE",
"722 219 CURVE SMOOTH",
"722 393 OFFCURVE",
"621 502 OFFCURVE",
"463 515 CURVE",
"457 386 LINE",
"587 377 OFFCURVE",
"652 346 OFFCURVE",
"652 275 CURVE SMOOTH",
"652 228 OFFCURVE",
"617 203 OFFCURVE",
"541 203 CURVE SMOOTH",
"476 203 OFFCURVE",
"433 217 OFFCURVE",
"387 234 CURVE",
"308 264 OFFCURVE",
"265 276 OFFCURVE",
"179 276 CURVE SMOOTH",
"79 276 OFFCURVE",
"22 224 OFFCURVE",
"22 143 CURVE SMOOTH",
"22 47 OFFCURVE",
"88 -12 OFFCURVE",
"189 -12 CURVE SMOOTH",
"351 -12 OFFCURVE",
"436 131 OFFCURVE",
"436 267 CURVE SMOOTH",
"436 414 OFFCURVE",
"350 511 OFFCURVE",
"207 511 CURVE SMOOTH",
"97 511 OFFCURVE",
"41 455 OFFCURVE",
"41 386 CURVE SMOOTH",
"41 307 OFFCURVE",
"95 267 OFFCURVE",
"182 267 CURVE SMOOTH",
"265 267 OFFCURVE",
"315 302 OFFCURVE",
"315 375 CURVE SMOOTH",
"315 403 OFFCURVE",
"308 433 OFFCURVE",
"294 450 CURVE",
"257 433 LINE",
"330 414 OFFCURVE",
"364 364 OFFCURVE",
"364 300 CURVE SMOOTH",
"364 212 OFFCURVE",
"318 147 OFFCURVE",
"196 147 CURVE SMOOTH",
"145 147 OFFCURVE",
"121 160 OFFCURVE",
"121 185 CURVE SMOOTH",
"121 212 OFFCURVE",
"145 222 OFFCURVE",
"181 222 CURVE SMOOTH",
"254 222 OFFCURVE",
"299 171 OFFCURVE",
"341 119 CURVE",
"394 47 OFFCURVE",
"456 -12 OFFCURVE",
"547 -12 CURVE SMOOTH"
);
},
{
closed = 1;
nodes = (
"130 410 OFFCURVE",
"147 434 OFFCURVE",
"185 434 CURVE SMOOTH",
"218 434 OFFCURVE",
"236 412 OFFCURVE",
"236 378 CURVE SMOOTH",
"236 337 OFFCURVE",
"213 323 OFFCURVE",
"183 323 CURVE SMOOTH",
"156 323 OFFCURVE",
"130 337 OFFCURVE",
"130 380 CURVE SMOOTH"
);
},
{
closed = 1;
nodes = (
"471 -130 LINE",
"434 13 LINE",
"316 13 LINE",
"279 -130 LINE"
);
}
);
width = 751;
}
);
rightMetricsKey = uvowelsigntelu;
unicode = 0C16;
},
{
glyphname = ngatelu;
lastChange = "2020-01-21 19:05:42 +0000";
layers = (
{
layerId = "1282F4F2-4030-47E6-A043-DFF1281EB459";
paths = (
{
closed = 1;
nodes = (
"575 -12 OFFCURVE",
"626 34 OFFCURVE",
"626 130 CURVE SMOOTH",
"626 168 OFFCURVE",
"617 205 OFFCURVE",
"595 236 CURVE",
"572 222 LINE",
"592 195 OFFCURVE",
"599 163 OFFCURVE",
"599 130 CURVE SMOOTH",
"599 56 OFFCURVE",
"566 15 OFFCURVE",
"488 15 CURVE SMOOTH",
"407 15 OFFCURVE",
"359 63 OFFCURVE",
"346 172 CURVE",
"322 172 LINE",
"311 81 OFFCURVE",
"272 15 OFFCURVE",
"177 15 CURVE SMOOTH",
"113 15 OFFCURVE",
"72 45 OFFCURVE",
"72 110 CURVE SMOOTH",
"72 167 OFFCURVE",
"105 200 OFFCURVE",
"183 236 CURVE SMOOTH",
"261 272 OFFCURVE",
"304 304 OFFCURVE",
"304 378 CURVE SMOOTH",
"304 433 OFFCURVE",
"269 493 OFFCURVE",
"178 493 CURVE SMOOTH",
"83 493 OFFCURVE",
"40 435 OFFCURVE",
"40 373 CURVE SMOOTH",
"40 340 OFFCURVE",
"46 317 OFFCURVE",
"52 298 CURVE",
"78 302 LINE",
"71 321 OFFCURVE",
"67 344 OFFCURVE",
"67 373 CURVE SMOOTH",
"67 427 OFFCURVE",
"98 468 OFFCURVE",
"178 468 CURVE SMOOTH",
"256 468 OFFCURVE",
"278 422 OFFCURVE",
"278 378 CURVE SMOOTH",
"278 321 OFFCURVE",
"249 294 OFFCURVE",
"171 258 CURVE SMOOTH",
"89 220 OFFCURVE",
"45 182 OFFCURVE",
"45 110 CURVE SMOOTH",
"45 39 OFFCURVE",
"88 -12 OFFCURVE",
"177 -12 CURVE SMOOTH",
"256 -12 OFFCURVE",
"321 29 OFFCURVE",
"338 143 CURVE",
"329 143 LINE",
"344 40 OFFCURVE",
"397 -12 OFFCURVE",
"488 -12 CURVE SMOOTH"
);
},
{
closed = 1;
nodes = (
"573 313 LINE",
"573 338 LINE",
"287 338 LINE",
"277 313 LINE"
);
},
{
closed = 1;
nodes = (
"416 493 LINE",
"420 336 LINE",
"444 336 LINE",
"448 493 LINE"
);
}
);
width = 665;
},
{
layerId = UUID0;
paths = (
{
closed = 1;
nodes = (
"608 -12 OFFCURVE",
"653 44 OFFCURVE",
"653 151 CURVE SMOOTH",
"653 201 OFFCURVE",
"639 238 OFFCURVE",
"621 265 CURVE",
"576 238 LINE",
"599 214 OFFCURVE",
"607 195 OFFCURVE",
"607 168 CURVE SMOOTH",
"607 128 OFFCURVE",
"576 98 OFFCURVE",
"511 98 CURVE SMOOTH",
"428 98 OFFCURVE",
"382 134 OFFCURVE",
"363 204 CURVE",
"332 204 LINE",
"312 130 OFFCURVE",
"266 98 OFFCURVE",
"193 98 CURVE SMOOTH",
"135 98 OFFCURVE",
"110 117 OFFCURVE",
"110 154 CURVE SMOOTH",
"110 182 OFFCURVE",
"125 207 OFFCURVE",
"206 242 CURVE SMOOTH",
"293 280 OFFCURVE",
"331 319 OFFCURVE",
"331 385 CURVE SMOOTH",
"331 446 OFFCURVE",
"286 500 OFFCURVE",
"190 500 CURVE SMOOTH",
"95 500 OFFCURVE",
"33 449 OFFCURVE",
"33 370 CURVE SMOOTH",
"33 345 OFFCURVE",
"36 322 OFFCURVE",
"43 296 CURVE",
"125 305 LINE",
"114 330 OFFCURVE",
"110 353 OFFCURVE",
"110 376 CURVE SMOOTH",
"110 426 OFFCURVE",
"139 455 OFFCURVE",
"192 455 CURVE SMOOTH",
"239 455 OFFCURVE",
"274 431 OFFCURVE",
"274 381 CURVE SMOOTH",
"274 338 OFFCURVE",
"248 309 OFFCURVE",
"178 281 CURVE SMOOTH",
"89 245 OFFCURVE",
"42 199 OFFCURVE",
"42 127 CURVE SMOOTH",
"42 35 OFFCURVE",
"102 -12 OFFCURVE",
"184 -12 CURVE SMOOTH",
"269 -12 OFFCURVE",
"328 28 OFFCURVE",
"365 147 CURVE",
"329 148 LINE",
"369 28 OFFCURVE",
"435 -12 OFFCURVE",
"516 -12 CURVE SMOOTH"
);
},
{
closed = 1;
nodes = (
"596 303 LINE",
"596 348 LINE",
"288 348 LINE",
"278 303 LINE"
);
},
{
closed = 1;
nodes = (
"405 497 LINE",
"431 339 LINE",
"475 339 LINE",
"500 497 LINE"
);
}
);
width = 684;
},
{
layerId = "A2C49E55-5C54-436C-AF3A-B2B174879BD8";
paths = (
{
closed = 1;
nodes = (
"643 -12 OFFCURVE",
"708 41 OFFCURVE",
"708 189 CURVE SMOOTH",
"708 224 OFFCURVE",
"702 266 OFFCURVE",
"692 292 CURVE",
"624 280 LINE",
"626 274 OFFCURVE",
"628 267 OFFCURVE",
"628 258 CURVE SMOOTH",
"628 224 OFFCURVE",
"600 204 OFFCURVE",
"539 204 CURVE SMOOTH",
"469 204 OFFCURVE",
"428 225 OFFCURVE",
"408 270 CURVE",
"354 270 LINE",
"330 228 OFFCURVE",
"296 204 OFFCURVE",
"220 204 CURVE SMOOTH",
"170 204 OFFCURVE",
"152 215 OFFCURVE",
"152 234 CURVE SMOOTH",
"152 255 OFFCURVE",
"173 264 OFFCURVE",
"248 286 CURVE SMOOTH",
"350 316 OFFCURVE",
"378 356 OFFCURVE",
"378 404 CURVE SMOOTH",
"378 462 OFFCURVE",
"338 511 OFFCURVE",
"221 511 CURVE SMOOTH",
"102 511 OFFCURVE",
"27 468 OFFCURVE",
"27 382 CURVE SMOOTH",
"27 360 OFFCURVE",
"31 340 OFFCURVE",
"37 318 CURVE",
"182 339 LINE",
"173 360 OFFCURVE",
"169 375 OFFCURVE",
"169 395 CURVE SMOOTH",
"169 427 OFFCURVE",
"185 454 OFFCURVE",
"237 454 CURVE SMOOTH",
"280 454 OFFCURVE",
"300 439 OFFCURVE",
"300 407 CURVE SMOOTH",
"300 374 OFFCURVE",
"281 360 OFFCURVE",
"193 331 CURVE SMOOTH",
"89 297 OFFCURVE",
"38 255 OFFCURVE",
"38 155 CURVE SMOOTH",
"38 35 OFFCURVE",
"125 -12 OFFCURVE",
"196 -12 CURVE SMOOTH",
"307 -12 OFFCURVE",
"366 46 OFFCURVE",
"397 149 CURVE",
"362 152 LINE",
"398 30 OFFCURVE",
"469 -12 OFFCURVE",
"544 -12 CURVE SMOOTH"
);
},
{
closed = 1;
nodes = (
"655 307 LINE",
"655 365 LINE",
"292 365 LINE",
"272 307 LINE"
);
},
{
closed = 1;
nodes = (
"427 507 LINE",
"464 351 LINE",
"539 351 LINE",
"575 507 LINE"
);
}
);
width = 734;
}
);
leftMetricsKey = otelu;
widthMetricsKey = otelu;
unicode = 0C19;
},
{
glyphname = catelu;
lastChange = "2020-01-21 19:05:42 +0000";
layers = (
{
components = (
{
alignment = -1;
name = hattelu;
transform = "{1, 0, 0, 1, 220, 0}";
}
);
layerId = "1282F4F2-4030-47E6-A043-DFF1281EB459";
paths = (
{
closed = 1;
nodes = (
"572 -12 OFFCURVE",
"638 39 OFFCURVE",
"638 197 CURVE SMOOTH",
"638 359 OFFCURVE",
"533 485 OFFCURVE",
"353 492 CURVE",
"332 471 LINE",
"527 458 OFFCURVE",
"611 347 OFFCURVE",
"611 197 CURVE SMOOTH",
"611 51 OFFCURVE",
"554 15 OFFCURVE",
"484 15 CURVE SMOOTH",
"408 15 OFFCURVE",
"360 62 OFFCURVE",
"348 172 CURVE",
"324 172 LINE",
"313 72 OFFCURVE",
"269 15 OFFCURVE",
"191 15 CURVE SMOOTH",
"119 15 OFFCURVE",
"89 66 OFFCURVE",
"89 123 CURVE SMOOTH",
"89 196 OFFCURVE",
"137 247 OFFCURVE",
"219 286 CURVE",
"219 308 LINE",
"25 319 LINE",
"25 291 LINE",
"194 286 LINE",
"186 290 LINE",
"109 253 OFFCURVE",
"62 199 OFFCURVE",
"62 122 CURVE SMOOTH",
"62 49 OFFCURVE",
"104 -12 OFFCURVE",
"192 -12 CURVE SMOOTH",
"265 -12 OFFCURVE",
"323 27 OFFCURVE",
"340 143 CURVE",
"331 143 LINE",
"346 34 OFFCURVE",
"401 -12 OFFCURVE",
"484 -12 CURVE SMOOTH"
);
}
);
width = 680;
},
{
components = (
{
name = hattelu;
transform = "{1, 0, 0, 1, 244, 0}";
}
);
layerId = UUID0;
paths = (
{
closed = 1;
nodes = (
"632 -12 OFFCURVE",
"678 84 OFFCURVE",
"678 211 CURVE SMOOTH",
"678 382 OFFCURVE",
"567 494 OFFCURVE",
"387 500 CURVE",
"353 455 LINE",
"537 452 OFFCURVE",
"631 357 OFFCURVE",
"631 225 CURVE SMOOTH",
"631 134 OFFCURVE",
"587 98 OFFCURVE",
"516 98 CURVE SMOOTH",
"453 98 OFFCURVE",
"414 128 OFFCURVE",
"391 204 CURVE",
"360 204 LINE",
"341 136 OFFCURVE",
"297 98 OFFCURVE",
"232 98 CURVE SMOOTH",
"180 98 OFFCURVE",
"142 120 OFFCURVE",
"142 174 CURVE SMOOTH",
"142 213 OFFCURVE",
"168 254 OFFCURVE",
"237 287 CURVE",
"237 318 LINE",
"28 337 LINE",
"22 273 LINE",
"187 274 LINE",
"187 300 LINE",
"108 254 OFFCURVE",
"76 204 OFFCURVE",
"76 136 CURVE SMOOTH",
"76 47 OFFCURVE",
"132 -12 OFFCURVE",
"219 -12 CURVE SMOOTH",
"291 -12 OFFCURVE",
"352 15 OFFCURVE",
"393 147 CURVE",
"357 149 LINE",
"400 11 OFFCURVE",
"459 -12 OFFCURVE",
"521 -12 CURVE SMOOTH"
);
}
);
width = 713;
},
{
components = (
{
name = hattelu;
transform = "{1, 0, 0, 1, 275, 0}";
}
);
layerId = "A2C49E55-5C54-436C-AF3A-B2B174879BD8";
paths = (
{
closed = 1;
nodes = (
"685 -12 OFFCURVE",
"731 86 OFFCURVE",
"731 228 CURVE SMOOTH",
"731 424 OFFCURVE",
"597 515 OFFCURVE",
"436 515 CURVE",
"385 455 LINE",
"581 448 OFFCURVE",
"650 377 OFFCURVE",
"650 292 CURVE SMOOTH",
"650 232 OFFCURVE",
"612 204 OFFCURVE",
"556 204 CURVE SMOOTH",
"505 204 OFFCURVE",
"462 220 OFFCURVE",
"435 279 CURVE",
"381 279 LINE",
"363 236 OFFCURVE",
"327 204 OFFCURVE",
"263 204 CURVE SMOOTH",
"212 204 OFFCURVE",
"190 222 OFFCURVE",
"190 256 CURVE SMOOTH",
"190 288 OFFCURVE",
"218 310 OFFCURVE",
"268 334 CURVE",
"268 385 LINE",
"26 407 LINE",
"17 308 LINE",
"193 311 LINE",
"212 353 LINE",
"135 321 OFFCURVE",
"75 261 OFFCURVE",
"75 164 CURVE SMOOTH",
"75 41 OFFCURVE",
"154 -12 OFFCURVE",
"240 -12 CURVE SMOOTH",
"340 -12 OFFCURVE",
"394 42 OFFCURVE",
"424 153 CURVE",
"392 156 LINE",
"417 49 OFFCURVE",
"481 -12 OFFCURVE",
"566 -12 CURVE SMOOTH"
);
}
);
width = 760;
}
);
widthMetricsKey = "=chatelu";
unicode = 0C1A;
},
{
glyphname = chatelu;
lastChange = "2020-01-21 19:05:42 +0000";
layers = (
{
components = (
{
alignment = -1;
name = hattelu;
transform = "{1, 0, 0, 1, 220, 0}";
}
);
layerId = "1282F4F2-4030-47E6-A043-DFF1281EB459";
paths = (
{
closed = 1;
nodes = (
"572 -12 OFFCURVE",
"638 39 OFFCURVE",
"638 197 CURVE SMOOTH",
"638 359 OFFCURVE",
"533 485 OFFCURVE",
"353 492 CURVE",
"332 471 LINE",
"527 458 OFFCURVE",
"611 347 OFFCURVE",
"611 197 CURVE SMOOTH",
"611 51 OFFCURVE",
"554 15 OFFCURVE",
"484 15 CURVE SMOOTH",
"408 15 OFFCURVE",
"360 62 OFFCURVE",
"348 172 CURVE",
"324 172 LINE",
"313 72 OFFCURVE",
"269 15 OFFCURVE",
"191 15 CURVE SMOOTH",
"119 15 OFFCURVE",
"89 66 OFFCURVE",
"89 123 CURVE SMOOTH",
"89 196 OFFCURVE",
"137 247 OFFCURVE",
"219 286 CURVE",
"219 308 LINE",
"25 319 LINE",
"25 291 LINE",
"194 286 LINE",
"186 290 LINE",
"109 253 OFFCURVE",
"62 199 OFFCURVE",
"62 122 CURVE SMOOTH",
"62 49 OFFCURVE",
"104 -12 OFFCURVE",
"192 -12 CURVE SMOOTH",
"265 -12 OFFCURVE",
"323 27 OFFCURVE",
"340 143 CURVE",
"331 143 LINE",
"346 34 OFFCURVE",
"401 -12 OFFCURVE",
"484 -12 CURVE SMOOTH"
);
},
{
closed = 1;
nodes = (
"352 -125 LINE",
"348 36 LINE",
"324 36 LINE",
"320 -125 LINE"
);
}
);
width = 680;
},
{
components = (
{
name = hattelu;
transform = "{1, 0, 0, 1, 244, 0}";
}
);
layerId = UUID0;
paths = (
{
closed = 1;
nodes = (
"632 -12 OFFCURVE",
"678 84 OFFCURVE",
"678 211 CURVE SMOOTH",
"678 382 OFFCURVE",
"567 494 OFFCURVE",
"387 500 CURVE",
"353 455 LINE",
"537 452 OFFCURVE",
"631 357 OFFCURVE",
"631 225 CURVE SMOOTH",
"631 134 OFFCURVE",
"587 98 OFFCURVE",
"516 98 CURVE SMOOTH",
"453 98 OFFCURVE",
"414 128 OFFCURVE",
"391 204 CURVE",
"360 204 LINE",
"341 136 OFFCURVE",
"297 98 OFFCURVE",
"232 98 CURVE SMOOTH",
"180 98 OFFCURVE",
"142 120 OFFCURVE",
"142 174 CURVE SMOOTH",
"142 213 OFFCURVE",
"168 254 OFFCURVE",
"237 287 CURVE",
"237 318 LINE",
"28 337 LINE",
"22 273 LINE",
"187 274 LINE",
"187 300 LINE",
"108 254 OFFCURVE",
"76 204 OFFCURVE",
"76 136 CURVE SMOOTH",
"76 47 OFFCURVE",
"132 -12 OFFCURVE",
"219 -12 CURVE SMOOTH",
"291 -12 OFFCURVE",
"352 15 OFFCURVE",
"393 147 CURVE",
"357 149 LINE",
"400 11 OFFCURVE",
"459 -12 OFFCURVE",
"521 -12 CURVE SMOOTH"
);
},
{
closed = 1;
nodes = (
"429 -125 LINE",
"398 31 LINE",
"353 31 LINE",
"322 -125 LINE"
);
}
);
width = 713;
},
{
components = (
{
name = hattelu;
transform = "{1, 0, 0, 1, 275, 0}";
}
);
layerId = "A2C49E55-5C54-436C-AF3A-B2B174879BD8";
paths = (
{
closed = 1;
nodes = (
"685 -12 OFFCURVE",
"731 86 OFFCURVE",
"731 228 CURVE SMOOTH",
"731 424 OFFCURVE",
"597 515 OFFCURVE",
"436 515 CURVE",
"385 455 LINE",
"581 448 OFFCURVE",
"650 377 OFFCURVE",
"650 292 CURVE SMOOTH",
"650 232 OFFCURVE",
"612 204 OFFCURVE",
"556 204 CURVE SMOOTH",
"505 204 OFFCURVE",
"462 220 OFFCURVE",
"435 279 CURVE",
"381 279 LINE",
"363 236 OFFCURVE",
"327 204 OFFCURVE",
"263 204 CURVE SMOOTH",
"212 204 OFFCURVE",
"190 222 OFFCURVE",
"190 256 CURVE SMOOTH",
"190 288 OFFCURVE",
"218 310 OFFCURVE",
"268 334 CURVE",
"268 385 LINE",
"26 407 LINE",
"17 308 LINE",
"193 311 LINE",
"212 353 LINE",
"135 321 OFFCURVE",
"75 261 OFFCURVE",
"75 164 CURVE SMOOTH",
"75 41 OFFCURVE",
"154 -12 OFFCURVE",
"240 -12 CURVE SMOOTH",
"340 -12 OFFCURVE",
"394 42 OFFCURVE",
"424 153 CURVE",
"392 156 LINE",
"417 49 OFFCURVE",
"481 -12 OFFCURVE",
"566 -12 CURVE SMOOTH"
);
},
{
closed = 1;
nodes = (
"504 -130 LINE",
"467 13 LINE",
"349 13 LINE",
"312 -130 LINE"
);
}
);
width = 760;
}
);
unicode = 0C1B;
},
{
glyphname = jatelu;
lastChange = "2020-01-21 19:05:42 +0000";
layers = (
{
layerId = "1282F4F2-4030-47E6-A043-DFF1281EB459";
paths = (
{
closed = 1;
nodes = (
"575 -12 OFFCURVE",
"626 34 OFFCURVE",
"626 130 CURVE SMOOTH",
"626 168 OFFCURVE",
"617 205 OFFCURVE",
"595 236 CURVE",
"572 222 LINE",
"592 195 OFFCURVE",
"599 163 OFFCURVE",
"599 130 CURVE SMOOTH",
"599 56 OFFCURVE",
"566 15 OFFCURVE",
"488 15 CURVE SMOOTH",
"407 15 OFFCURVE",
"359 63 OFFCURVE",
"346 172 CURVE",
"322 172 LINE",
"311 81 OFFCURVE",
"272 15 OFFCURVE",
"177 15 CURVE SMOOTH",
"113 15 OFFCURVE",
"72 45 OFFCURVE",
"72 110 CURVE SMOOTH",
"72 167 OFFCURVE",
"105 200 OFFCURVE",
"183 236 CURVE SMOOTH",
"261 272 OFFCURVE",
"304 304 OFFCURVE",
"304 378 CURVE SMOOTH",
"304 433 OFFCURVE",
"269 493 OFFCURVE",
"178 493 CURVE SMOOTH",
"83 493 OFFCURVE",
"40 435 OFFCURVE",
"40 373 CURVE SMOOTH",
"40 340 OFFCURVE",
"46 317 OFFCURVE",
"52 298 CURVE",
"78 302 LINE",
"71 321 OFFCURVE",
"67 344 OFFCURVE",
"67 373 CURVE SMOOTH",
"67 427 OFFCURVE",
"98 468 OFFCURVE",
"178 468 CURVE SMOOTH",
"256 468 OFFCURVE",
"278 422 OFFCURVE",
"278 378 CURVE SMOOTH",
"278 321 OFFCURVE",
"249 294 OFFCURVE",
"171 258 CURVE SMOOTH",
"89 220 OFFCURVE",
"45 182 OFFCURVE",
"45 110 CURVE SMOOTH",
"45 39 OFFCURVE",
"88 -12 OFFCURVE",
"177 -12 CURVE SMOOTH",
"256 -12 OFFCURVE",
"321 29 OFFCURVE",
"338 143 CURVE",
"329 143 LINE",
"344 40 OFFCURVE",
"397 -12 OFFCURVE",
"488 -12 CURVE SMOOTH"
);
},
{
closed = 1;
nodes = (
"275 420 LINE",
"314 337 OFFCURVE",
"376 275 OFFCURVE",
"466 275 CURVE SMOOTH",
"547 275 OFFCURVE",
"578 321 OFFCURVE",
"578 376 CURVE SMOOTH",
"578 448 OFFCURVE",
"530 491 OFFCURVE",
"414 493 CURVE",
"414 468 LINE",
"512 468 OFFCURVE",
"552 435 OFFCURVE",
"552 377 CURVE SMOOTH",
"552 333 OFFCURVE",
"529 301 OFFCURVE",
"466 301 CURVE SMOOTH",
"385 301 OFFCURVE",
"329 358 OFFCURVE",
"289 433 CURVE"
);
}
);
width = 666;
},
{
layerId = UUID0;
paths = (
{
closed = 1;
nodes = (
"608 -12 OFFCURVE",
"654 44 OFFCURVE",
"654 151 CURVE SMOOTH",
"654 191 OFFCURVE",
"644 226 OFFCURVE",
"630 253 CURVE",
"586 235 LINE",
"601 210 OFFCURVE",
"606 194 OFFCURVE",
"606 168 CURVE SMOOTH",
"606 129 OFFCURVE",
"576 98 OFFCURVE",
"508 98 CURVE SMOOTH",
"428 98 OFFCURVE",
"382 134 OFFCURVE",
"363 204 CURVE",
"332 204 LINE",
"312 130 OFFCURVE",
"266 98 OFFCURVE",
"193 98 CURVE SMOOTH",
"135 98 OFFCURVE",
"110 117 OFFCURVE",
"110 154 CURVE SMOOTH",
"110 182 OFFCURVE",
"125 207 OFFCURVE",
"206 242 CURVE SMOOTH",
"296 281 OFFCURVE",
"328 322 OFFCURVE",
"328 383 CURVE SMOOTH",
"328 445 OFFCURVE",
"286 500 OFFCURVE",
"190 500 CURVE SMOOTH",
"95 500 OFFCURVE",
"33 449 OFFCURVE",
"33 370 CURVE SMOOTH",
"33 345 OFFCURVE",
"36 322 OFFCURVE",
"43 296 CURVE",
"125 305 LINE",
"114 330 OFFCURVE",
"110 353 OFFCURVE",
"110 376 CURVE SMOOTH",
"110 426 OFFCURVE",
"139 455 OFFCURVE",
"192 455 CURVE SMOOTH",
"239 455 OFFCURVE",
"274 431 OFFCURVE",
"274 381 CURVE SMOOTH",
"274 338 OFFCURVE",
"248 309 OFFCURVE",
"178 281 CURVE SMOOTH",
"89 245 OFFCURVE",
"42 199 OFFCURVE",
"42 127 CURVE SMOOTH",
"42 35 OFFCURVE",
"102 -12 OFFCURVE",
"184 -12 CURVE SMOOTH",
"269 -12 OFFCURVE",
"328 28 OFFCURVE",
"365 147 CURVE",
"329 148 LINE",
"369 28 OFFCURVE",
"435 -12 OFFCURVE",
"516 -12 CURVE SMOOTH"
);
},
{
closed = 1;
nodes = (
"304 397 LINE",
"336 315 OFFCURVE",
"399 255 OFFCURVE",
"488 255 CURVE SMOOTH",
"572 255 OFFCURVE",
"611 301 OFFCURVE",
"611 371 CURVE SMOOTH",
"611 444 OFFCURVE",
"560 502 OFFCURVE",
"444 507 CURVE",
"443 440 LINE",
"534 440 OFFCURVE",
"567 421 OFFCURVE",
"567 383 CURVE SMOOTH",
"567 350 OFFCURVE",
"543 331 OFFCURVE",
"484 331 CURVE SMOOTH",
"415 331 OFFCURVE",
"354 370 OFFCURVE",
"313 441 CURVE"
);
}
);
width = 686;
},
{
layerId = "A2C49E55-5C54-436C-AF3A-B2B174879BD8";
paths = (
{
closed = 1;
nodes = (
"643 -12 OFFCURVE",
"708 41 OFFCURVE",
"708 189 CURVE SMOOTH",
"708 219 OFFCURVE",
"702 266 OFFCURVE",
"692 292 CURVE",
"624 280 LINE",
"626 274 OFFCURVE",
"628 267 OFFCURVE",
"628 258 CURVE SMOOTH",
"628 224 OFFCURVE",
"600 204 OFFCURVE",
"539 204 CURVE SMOOTH",
"469 204 OFFCURVE",
"428 225 OFFCURVE",
"408 270 CURVE",
"354 270 LINE",
"330 228 OFFCURVE",
"296 204 OFFCURVE",
"222 204 CURVE SMOOTH",
"170 204 OFFCURVE",
"152 215 OFFCURVE",
"152 234 CURVE SMOOTH",
"152 255 OFFCURVE",
"173 264 OFFCURVE",
"248 286 CURVE SMOOTH",
"359 319 OFFCURVE",
"378 359 OFFCURVE",
"378 404 CURVE SMOOTH",
"378 462 OFFCURVE",
"340 511 OFFCURVE",
"221 511 CURVE SMOOTH",
"102 511 OFFCURVE",
"27 468 OFFCURVE",
"27 382 CURVE SMOOTH",
"27 360 OFFCURVE",
"31 340 OFFCURVE",
"37 318 CURVE",
"182 339 LINE",
"173 360 OFFCURVE",
"169 375 OFFCURVE",
"169 395 CURVE SMOOTH",
"169 427 OFFCURVE",
"185 454 OFFCURVE",
"237 454 CURVE SMOOTH",
"280 454 OFFCURVE",
"300 440 OFFCURVE",
"300 407 CURVE SMOOTH",
"300 374 OFFCURVE",
"281 356 OFFCURVE",
"193 331 CURVE SMOOTH",
"89 301 OFFCURVE",
"38 256 OFFCURVE",
"38 155 CURVE SMOOTH",
"38 35 OFFCURVE",
"125 -12 OFFCURVE",
"196 -12 CURVE SMOOTH",
"307 -12 OFFCURVE",
"366 46 OFFCURVE",
"397 149 CURVE",
"362 152 LINE",
"398 30 OFFCURVE",
"469 -12 OFFCURVE",
"544 -12 CURVE SMOOTH"
);
},
{
closed = 1;
nodes = (
"344 420 LINE",
"388 324 OFFCURVE",
"451 267 OFFCURVE",
"533 267 CURVE SMOOTH",
"610 267 OFFCURVE",
"648 318 OFFCURVE",
"648 388 CURVE SMOOTH",
"648 452 OFFCURVE",
"614 519 OFFCURVE",
"476 525 CURVE",
"475 440 LINE",
"559 439 OFFCURVE",
"582 429 OFFCURVE",
"582 410 CURVE SMOOTH",
"582 391 OFFCURVE",
"566 385 OFFCURVE",
"528 385 CURVE SMOOTH",
"460 385 OFFCURVE",
"404 417 OFFCURVE",
"351 473 CURVE"
);
}
);
width = 735;
}
);
leftMetricsKey = otelu;
rightMetricsKey = "=otelu+1";
unicode = 0C1C;
},
{
glyphname = nyatelu;
lastChange = "2020-01-21 19:05:42 +0000";
layers = (
{
layerId = "1282F4F2-4030-47E6-A043-DFF1281EB459";
paths = (
{
closed = 1;
nodes = (
"378 -12 OFFCURVE",
"458 21 OFFCURVE",
"512 79 CURVE",
"519 87 LINE",
"563 138 OFFCURVE",
"587 208 OFFCURVE",
"587 292 CURVE SMOOTH",
"587 445 OFFCURVE",
"513 493 OFFCURVE",
"440 493 CURVE SMOOTH",
"367 493 OFFCURVE",
"314 445 OFFCURVE",
"293 358 CURVE",
"303 361 LINE",
"291 427 OFFCURVE",
"244 493 OFFCURVE",
"156 493 CURVE SMOOTH",
"88 493 OFFCURVE",
"36 450 OFFCURVE",
"36 381 CURVE SMOOTH",
"36 352 OFFCURVE",
"43 322 OFFCURVE",
"54 296 CURVE",
"79 304 LINE",
"70 324 OFFCURVE",
"63 349 OFFCURVE",
"63 381 CURVE SMOOTH",
"63 430 OFFCURVE",
"96 468 OFFCURVE",
"157 468 CURVE SMOOTH",
"229 468 OFFCURVE",
"273 409 OFFCURVE",
"286 344 CURVE",
"310 344 LINE",
"327 407 OFFCURVE",
"366 467 OFFCURVE",
"438 467 CURVE SMOOTH",
"493 467 OFFCURVE",
"560 436 OFFCURVE",
"560 293 CURVE SMOOTH",
"560 119 OFFCURVE",
"455 15 OFFCURVE",
"280 15 CURVE SMOOTH",
"155 15 OFFCURVE",
"123 68 OFFCURVE",
"123 123 CURVE SMOOTH",
"123 188 OFFCURVE",
"164 224 OFFCURVE",
"256 224 CURVE SMOOTH",
"418 224 OFFCURVE",
"517 119 OFFCURVE",
"517 0 CURVE SMOOTH",
"517 -12 OFFCURVE",
"516 -26 OFFCURVE",
"513 -42 CURVE",
"539 -45 LINE",
"542 -28 OFFCURVE",
"543 -15 OFFCURVE",
"543 -1 CURVE SMOOTH",
"543 137 OFFCURVE",
"421 249 OFFCURVE",
"254 249 CURVE SMOOTH",
"151 249 OFFCURVE",
"96 202 OFFCURVE",
"96 124 CURVE SMOOTH",
"96 42 OFFCURVE",
"154 -12 OFFCURVE",
"279 -12 CURVE SMOOTH"
);
},
{
closed = 1;
nodes = (
"847 313 LINE",
"847 338 LINE",
"564 338 LINE",
"564 313 LINE"
);
},
{
closed = 1;
nodes = (
"690 493 LINE",
"694 336 LINE",
"718 336 LINE",
"722 493 LINE"
);
}
);
width = 865;
},
{
layerId = UUID0;
paths = (
{
closed = 1;
nodes = (
"391 -12 OFFCURVE",
"464 23 OFFCURVE",
"512 77 CURVE",
"530 90 LINE",
"574 145 OFFCURVE",
"591 219 OFFCURVE",
"591 290 CURVE SMOOTH",
"591 431 OFFCURVE",
"539 500 OFFCURVE",
"443 500 CURVE SMOOTH",
"374 500 OFFCURVE",
"323 463 OFFCURVE",
"288 379 CURVE",
"312 390 LINE",
"289 450 OFFCURVE",
"236 500 OFFCURVE",
"159 500 CURVE SMOOTH",
"79 500 OFFCURVE",
"28 450 OFFCURVE",
"28 374 CURVE SMOOTH",
"28 346 OFFCURVE",
"36 315 OFFCURVE",
"51 284 CURVE",
"95 300 LINE",
"86 315 OFFCURVE",
"79 332 OFFCURVE",
"79 351 CURVE SMOOTH",
"79 391 OFFCURVE",
"111 416 OFFCURVE",
"167 416 CURVE SMOOTH",
"234 416 OFFCURVE",
"274 370 OFFCURVE",
"281 332 CURVE",
"317 332 LINE",
"335 379 OFFCURVE",
"374 416 OFFCURVE",
"439 416 CURVE SMOOTH",
"503 416 OFFCURVE",
"547 375 OFFCURVE",
"547 293 CURVE SMOOTH",
"547 173 OFFCURVE",
"464 98 OFFCURVE",
"304 98 CURVE SMOOTH",
"176 98 OFFCURVE",
"147 128 OFFCURVE",
"147 171 CURVE SMOOTH",
"147 216 OFFCURVE",
"189 236 OFFCURVE",
"256 236 CURVE SMOOTH",
"383 236 OFFCURVE",
"503 153 OFFCURVE",
"503 5 CURVE SMOOTH",
"503 -8 OFFCURVE",
"502 -25 OFFCURVE",
"499 -39 CURVE",
"563 -46 LINE",
"565 -36 OFFCURVE",
"566 -12 OFFCURVE",
"566 -2 CURVE SMOOTH",
"566 164 OFFCURVE",
"432 279 OFFCURVE",
"260 279 CURVE SMOOTH",
"133 279 OFFCURVE",
"81 223 OFFCURVE",
"81 145 CURVE SMOOTH",
"81 51 OFFCURVE",
"145 -12 OFFCURVE",
"287 -12 CURVE SMOOTH"
);
},
{
closed = 1;
nodes = (
"859 303 LINE",
"859 348 LINE",
"577 348 LINE",
"580 303 LINE"
);
},
{
closed = 1;
nodes = (
"668 497 LINE",
"694 339 LINE",
"738 339 LINE",
"763 497 LINE"
);
}
);
width = 877;
},
{
layerId = "A2C49E55-5C54-436C-AF3A-B2B174879BD8";
paths = (
{
closed = 1;
nodes = (
"422 -12 OFFCURVE",
"496 21 OFFCURVE",
"544 78 CURVE",
"570 97 LINE",
"618 158 OFFCURVE",
"640 236 OFFCURVE",
"640 315 CURVE SMOOTH",
"640 452 OFFCURVE",
"572 511 OFFCURVE",
"481 511 CURVE SMOOTH",
"407 511 OFFCURVE",
"353 473 OFFCURVE",
"315 410 CURVE",
"341 411 LINE",
"303 469 OFFCURVE",
"258 511 OFFCURVE",
"172 511 CURVE SMOOTH",
"67 511 OFFCURVE",
"22 455 OFFCURVE",
"22 381 CURVE SMOOTH",
"22 345 OFFCURVE",
"31 317 OFFCURVE",
"41 293 CURVE",
"107 311 LINE",
"102 321 OFFCURVE",
"98 332 OFFCURVE",
"98 344 CURVE SMOOTH",
"98 373 OFFCURVE",
"120 391 OFFCURVE",
"178 391 CURVE SMOOTH",
"246 391 OFFCURVE",
"275 364 OFFCURVE",
"296 340 CURVE",
"354 340 LINE",
"385 369 OFFCURVE",
"422 389 OFFCURVE",
"479 389 CURVE SMOOTH",
"534 389 OFFCURVE",
"573 369 OFFCURVE",
"573 319 CURVE SMOOTH",
"573 239 OFFCURVE",
"495 194 OFFCURVE",
"322 194 CURVE SMOOTH",
"217 194 OFFCURVE",
"197 214 OFFCURVE",
"197 235 CURVE SMOOTH",
"197 258 OFFCURVE",
"222 268 OFFCURVE",
"271 268 CURVE SMOOTH",
"436 268 OFFCURVE",
"521 148 OFFCURVE",
"521 5 CURVE SMOOTH",
"521 -8 OFFCURVE",
"520 -25 OFFCURVE",
"517 -39 CURVE",
"615 -50 LINE",
"617 -40 OFFCURVE",
"618 -12 OFFCURVE",
"618 -2 CURVE SMOOTH",
"618 159 OFFCURVE",
"483 325 OFFCURVE",
"277 325 CURVE SMOOTH",
"155 325 OFFCURVE",
"83 271 OFFCURVE",
"83 169 CURVE SMOOTH",
"83 51 OFFCURVE",
"165 -12 OFFCURVE",
"326 -12 CURVE SMOOTH"
);
},
{
closed = 1;
nodes = (
"908 307 LINE",
"908 365 LINE",
"619 365 LINE",
"609 307 LINE"
);
},
{
closed = 1;
nodes = (
"681 507 LINE",
"718 355 LINE",
"793 355 LINE",
"829 507 LINE"
);
}
);
width = 925;
}
);
leftMetricsKey = itelu;
unicode = 0C1E;
},
{
glyphname = ttatelu;
lastChange = "2020-01-21 19:05:42 +0000";
layers = (
{
layerId = "1282F4F2-4030-47E6-A043-DFF1281EB459";
paths = (
{
closed = 1;
nodes = (
"356 452 OFFCURVE",
"310 492 OFFCURVE",
"243 492 CURVE SMOOTH",
"149 492 OFFCURVE",
"47 404 OFFCURVE",
"47 227 CURVE SMOOTH",
"47 65 OFFCURVE",
"107 -12 OFFCURVE",
"211 -12 CURVE SMOOTH",
"281 -12 OFFCURVE",
"346 28 OFFCURVE",
"365 143 CURVE",
"356 143 LINE",
"371 36 OFFCURVE",
"424 -12 OFFCURVE",
"505 -12 CURVE SMOOTH",
"592 -12 OFFCURVE",
"665 38 OFFCURVE",
"665 197 CURVE SMOOTH",
"665 363 OFFCURVE",
"561 484 OFFCURVE",
"421 496 CURVE",
"421 471 LINE",
"546 458 OFFCURVE",
"638 351 OFFCURVE",
"638 197 CURVE SMOOTH",
"638 51 OFFCURVE",
"575 15 OFFCURVE",
"509 15 CURVE SMOOTH",
"433 15 OFFCURVE",
"386 60 OFFCURVE",
"373 172 CURVE",
"349 172 LINE",
"336 81 OFFCURVE",
"298 15 OFFCURVE",
"210 15 CURVE SMOOTH",
"107 15 OFFCURVE",
"73 108 OFFCURVE",
"73 227 CURVE SMOOTH",
"73 326 OFFCURVE",
"107 417 OFFCURVE",
"189 463 CURVE",
"181 462 LINE",
"159 441 OFFCURVE",
"144 420 OFFCURVE",
"144 381 CURVE SMOOTH",
"144 309 OFFCURVE",
"190 274 OFFCURVE",
"250 274 CURVE SMOOTH",
"316 274 OFFCURVE",
"356 316 OFFCURVE",
"356 383 CURVE SMOOTH"
);
},
{
closed = 1;
nodes = (
"297 468 OFFCURVE",
"329 434 OFFCURVE",
"329 383 CURVE SMOOTH",
"329 333 OFFCURVE",
"302 299 OFFCURVE",
"251 299 CURVE SMOOTH",
"205 299 OFFCURVE",
"169 323 OFFCURVE",
"169 383 CURVE SMOOTH",
"169 433 OFFCURVE",
"200 468 OFFCURVE",
"247 468 CURVE SMOOTH"
);
},
{
closed = 1;
nodes = (
"227 636 LINE",
"231 479 LINE",
"255 479 LINE",
"259 636 LINE"
);
}
);
width = 707;
},
{
layerId = UUID0;
paths = (
{
closed = 1;
nodes = (
"367 446 OFFCURVE",
"326 498 OFFCURVE",
"237 498 CURVE SMOOTH",
"156 498 OFFCURVE",
"39 429 OFFCURVE",
"39 231 CURVE SMOOTH",
"39 71 OFFCURVE",
"109 -12 OFFCURVE",
"214 -12 CURVE SMOOTH",
"313 -12 OFFCURVE",
"361 52 OFFCURVE",
"388 147 CURVE",
"352 148 LINE",
"390 25 OFFCURVE",
"454 -12 OFFCURVE",
"523 -12 CURVE SMOOTH",
"631 -12 OFFCURVE",
"681 82 OFFCURVE",
"681 215 CURVE SMOOTH",
"681 375 OFFCURVE",
"588 489 OFFCURVE",
"432 504 CURVE",
"426 423 LINE",
"561 410 OFFCURVE",
"636 339 OFFCURVE",
"636 229 CURVE SMOOTH",
"636 144 OFFCURVE",
"598 98 OFFCURVE",
"516 98 CURVE SMOOTH",
"452 98 OFFCURVE",
"406 134 OFFCURVE",
"386 205 CURVE",
"355 205 LINE",
"333 130 OFFCURVE",
"290 98 OFFCURVE",
"220 98 CURVE SMOOTH",
"153 98 OFFCURVE",
"86 142 OFFCURVE",
"86 255 CURVE SMOOTH",
"86 318 OFFCURVE",
"102 367 OFFCURVE",
"142 411 CURVE",
"138 415 LINE",
"132 402 OFFCURVE",
"130 389 OFFCURVE",
"130 379 CURVE SMOOTH",
"130 302 OFFCURVE",
"178 261 OFFCURVE",
"247 261 CURVE SMOOTH",
"322 261 OFFCURVE",
"367 311 OFFCURVE",
"367 381 CURVE SMOOTH"
);
},
{
closed = 1;
nodes = (
"281 438 OFFCURVE",
"308 412 OFFCURVE",
"308 371 CURVE SMOOTH",
"308 329 OFFCURVE",
"281 304 OFFCURVE",
"247 304 CURVE SMOOTH",
"213 304 OFFCURVE",
"182 322 OFFCURVE",
"182 371 CURVE SMOOTH",
"182 417 OFFCURVE",
"212 438 OFFCURVE",
"243 438 CURVE SMOOTH"
);
},
{
closed = 1;
nodes = (
"186 641 LINE",
"216 485 LINE",
"261 485 LINE",
"291 641 LINE"
);
}
);
width = 716;
},
{
layerId = "A2C49E55-5C54-436C-AF3A-B2B174879BD8";
paths = (
{
closed = 1;
nodes = (
"386 459 OFFCURVE",
"339 509 OFFCURVE",
"247 509 CURVE SMOOTH",
"140 509 OFFCURVE",
"33 425 OFFCURVE",
"33 239 CURVE SMOOTH",
"33 68 OFFCURVE",
"106 -12 OFFCURVE",
"225 -12 CURVE SMOOTH",
"333 -12 OFFCURVE",
"392 52 OFFCURVE",
"421 149 CURVE",
"389 156 LINE",
"420 45 OFFCURVE",
"479 -12 OFFCURVE",
"569 -12 CURVE SMOOTH",
"687 -12 OFFCURVE",
"738 86 OFFCURVE",
"738 219 CURVE SMOOTH",
"738 393 OFFCURVE",
"637 502 OFFCURVE",
"479 515 CURVE",
"473 386 LINE",
"603 377 OFFCURVE",
"668 346 OFFCURVE",
"668 279 CURVE SMOOTH",
"668 229 OFFCURVE",
"633 204 OFFCURVE",
"563 204 CURVE SMOOTH",
"505 204 OFFCURVE",
"459 222 OFFCURVE",
"432 279 CURVE",
"378 279 LINE",
"356 232 OFFCURVE",
"316 204 OFFCURVE",
"237 204 CURVE SMOOTH",
"171 204 OFFCURVE",
"106 229 OFFCURVE",
"106 312 CURVE SMOOTH",
"106 361 OFFCURVE",
"132 406 OFFCURVE",
"182 436 CURVE",
"150 440 LINE",
"139 419 OFFCURVE",
"129 397 OFFCURVE",
"129 371 CURVE SMOOTH",
"129 304 OFFCURVE",
"174 261 OFFCURVE",
"252 261 CURVE SMOOTH",
"327 261 OFFCURVE",
"386 304 OFFCURVE",
"386 387 CURVE SMOOTH"
);
},
{
closed = 1;
nodes = (
"284 430 OFFCURVE",
"299 405 OFFCURVE",
"299 376 CURVE SMOOTH",
"299 329 OFFCURVE",
"273 319 OFFCURVE",
"246 319 CURVE SMOOTH",
"216 319 OFFCURVE",
"193 337 OFFCURVE",
"193 376 CURVE SMOOTH",
"193 409 OFFCURVE",
"214 430 OFFCURVE",
"246 430 CURVE SMOOTH"
);
},
{
closed = 1;
nodes = (
"163 644 LINE",
"200 483 LINE",
"285 483 LINE",
"321 644 LINE"
);
}
);
width = 767;
}
);
rightMetricsKey = uvowelsigntelu;
unicode = 0C1F;
},
{
glyphname = nnatelu;
lastChange = "2020-01-21 19:05:42 +0000";
layers = (
{
layerId = "1282F4F2-4030-47E6-A043-DFF1281EB459";
paths = (
{
closed = 1;
nodes = (
"452 493 OFFCURVE",
"400 444 OFFCURVE",
"367 368 CURVE",
"374 370 LINE",
"346 425 OFFCURVE",
"288 493 OFFCURVE",
"191 493 CURVE SMOOTH",
"105 493 OFFCURVE",
"42 445 OFFCURVE",
"42 366 CURVE SMOOTH",
"42 289 OFFCURVE",
"98 245 OFFCURVE",
"186 239 CURVE",
"191 247 LINE",
"81 243 OFFCURVE",
"39 180 OFFCURVE",
"39 114 CURVE SMOOTH",
"39 44 OFFCURVE",
"83 -12 OFFCURVE",
"177 -12 CURVE SMOOTH",
"268 -12 OFFCURVE",
"327 50 OFFCURVE",
"352 118 CURVE",
"327 123 LINE",
"298 55 OFFCURVE",
"251 15 OFFCURVE",
"177 15 CURVE SMOOTH",
"95 15 OFFCURVE",
"66 60 OFFCURVE",
"66 114 CURVE SMOOTH",
"66 201 OFFCURVE",
"133 232 OFFCURVE",
"226 232 CURVE SMOOTH",
"249 232 LINE",
"249 256 LINE",
"225 256 LINE SMOOTH",
"130 256 OFFCURVE",
"69 289 OFFCURVE",
"69 365 CURVE SMOOTH",
"69 432 OFFCURVE",
"118 468 OFFCURVE",
"192 468 CURVE SMOOTH",
"279 468 OFFCURVE",
"325 412 OFFCURVE",
"360 353 CURVE",
"384 353 LINE",
"416 421 OFFCURVE",
"459 468 OFFCURVE",
"534 468 CURVE SMOOTH",
"647 468 OFFCURVE",
"698 368 OFFCURVE",
"698 231 CURVE SMOOTH",
"698 111 OFFCURVE",
"650 38 OFFCURVE",
"578 11 CURVE",
"583 12 LINE",
"615 33 OFFCURVE",
"630 65 OFFCURVE",
"630 108 CURVE SMOOTH",
"630 184 OFFCURVE",
"588 225 OFFCURVE",
"524 225 CURVE SMOOTH",
"458 225 OFFCURVE",
"410 181 OFFCURVE",
"410 106 CURVE SMOOTH",
"410 33 OFFCURVE",
"450 -12 OFFCURVE",
"537 -12 CURVE SMOOTH",
"646 -12 OFFCURVE",
"724 76 OFFCURVE",
"724 231 CURVE SMOOTH",
"724 400 OFFCURVE",
"652 493 OFFCURVE",
"535 493 CURVE SMOOTH"
);
},
{
closed = 1;
nodes = (
"466 14 OFFCURVE",
"436 47 OFFCURVE",
"436 106 CURVE SMOOTH",
"436 165 OFFCURVE",
"466 200 OFFCURVE",
"523 200 CURVE SMOOTH",
"569 200 OFFCURVE",
"604 176 OFFCURVE",
"604 108 CURVE SMOOTH",
"604 49 OFFCURVE",
"576 14 OFFCURVE",
"520 14 CURVE SMOOTH"
);
}
);
width = 771;
},
{
layerId = UUID0;
paths = (
{
closed = 1;
nodes = (
"462 500 OFFCURVE",
"408 446 OFFCURVE",
"375 377 CURVE",
"386 376 LINE",
"354 439 OFFCURVE",
"293 501 OFFCURVE",
"196 501 CURVE SMOOTH",
"96 501 OFFCURVE",
"37 450 OFFCURVE",
"37 380 CURVE SMOOTH",
"37 299 OFFCURVE",
"97 264 OFFCURVE",
"159 253 CURVE",
"161 268 LINE",
"81 255 OFFCURVE",
"30 206 OFFCURVE",
"30 129 CURVE SMOOTH",
"30 43 OFFCURVE",
"82 -12 OFFCURVE",
"171 -12 CURVE SMOOTH",
"294 -12 OFFCURVE",
"338 70 OFFCURVE",
"362 143 CURVE",
"322 155 LINE",
"292 112 OFFCURVE",
"245 96 OFFCURVE",
"180 96 CURVE SMOOTH",
"127 96 OFFCURVE",
"93 117 OFFCURVE",
"93 163 CURVE SMOOTH",
"93 206 OFFCURVE",
"129 235 OFFCURVE",
"214 235 CURVE SMOOTH",
"257 235 LINE",
"257 282 LINE",
"220 282 LINE SMOOTH",
"139 282 OFFCURVE",
"99 310 OFFCURVE",
"99 361 CURVE SMOOTH",
"99 415 OFFCURVE",
"143 435 OFFCURVE",
"202 435 CURVE SMOOTH",
"281 435 OFFCURVE",
"337 383 OFFCURVE",
"363 329 CURVE",
"398 329 LINE",
"431 388 OFFCURVE",
"474 425 OFFCURVE",
"546 425 CURVE SMOOTH",
"631 425 OFFCURVE",
"702 364 OFFCURVE",
"702 221 CURVE SMOOTH",
"702 134 OFFCURVE",
"669 85 OFFCURVE",
"623 56 CURVE",
"640 54 LINE",
"662 87 OFFCURVE",
"666 111 OFFCURVE",
"666 138 CURVE SMOOTH",
"666 208 OFFCURVE",
"627 255 OFFCURVE",
"546 255 CURVE SMOOTH",
"469 255 OFFCURVE",
"418 201 OFFCURVE",
"418 125 CURVE SMOOTH",
"418 45 OFFCURVE",
"472 -12 OFFCURVE",
"561 -12 CURVE SMOOTH",
"682 -12 OFFCURVE",
"747 86 OFFCURVE",
"747 235 CURVE SMOOTH",
"747 422 OFFCURVE",
"663 500 OFFCURVE",
"558 500 CURVE SMOOTH"
);
},
{
closed = 1;
nodes = (
"505 74 OFFCURVE",
"478 97 OFFCURVE",
"478 143 CURVE SMOOTH",
"478 183 OFFCURVE",
"505 212 OFFCURVE",
"548 212 CURVE SMOOTH",
"586 212 OFFCURVE",
"613 187 OFFCURVE",
"613 143 CURVE SMOOTH",
"613 95 OFFCURVE",
"584 74 OFFCURVE",
"547 74 CURVE SMOOTH"
);
}
);
width = 786;
},
{
layerId = "A2C49E55-5C54-436C-AF3A-B2B174879BD8";
paths = (
{
closed = 1;
nodes = (
"487 511 OFFCURVE",
"432 450 OFFCURVE",
"400 391 CURVE",
"407 391 LINE",
"378 446 OFFCURVE",
"312 511 OFFCURVE",
"198 511 CURVE SMOOTH",
"125 511 OFFCURVE",
"34 485 OFFCURVE",
"34 391 CURVE SMOOTH",
"34 329 OFFCURVE",
"83 281 OFFCURVE",
"180 277 CURVE",
"180 314 LINE",
"94 299 OFFCURVE",
"26 250 OFFCURVE",
"26 150 CURVE SMOOTH",
"26 39 OFFCURVE",
"97 -12 OFFCURVE",
"184 -12 CURVE SMOOTH",
"318 -12 OFFCURVE",
"371 100 OFFCURVE",
"394 208 CURVE",
"340 235 LINE",
"306 207 OFFCURVE",
"267 197 OFFCURVE",
"212 197 CURVE SMOOTH",
"160 197 OFFCURVE",
"138 211 OFFCURVE",
"138 233 CURVE SMOOTH",
"138 252 OFFCURVE",
"154 264 OFFCURVE",
"188 264 CURVE SMOOTH",
"271 264 LINE",
"271 324 LINE",
"198 324 LINE SMOOTH",
"160 324 OFFCURVE",
"144 338 OFFCURVE",
"144 361 CURVE SMOOTH",
"144 390 OFFCURVE",
"172 407 OFFCURVE",
"222 407 CURVE SMOOTH",
"296 407 OFFCURVE",
"342 375 OFFCURVE",
"379 320 CURVE",
"423 320 LINE",
"463 371 OFFCURVE",
"509 400 OFFCURVE",
"575 400 CURVE SMOOTH",
"671 400 OFFCURVE",
"725 339 OFFCURVE",
"725 231 CURVE SMOOTH",
"725 178 OFFCURVE",
"718 151 OFFCURVE",
"677 93 CURVE",
"690 86 LINE",
"700 106 OFFCURVE",
"709 144 OFFCURVE",
"709 164 CURVE SMOOTH",
"709 255 OFFCURVE",
"665 303 OFFCURVE",
"575 303 CURVE SMOOTH",
"492 303 OFFCURVE",
"428 248 OFFCURVE",
"428 150 CURVE SMOOTH",
"428 47 OFFCURVE",
"486 -12 OFFCURVE",
"590 -12 CURVE SMOOTH",
"738 -12 OFFCURVE",
"795 108 OFFCURVE",
"795 250 CURVE SMOOTH",
"795 442 OFFCURVE",
"702 511 OFFCURVE",
"590 511 CURVE SMOOTH"
);
},
{
closed = 1;
nodes = (
"537 155 OFFCURVE",
"516 166 OFFCURVE",
"516 199 CURVE SMOOTH",
"516 231 OFFCURVE",
"542 248 OFFCURVE",
"576 248 CURVE SMOOTH",
"618 248 OFFCURVE",
"636 226 OFFCURVE",
"636 196 CURVE SMOOTH",
"636 165 OFFCURVE",
"614 155 OFFCURVE",
"575 155 CURVE SMOOTH"
);
}
);
width = 828;
}
);
unicode = 0C23;
},
{
glyphname = tatelu;
lastChange = "2020-01-21 19:05:42 +0000";
layers = (
{
components = (
{
alignment = -1;
name = hattelu;
transform = "{1, 0, 0, 1, 239, 0}";
}
);
layerId = "1282F4F2-4030-47E6-A043-DFF1281EB459";
paths = (
{
closed = 1;
nodes = (
"574 -12 OFFCURVE",
"661 88 OFFCURVE",
"661 233 CURVE SMOOTH",
"661 301 OFFCURVE",
"634 358 OFFCURVE",
"581 386 CURVE",
"567 387 LINE",
"552 396 OFFCURVE",
"533 401 OFFCURVE",
"510 401 CURVE SMOOTH",
"441 401 OFFCURVE",
"391 360 OFFCURVE",
"391 293 CURVE SMOOTH",
"391 228 OFFCURVE",
"430 191 OFFCURVE",
"495 191 CURVE SMOOTH",
"568 191 OFFCURVE",
"600 237 OFFCURVE",
"600 304 CURVE SMOOTH",
"600 322 OFFCURVE",
"598 342 OFFCURVE",
"589 360 CURVE",
"591 372 LINE",
"563 450 OFFCURVE",
"487 492 OFFCURVE",
"386 493 CURVE",
"359 470 LINE",
"373 470 LINE SMOOTH",
"464 470 OFFCURVE",
"535 440 OFFCURVE",
"563 381 CURVE",
"563 372 LINE",
"572 352 OFFCURVE",
"576 328 OFFCURVE",
"576 304 CURVE SMOOTH",
"576 247 OFFCURVE",
"548 216 OFFCURVE",
"496 216 CURVE SMOOTH",
"450 216 OFFCURVE",
"418 238 OFFCURVE",
"418 292 CURVE SMOOTH",
"418 352 OFFCURVE",
"462 376 OFFCURVE",
"513 376 CURVE SMOOTH",
"535 376 OFFCURVE",
"555 371 OFFCURVE",
"572 363 CURVE",
"585 357 LINE",
"618 334 OFFCURVE",
"635 290 OFFCURVE",
"635 234 CURVE SMOOTH",
"635 99 OFFCURVE",
"550 15 OFFCURVE",
"349 15 CURVE SMOOTH",
"155 15 OFFCURVE",
"67 93 OFFCURVE",
"67 227 CURVE SMOOTH",
"67 311 OFFCURVE",
"98 356 OFFCURVE",
"152 384 CURVE",
"152 386 LINE",
"119 362 OFFCURVE",
"106 331 OFFCURVE",
"106 298 CURVE SMOOTH",
"106 226 OFFCURVE",
"152 191 OFFCURVE",
"212 191 CURVE SMOOTH",
"274 191 OFFCURVE",
"318 232 OFFCURVE",
"318 300 CURVE SMOOTH",
"318 370 OFFCURVE",
"271 410 OFFCURVE",
"204 410 CURVE SMOOTH",
"101 410 OFFCURVE",
"40 331 OFFCURVE",
"40 227 CURVE SMOOTH",
"40 83 OFFCURVE",
"134 -12 OFFCURVE",
"349 -12 CURVE SMOOTH"
);
},
{
closed = 1;
nodes = (
"291 250 OFFCURVE",
"264 216 OFFCURVE",
"213 216 CURVE SMOOTH",
"167 216 OFFCURVE",
"131 239 OFFCURVE",
"131 299 CURVE SMOOTH",
"131 350 OFFCURVE",
"162 385 OFFCURVE",
"209 385 CURVE SMOOTH",
"259 385 OFFCURVE",
"291 351 OFFCURVE",
"291 300 CURVE SMOOTH"
);
}
);
width = 701;
},
{
components = (
{
alignment = -1;
name = hattelu;
transform = "{1, 0, 0, 1, 264, 0}";
}
);
layerId = UUID0;
paths = (
{
closed = 1;
nodes = (
"590 -13 OFFCURVE",
"689 75 OFFCURVE",
"689 234 CURVE SMOOTH",
"689 326 OFFCURVE",
"648 375 OFFCURVE",
"593 398 CURVE",
"577 397 LINE",
"562 403 OFFCURVE",
"547 406 OFFCURVE",
"523 406 CURVE SMOOTH",
"438 406 OFFCURVE",
"389 358 OFFCURVE",
"389 292 CURVE SMOOTH",
"389 225 OFFCURVE",
"430 184 OFFCURVE",
"508 184 CURVE SMOOTH",
"594 184 OFFCURVE",
"619 238 OFFCURVE",
"619 295 CURVE SMOOTH",
"619 321 OFFCURVE",
"616 338 OFFCURVE",
"607 358 CURVE",
"609 369 LINE",
"592 440 OFFCURVE",
"515 500 OFFCURVE",
"409 501 CURVE",
"372 455 LINE",
"386 455 LINE SMOOTH",
"493 455 OFFCURVE",
"533 425 OFFCURVE",
"557 385 CURVE",
"555 376 LINE",
"569 355 OFFCURVE",
"575 333 OFFCURVE",
"575 301 CURVE SMOOTH",
"575 250 OFFCURVE",
"550 229 OFFCURVE",
"512 229 CURVE SMOOTH",
"478 229 OFFCURVE",
"452 247 OFFCURVE",
"452 291 CURVE SMOOTH",
"452 344 OFFCURVE",
"494 364 OFFCURVE",
"533 364 CURVE SMOOTH",
"553 364 OFFCURVE",
"568 361 OFFCURVE",
"582 355 CURVE",
"595 348 LINE",
"626 330 OFFCURVE",
"644 298 OFFCURVE",
"644 252 CURVE SMOOTH",
"644 142 OFFCURVE",
"534 98 OFFCURVE",
"365 98 CURVE SMOOTH",
"173 98 OFFCURVE",
"79 149 OFFCURVE",
"79 256 CURVE SMOOTH",
"79 305 OFFCURVE",
"99 338 OFFCURVE",
"126 356 CURVE",
"122 368 LINE",
"109 345 OFFCURVE",
"102 326 OFFCURVE",
"102 300 CURVE SMOOTH",
"102 224 OFFCURVE",
"148 184 OFFCURVE",
"213 184 CURVE SMOOTH",
"290 184 OFFCURVE",
"334 234 OFFCURVE",
"334 304 CURVE SMOOTH",
"334 370 OFFCURVE",
"291 421 OFFCURVE",
"210 421 CURVE SMOOTH",
"100 421 OFFCURVE",
"34 340 OFFCURVE",
"34 234 CURVE SMOOTH",
"34 56 OFFCURVE",
"173 -13 OFFCURVE",
"360 -13 CURVE SMOOTH"
);
},
{
closed = 1;
nodes = (
"275 252 OFFCURVE",
"249 227 OFFCURVE",
"214 227 CURVE SMOOTH",
"180 227 OFFCURVE",
"149 245 OFFCURVE",
"149 294 CURVE SMOOTH",
"149 338 OFFCURVE",
"178 361 OFFCURVE",
"213 361 CURVE SMOOTH",
"250 361 OFFCURVE",
"275 336 OFFCURVE",
"275 294 CURVE SMOOTH"
);
}
);
width = 723;
},
{
components = (
{
alignment = -1;
name = hattelu;
transform = "{1, 0, 0, 1, 305, 0}";
}
);
layerId = "A2C49E55-5C54-436C-AF3A-B2B174879BD8";
paths = (
{
closed = 1;
nodes = (
"683 -13 OFFCURVE",
"742 124 OFFCURVE",
"742 255 CURVE SMOOTH",
"742 366 OFFCURVE",
"688 432 OFFCURVE",
"598 449 CURVE",
"572 450 LINE",
"566 451 OFFCURVE",
"560 451 OFFCURVE",
"553 451 CURVE SMOOTH",
"458 451 OFFCURVE",
"402 410 OFFCURVE",
"402 339 CURVE SMOOTH",
"402 269 OFFCURVE",
"447 233 OFFCURVE",
"533 233 CURVE SMOOTH",
"622 233 OFFCURVE",
"657 276 OFFCURVE",
"657 341 CURVE SMOOTH",
"657 361 OFFCURVE",
"653 383 OFFCURVE",
"644 405 CURVE",
"642 425 LINE",
"615 471 OFFCURVE",
"549 510 OFFCURVE",
"461 511 CURVE",
"394 454 LINE",
"442 454 LINE SMOOTH",
"509 454 OFFCURVE",
"535 444 OFFCURVE",
"557 428 CURVE",
"555 415 LINE",
"576 398 OFFCURVE",
"592 372 OFFCURVE",
"592 342 CURVE SMOOTH",
"592 312 OFFCURVE",
"579 291 OFFCURVE",
"542 291 CURVE SMOOTH",
"509 291 OFFCURVE",
"493 311 OFFCURVE",
"493 339 CURVE SMOOTH",
"493 377 OFFCURVE",
"521 398 OFFCURVE",
"558 398 CURVE SMOOTH",
"570 398 OFFCURVE",
"581 397 OFFCURVE",
"592 396 CURVE",
"617 392 LINE",
"651 380 OFFCURVE",
"670 349 OFFCURVE",
"670 312 CURVE SMOOTH",
"670 225 OFFCURVE",
"607 182 OFFCURVE",
"384 182 CURVE SMOOTH",
"157 182 OFFCURVE",
"102 234 OFFCURVE",
"102 312 CURVE SMOOTH",
"102 349 OFFCURVE",
"120 378 OFFCURVE",
"147 396 CURVE",
"135 407 LINE",
"122 381 OFFCURVE",
"115 364 OFFCURVE",
"115 343 CURVE SMOOTH",
"115 260 OFFCURVE",
"174 233 OFFCURVE",
"239 233 CURVE SMOOTH",
"316 233 OFFCURVE",
"369 276 OFFCURVE",
"369 354 CURVE SMOOTH",
"369 423 OFFCURVE",
"325 478 OFFCURVE",
"234 478 CURVE SMOOTH",
"90 478 OFFCURVE",
"30 368 OFFCURVE",
"30 266 CURVE SMOOTH",
"30 53 OFFCURVE",
"189 -13 OFFCURVE",
"389 -13 CURVE SMOOTH"
);
},
{
closed = 1;
nodes = (
"282 301 OFFCURVE",
"257 291 OFFCURVE",
"230 291 CURVE SMOOTH",
"199 291 OFFCURVE",
"177 309 OFFCURVE",
"177 345 CURVE SMOOTH",
"177 381 OFFCURVE",
"198 400 OFFCURVE",
"232 400 CURVE SMOOTH",
"267 400 OFFCURVE",
"282 378 OFFCURVE",
"282 345 CURVE SMOOTH"
);
}
);
width = 772;
}
);
unicode = 0C24;
},
{
glyphname = natelu;
lastChange = "2020-01-21 19:05:42 +0000";
layers = (
{
components = (
{
alignment = -1;
name = hattelu;
transform = "{1, 0, 0, 1, 123, 0}";
}
);
layerId = "1282F4F2-4030-47E6-A043-DFF1281EB459";
paths = (
{
closed = 1;
nodes = (
"531 -12 OFFCURVE",
"597 39 OFFCURVE",
"597 197 CURVE SMOOTH",
"597 359 OFFCURVE",
"495 495 OFFCURVE",
"267 495 CURVE",
"232 470 LINE",
"254 470 LINE SMOOTH",
"485 470 OFFCURVE",
"570 347 OFFCURVE",
"570 197 CURVE SMOOTH",
"570 51 OFFCURVE",
"513 15 OFFCURVE",
"447 15 CURVE SMOOTH",
"377 15 OFFCURVE",
"330 62 OFFCURVE",
"282 145 CURVE SMOOTH",
"226 241 OFFCURVE",
"193 263 OFFCURVE",
"145 263 CURVE SMOOTH",
"84 263 OFFCURVE",
"42 215 OFFCURVE",
"42 137 CURVE SMOOTH",
"42 91 OFFCURVE",
"51 47 OFFCURVE",
"72 -10 CURVE",
"100 -7 LINE",
"78 52 OFFCURVE",
"69 91 OFFCURVE",
"69 137 CURVE SMOOTH",
"69 200 OFFCURVE",
"96 238 OFFCURVE",
"144 238 CURVE SMOOTH",
"182 238 OFFCURVE",
"209 221 OFFCURVE",
"260 132 CURVE SMOOTH",
"314 37 OFFCURVE",
"370 -12 OFFCURVE",
"446 -12 CURVE SMOOTH"
);
}
);
width = 639;
},
{
components = (
{
name = hattelu;
transform = "{1, 0, 0, 1, 124, 0}";
}
);
layerId = UUID0;
paths = (
{
closed = 1;
nodes = (
"572 -12 OFFCURVE",
"621 82 OFFCURVE",
"621 211 CURVE SMOOTH",
"621 382 OFFCURVE",
"513 500 OFFCURVE",
"304 502 CURVE",
"242 455 LINE",
"275 455 LINE SMOOTH",
"481 455 OFFCURVE",
"574 357 OFFCURVE",
"574 225 CURVE SMOOTH",
"574 141 OFFCURVE",
"532 98 OFFCURVE",
"467 98 CURVE SMOOTH",
"404 98 OFFCURVE",
"374 126 OFFCURVE",
"321 193 CURVE SMOOTH",
"264 265 OFFCURVE",
"225 295 OFFCURVE",
"163 295 CURVE SMOOTH",
"81 295 OFFCURVE",
"33 235 OFFCURVE",
"33 133 CURVE SMOOTH",
"33 86 OFFCURVE",
"44 27 OFFCURVE",
"63 -11 CURVE",
"158 -6 LINE",
"124 51 OFFCURVE",
"105 105 OFFCURVE",
"105 164 CURVE SMOOTH",
"105 221 OFFCURVE",
"128 252 OFFCURVE",
"163 252 CURVE SMOOTH",
"197 252 OFFCURVE",
"217 231 OFFCURVE",
"268 144 CURVE SMOOTH",
"336 27 OFFCURVE",
"386 -12 OFFCURVE",
"464 -12 CURVE SMOOTH"
);
}
);
width = 658;
},
{
components = (
{
alignment = -1;
name = hattelu;
transform = "{1, 0, 0, 1, 138, 0}";
}
);
layerId = "A2C49E55-5C54-436C-AF3A-B2B174879BD8";
paths = (
{
closed = 1;
nodes = (
"607 -12 OFFCURVE",
"658 88 OFFCURVE",
"658 224 CURVE SMOOTH",
"658 420 OFFCURVE",
"515 514 OFFCURVE",
"364 515 CURVE",
"243 454 LINE",
"291 454 LINE SMOOTH",
"506 454 OFFCURVE",
"577 363 OFFCURVE",
"577 279 CURVE SMOOTH",
"577 231 OFFCURVE",
"548 204 OFFCURVE",
"495 204 CURVE SMOOTH",
"438 204 OFFCURVE",
"394 228 OFFCURVE",
"338 268 CURVE SMOOTH",
"296 298 OFFCURVE",
"253 326 OFFCURVE",
"193 326 CURVE SMOOTH",
"91 326 OFFCURVE",
"27 259 OFFCURVE",
"27 154 CURVE SMOOTH",
"27 100 OFFCURVE",
"36 54 OFFCURVE",
"59 -9 CURVE",
"220 -3 LINE",
"176 80 OFFCURVE",
"153 137 OFFCURVE",
"153 207 CURVE SMOOTH",
"153 241 OFFCURVE",
"165 268 OFFCURVE",
"189 268 CURVE SMOOTH",
"215 268 OFFCURVE",
"231 246 OFFCURVE",
"278 158 CURVE SMOOTH",
"346 31 OFFCURVE",
"392 -12 OFFCURVE",
"493 -12 CURVE SMOOTH"
);
}
);
width = 687;
}
);
widthMetricsKey = saalttelu;
unicode = 0C28;
},
{
glyphname = batelu;
lastChange = "2020-01-21 19:05:42 +0000";
layers = (
{
layerId = "1282F4F2-4030-47E6-A043-DFF1281EB459";
paths = (
{
closed = 1;
nodes = (
"565 -12 OFFCURVE",
"638 38 OFFCURVE",
"638 197 CURVE SMOOTH",
"638 363 OFFCURVE",
"534 484 OFFCURVE",
"394 496 CURVE",
"394 471 LINE",
"519 458 OFFCURVE",
"611 351 OFFCURVE",
"611 197 CURVE SMOOTH",
"611 51 OFFCURVE",
"548 15 OFFCURVE",
"482 15 CURVE SMOOTH",
"406 15 OFFCURVE",
"359 60 OFFCURVE",
"346 172 CURVE",
"322 172 LINE",
"311 81 OFFCURVE",
"272 15 OFFCURVE",
"177 15 CURVE SMOOTH",
"113 15 OFFCURVE",
"72 45 OFFCURVE",
"72 110 CURVE SMOOTH",
"72 167 OFFCURVE",
"105 200 OFFCURVE",
"183 236 CURVE SMOOTH",
"261 272 OFFCURVE",
"305 304 OFFCURVE",
"305 378 CURVE SMOOTH",
"305 433 OFFCURVE",
"273 493 OFFCURVE",
"178 493 CURVE SMOOTH",
"83 493 OFFCURVE",
"40 435 OFFCURVE",
"40 373 CURVE SMOOTH",
"40 340 OFFCURVE",
"46 317 OFFCURVE",
"52 298 CURVE",
"78 302 LINE",
"71 321 OFFCURVE",
"67 344 OFFCURVE",
"67 373 CURVE SMOOTH",
"67 426 OFFCURVE",
"99 468 OFFCURVE",
"178 468 CURVE SMOOTH",
"256 468 OFFCURVE",
"278 422 OFFCURVE",
"278 378 CURVE SMOOTH",
"278 321 OFFCURVE",
"249 294 OFFCURVE",
"171 258 CURVE SMOOTH",
"88 220 OFFCURVE",
"45 182 OFFCURVE",
"45 110 CURVE SMOOTH",
"45 39 OFFCURVE",
"88 -12 OFFCURVE",
"177 -12 CURVE SMOOTH",
"256 -12 OFFCURVE",
"321 29 OFFCURVE",
"338 143 CURVE",
"329 143 LINE",
"344 36 OFFCURVE",
"397 -12 OFFCURVE",
"479 -12 CURVE SMOOTH"
);
}
);
width = 680;
},
{
layerId = UUID0;
paths = (
{
closed = 1;
nodes = (
"608 -12 OFFCURVE",
"658 82 OFFCURVE",
"658 215 CURVE SMOOTH",
"658 375 OFFCURVE",
"565 489 OFFCURVE",
"409 504 CURVE",
"403 423 LINE",
"538 410 OFFCURVE",
"613 339 OFFCURVE",
"613 229 CURVE SMOOTH",
"613 144 OFFCURVE",
"575 98 OFFCURVE",
"493 98 CURVE SMOOTH",
"429 98 OFFCURVE",
"383 134 OFFCURVE",
"363 204 CURVE",
"332 204 LINE",
"312 130 OFFCURVE",
"266 98 OFFCURVE",
"193 98 CURVE SMOOTH",
"135 98 OFFCURVE",
"110 117 OFFCURVE",
"110 154 CURVE SMOOTH",
"110 182 OFFCURVE",
"125 207 OFFCURVE",
"206 242 CURVE SMOOTH",
"293 280 OFFCURVE",
"331 319 OFFCURVE",
"331 385 CURVE SMOOTH",
"331 447 OFFCURVE",
"286 500 OFFCURVE",
"190 500 CURVE SMOOTH",
"95 500 OFFCURVE",
"33 449 OFFCURVE",
"33 370 CURVE SMOOTH",
"33 345 OFFCURVE",
"36 322 OFFCURVE",
"43 296 CURVE",
"125 305 LINE",
"114 330 OFFCURVE",
"110 353 OFFCURVE",
"110 376 CURVE SMOOTH",
"110 426 OFFCURVE",
"139 455 OFFCURVE",
"192 455 CURVE SMOOTH",
"239 455 OFFCURVE",
"274 431 OFFCURVE",
"274 381 CURVE SMOOTH",
"274 338 OFFCURVE",
"248 309 OFFCURVE",
"178 281 CURVE SMOOTH",
"89 245 OFFCURVE",
"42 198 OFFCURVE",
"42 127 CURVE SMOOTH",
"42 35 OFFCURVE",
"102 -12 OFFCURVE",
"184 -12 CURVE SMOOTH",
"269 -12 OFFCURVE",
"328 28 OFFCURVE",
"365 147 CURVE",
"329 148 LINE",
"367 25 OFFCURVE",
"431 -12 OFFCURVE",
"500 -12 CURVE SMOOTH"
);
}
);
width = 693;
},
{
layerId = "A2C49E55-5C54-436C-AF3A-B2B174879BD8";
paths = (
{
closed = 1;
nodes = (
"663 -12 OFFCURVE",
"714 86 OFFCURVE",
"714 219 CURVE SMOOTH",
"714 393 OFFCURVE",
"613 502 OFFCURVE",
"455 515 CURVE",
"449 386 LINE",
"579 377 OFFCURVE",
"644 346 OFFCURVE",
"644 275 CURVE SMOOTH",
"644 229 OFFCURVE",
"609 204 OFFCURVE",
"539 204 CURVE SMOOTH",
"481 204 OFFCURVE",
"435 222 OFFCURVE",
"408 279 CURVE",
"354 279 LINE",
"335 230 OFFCURVE",
"296 204 OFFCURVE",
"222 204 CURVE SMOOTH",
"170 204 OFFCURVE",
"152 215 OFFCURVE",
"152 234 CURVE SMOOTH",
"152 255 OFFCURVE",
"173 264 OFFCURVE",
"248 286 CURVE SMOOTH",
"359 319 OFFCURVE",
"380 356 OFFCURVE",
"380 404 CURVE SMOOTH",
"380 462 OFFCURVE",
"340 511 OFFCURVE",
"221 511 CURVE SMOOTH",
"102 511 OFFCURVE",
"27 468 OFFCURVE",
"27 382 CURVE SMOOTH",
"27 360 OFFCURVE",
"31 340 OFFCURVE",
"37 318 CURVE",
"182 339 LINE",
"173 360 OFFCURVE",
"169 375 OFFCURVE",
"169 395 CURVE SMOOTH",
"169 427 OFFCURVE",
"185 454 OFFCURVE",
"237 454 CURVE SMOOTH",
"278 454 OFFCURVE",
"300 440 OFFCURVE",
"300 407 CURVE SMOOTH",
"300 374 OFFCURVE",
"281 356 OFFCURVE",
"193 331 CURVE SMOOTH",
"89 301 OFFCURVE",
"38 255 OFFCURVE",
"38 155 CURVE SMOOTH",
"38 35 OFFCURVE",
"125 -12 OFFCURVE",
"196 -12 CURVE SMOOTH",
"307 -12 OFFCURVE",
"366 46 OFFCURVE",
"397 149 CURVE",
"365 156 LINE",
"396 45 OFFCURVE",
"455 -12 OFFCURVE",
"545 -12 CURVE SMOOTH"
);
}
);
width = 743;
}
);
leftMetricsKey = otelu;
rightMetricsKey = uvowelsigntelu;
unicode = 0C2C;
},
{
glyphname = bhatelu;
lastChange = "2020-01-21 19:05:42 +0000";
layers = (
{
components = (
{
alignment = -1;
name = hattelu;
transform = "{1, 0, 0, 1, 277, 0}";
}
);
layerId = "1282F4F2-4030-47E6-A043-DFF1281EB459";
paths = (
{
closed = 1;
nodes = (
"565 -12 OFFCURVE",
"638 38 OFFCURVE",
"638 197 CURVE SMOOTH",
"638 356 OFFCURVE",
"543 473 OFFCURVE",
"415 489 CURVE",
"393 470 LINE",
"522 455 OFFCURVE",
"611 351 OFFCURVE",
"611 197 CURVE SMOOTH",
"611 51 OFFCURVE",
"548 15 OFFCURVE",
"486 15 CURVE SMOOTH",
"406 15 OFFCURVE",
"359 60 OFFCURVE",
"346 172 CURVE",
"322 172 LINE",
"311 81 OFFCURVE",
"272 15 OFFCURVE",
"177 15 CURVE SMOOTH",
"113 15 OFFCURVE",
"72 45 OFFCURVE",
"72 110 CURVE SMOOTH",
"72 167 OFFCURVE",
"105 200 OFFCURVE",
"183 236 CURVE SMOOTH",
"261 272 OFFCURVE",
"305 304 OFFCURVE",
"305 378 CURVE SMOOTH",
"305 433 OFFCURVE",
"273 493 OFFCURVE",
"178 493 CURVE SMOOTH",
"83 493 OFFCURVE",
"40 435 OFFCURVE",
"40 373 CURVE SMOOTH",
"40 340 OFFCURVE",
"46 317 OFFCURVE",
"52 298 CURVE",
"78 302 LINE",
"71 321 OFFCURVE",
"67 344 OFFCURVE",
"67 373 CURVE SMOOTH",
"67 426 OFFCURVE",
"99 468 OFFCURVE",
"178 468 CURVE SMOOTH",
"256 468 OFFCURVE",
"278 422 OFFCURVE",
"278 378 CURVE SMOOTH",
"278 321 OFFCURVE",
"249 294 OFFCURVE",
"171 258 CURVE SMOOTH",
"88 220 OFFCURVE",
"45 182 OFFCURVE",
"45 110 CURVE SMOOTH",
"45 39 OFFCURVE",
"88 -12 OFFCURVE",
"177 -12 CURVE SMOOTH",
"256 -12 OFFCURVE",
"321 29 OFFCURVE",
"338 143 CURVE",
"329 143 LINE",
"344 36 OFFCURVE",
"397 -12 OFFCURVE",
"483 -12 CURVE SMOOTH"
);
},
{
closed = 1;
nodes = (
"350 -125 LINE",
"346 36 LINE",
"322 36 LINE",
"318 -125 LINE"
);
}
);
width = 680;
},
{
components = (
{
name = hattelu;
transform = "{1, 0, 0, 1, 290, 0}";
}
);
layerId = UUID0;
paths = (
{
closed = 1;
nodes = (
"611 -12 OFFCURVE",
"659 84 OFFCURVE",
"659 205 CURVE SMOOTH",
"659 387 OFFCURVE",
"553 466 OFFCURVE",
"442 494 CURVE",
"394 455 LINE",
"524 430 OFFCURVE",
"612 357 OFFCURVE",
"612 225 CURVE SMOOTH",
"612 139 OFFCURVE",
"564 98 OFFCURVE",
"493 98 CURVE SMOOTH",
"429 98 OFFCURVE",
"382 134 OFFCURVE",
"363 204 CURVE",
"332 204 LINE",
"312 130 OFFCURVE",
"266 98 OFFCURVE",
"193 98 CURVE SMOOTH",
"135 98 OFFCURVE",
"110 117 OFFCURVE",
"110 154 CURVE SMOOTH",
"110 182 OFFCURVE",
"125 207 OFFCURVE",
"206 242 CURVE SMOOTH",
"293 280 OFFCURVE",
"331 319 OFFCURVE",
"331 385 CURVE SMOOTH",
"331 446 OFFCURVE",
"286 500 OFFCURVE",
"190 500 CURVE SMOOTH",
"95 500 OFFCURVE",
"33 449 OFFCURVE",
"33 370 CURVE SMOOTH",
"33 345 OFFCURVE",
"36 322 OFFCURVE",
"43 296 CURVE",
"125 305 LINE",
"114 330 OFFCURVE",
"110 353 OFFCURVE",
"110 376 CURVE SMOOTH",
"110 426 OFFCURVE",
"139 455 OFFCURVE",
"192 455 CURVE SMOOTH",
"239 455 OFFCURVE",
"274 431 OFFCURVE",
"274 381 CURVE SMOOTH",
"274 338 OFFCURVE",
"248 309 OFFCURVE",
"178 281 CURVE SMOOTH",
"89 245 OFFCURVE",
"42 199 OFFCURVE",
"42 127 CURVE SMOOTH",
"42 35 OFFCURVE",
"102 -12 OFFCURVE",
"184 -12 CURVE SMOOTH",
"269 -12 OFFCURVE",
"328 28 OFFCURVE",
"365 147 CURVE",
"329 148 LINE",
"370 16 OFFCURVE",
"434 -12 OFFCURVE",
"501 -12 CURVE SMOOTH"
);
},
{
closed = 1;
nodes = (
"401 -125 LINE",
"370 31 LINE",
"325 31 LINE",
"294 -125 LINE"
);
}
);
width = 693;
},
{
components = (
{
name = hattelu;
transform = "{1, 0, 0, 1, 332, 0}";
}
);
layerId = "A2C49E55-5C54-436C-AF3A-B2B174879BD8";
paths = (
{
closed = 1;
nodes = (
"666 -12 OFFCURVE",
"712 87 OFFCURVE",
"712 228 CURVE SMOOTH",
"712 424 OFFCURVE",
"580 500 OFFCURVE",
"464 516 CURVE",
"412 455 LINE",
"564 438 OFFCURVE",
"631 377 OFFCURVE",
"631 292 CURVE SMOOTH",
"631 232 OFFCURVE",
"593 204 OFFCURVE",
"533 204 CURVE SMOOTH",
"478 204 OFFCURVE",
"435 220 OFFCURVE",
"408 279 CURVE",
"354 279 LINE",
"335 230 OFFCURVE",
"296 204 OFFCURVE",
"222 204 CURVE SMOOTH",
"170 204 OFFCURVE",
"152 215 OFFCURVE",
"152 234 CURVE SMOOTH",
"152 255 OFFCURVE",
"173 264 OFFCURVE",
"248 286 CURVE SMOOTH",
"359 319 OFFCURVE",
"380 356 OFFCURVE",
"380 404 CURVE SMOOTH",
"380 462 OFFCURVE",
"340 511 OFFCURVE",
"221 511 CURVE SMOOTH",
"102 511 OFFCURVE",
"27 468 OFFCURVE",
"27 382 CURVE SMOOTH",
"27 360 OFFCURVE",
"31 340 OFFCURVE",
"37 318 CURVE",
"182 339 LINE",
"173 360 OFFCURVE",
"169 375 OFFCURVE",
"169 395 CURVE SMOOTH",
"169 427 OFFCURVE",
"185 454 OFFCURVE",
"237 454 CURVE SMOOTH",
"280 454 OFFCURVE",
"300 440 OFFCURVE",
"300 407 CURVE SMOOTH",
"300 374 OFFCURVE",
"281 356 OFFCURVE",
"193 331 CURVE SMOOTH",
"89 301 OFFCURVE",
"38 255 OFFCURVE",
"38 155 CURVE SMOOTH",
"38 35 OFFCURVE",
"125 -12 OFFCURVE",
"196 -12 CURVE SMOOTH",
"307 -12 OFFCURVE",
"366 46 OFFCURVE",
"397 149 CURVE",
"365 156 LINE",
"390 49 OFFCURVE",
"454 -12 OFFCURVE",
"543 -12 CURVE SMOOTH"
);
},
{
closed = 1;
nodes = (
"477 -130 LINE",
"440 13 LINE",
"322 13 LINE",
"285 -130 LINE"
);
}
);
width = 741;
}
);
leftMetricsKey = otelu;
unicode = 0C2D;
},
{
glyphname = yatelu;
lastChange = "2020-01-21 19:05:42 +0000";
layers = (
{
components = (
{
alignment = -1;
name = hattelu;
transform = "{1, 0, 0, 1, 439, 0}";
}
);
layerId = "1282F4F2-4030-47E6-A043-DFF1281EB459";
paths = (
{
closed = 1;
nodes = (
"42 80 OFFCURVE",
"127 -12 OFFCURVE",
"268 -12 CURVE SMOOTH",
"413 -12 OFFCURVE",
"498 84 OFFCURVE",
"498 238 CURVE SMOOTH",
"498 410 OFFCURVE",
"394 493 OFFCURVE",
"270 493 CURVE SMOOTH",
"148 493 OFFCURVE",
"42 406 OFFCURVE",
"42 240 CURVE SMOOTH"
);
},
{
closed = 1;
nodes = (
"69 360 OFFCURVE",
"133 467 OFFCURVE",
"270 467 CURVE SMOOTH",
"395 467 OFFCURVE",
"471 378 OFFCURVE",
"471 238 CURVE SMOOTH",
"471 107 OFFCURVE",
"406 14 OFFCURVE",
"269 14 CURVE SMOOTH",
"135 14 OFFCURVE",
"69 99 OFFCURVE",
"69 239 CURVE SMOOTH"
);
},
{
closed = 1;
nodes = (
"742 -12 OFFCURVE",
"808 38 OFFCURVE",
"808 197 CURVE SMOOTH",
"808 356 OFFCURVE",
"713 473 OFFCURVE",
"585 489 CURVE",
"563 470 LINE",
"692 455 OFFCURVE",
"781 351 OFFCURVE",
"781 197 CURVE SMOOTH",
"781 51 OFFCURVE",
"724 15 OFFCURVE",
"649 15 CURVE SMOOTH",
"572 15 OFFCURVE",
"519 72 OFFCURVE",
"481 161 CURVE",
"464 151 LINE",
"505 33 OFFCURVE",
"570 -12 OFFCURVE",
"649 -12 CURVE SMOOTH"
);
},
{
closed = 1;
nodes = (
"1051 -12 OFFCURVE",
"1127 36 OFFCURVE",
"1127 197 CURVE SMOOTH",
"1127 365 OFFCURVE",
"1022 488 OFFCURVE",
"865 496 CURVE",
"865 471 LINE",
"1008 464 OFFCURVE",
"1100 353 OFFCURVE",
"1100 197 CURVE SMOOTH",
"1100 51 OFFCURVE",
"1037 15 OFFCURVE",
"968 15 CURVE SMOOTH",
"891 15 OFFCURVE",
"838 72 OFFCURVE",
"800 161 CURVE",
"783 151 LINE",
"824 33 OFFCURVE",
"889 -12 OFFCURVE",
"968 -12 CURVE SMOOTH"
);
}
);
width = 1169;
},
{
components = (
{
alignment = -1;
name = hattelu;
transform = "{1, 0, 0, 1, 465, 0}";
}
);
layerId = UUID0;
paths = (
{
closed = 1;
nodes = (
"35 92 OFFCURVE",
"127 -12 OFFCURVE",
"281 -12 CURVE SMOOTH",
"434 -12 OFFCURVE",
"529 91 OFFCURVE",
"529 243 CURVE SMOOTH",
"529 389 OFFCURVE",
"439 503 OFFCURVE",
"284 503 CURVE SMOOTH",
"127 503 OFFCURVE",
"35 387 OFFCURVE",
"35 243 CURVE SMOOTH"
);
},
{
closed = 1;
nodes = (
"99 382 OFFCURVE",
"170 455 OFFCURVE",
"284 455 CURVE SMOOTH",
"400 455 OFFCURVE",
"465 381 OFFCURVE",
"465 274 CURVE SMOOTH",
"465 170 OFFCURVE",
"404 100 OFFCURVE",
"281 100 CURVE SMOOTH",
"159 100 OFFCURVE",
"99 172 OFFCURVE",
"99 274 CURVE SMOOTH"
);
},
{
closed = 1;
nodes = (
"789 -12 OFFCURVE",
"833 84 OFFCURVE",
"833 207 CURVE SMOOTH",
"833 387 OFFCURVE",
"728 466 OFFCURVE",
"617 494 CURVE",
"569 455 LINE",
"699 430 OFFCURVE",
"786 357 OFFCURVE",
"786 225 CURVE SMOOTH",
"786 139 OFFCURVE",
"739 98 OFFCURVE",
"668 98 CURVE SMOOTH",
"604 98 OFFCURVE",
"561 129 OFFCURVE",
"513 202 CURVE",
"481 186 LINE",
"529 48 OFFCURVE",
"579 -12 OFFCURVE",
"674 -12 CURVE SMOOTH"
);
},
{
closed = 1;
nodes = (
"1101 -12 OFFCURVE",
"1151 82 OFFCURVE",
"1151 215 CURVE SMOOTH",
"1151 375 OFFCURVE",
"1058 499 OFFCURVE",
"880 504 CURVE",
"877 422 LINE",
"1031 416 OFFCURVE",
"1106 339 OFFCURVE",
"1106 231 CURVE SMOOTH",
"1106 144 OFFCURVE",
"1064 98 OFFCURVE",
"983 98 CURVE SMOOTH",
"916 98 OFFCURVE",
"873 129 OFFCURVE",
"825 202 CURVE",
"795 192 LINE",
"843 50 OFFCURVE",
"901 -12 OFFCURVE",
"996 -12 CURVE SMOOTH"
);
}
);
width = 1186;
},
{
components = (
{
alignment = -1;
name = hattelu;
transform = "{1, 0, 0, 1, 484, 0}";
}
);
layerId = "A2C49E55-5C54-436C-AF3A-B2B174879BD8";
paths = (
{
closed = 1;
nodes = (
"29 93 OFFCURVE",
"122 -12 OFFCURVE",
"299 -12 CURVE SMOOTH",
"475 -12 OFFCURVE",
"571 92 OFFCURVE",
"571 249 CURVE SMOOTH",
"571 397 OFFCURVE",
"478 514 OFFCURVE",
"303 514 CURVE SMOOTH",
"125 514 OFFCURVE",
"29 395 OFFCURVE",
"29 248 CURVE SMOOTH"
);
},
{
closed = 1;
nodes = (
"137 396 OFFCURVE",
"196 454 OFFCURVE",
"303 454 CURVE SMOOTH",
"412 454 OFFCURVE",
"463 393 OFFCURVE",
"463 317 CURVE SMOOTH",
"463 248 OFFCURVE",
"412 205 OFFCURVE",
"299 205 CURVE SMOOTH",
"187 205 OFFCURVE",
"137 250 OFFCURVE",
"137 317 CURVE SMOOTH"
);
},
{
closed = 1;
nodes = (
"816 -12 OFFCURVE",
"863 86 OFFCURVE",
"863 221 CURVE SMOOTH",
"863 424 OFFCURVE",
"731 500 OFFCURVE",
"615 516 CURVE",
"563 454 LINE",
"715 438 OFFCURVE",
"782 377 OFFCURVE",
"782 292 CURVE SMOOTH",
"782 232 OFFCURVE",
"744 204 OFFCURVE",
"689 204 CURVE SMOOTH",
"627 204 OFFCURVE",
"585 223 OFFCURVE",
"526 265 CURVE",
"483 231 LINE",
"542 60 OFFCURVE",
"604 -12 OFFCURVE",
"705 -12 CURVE SMOOTH"
);
},
{
closed = 1;
nodes = (
"1135 -12 OFFCURVE",
"1186 86 OFFCURVE",
"1186 221 CURVE SMOOTH",
"1186 393 OFFCURVE",
"1084 509 OFFCURVE",
"908 515 CURVE",
"902 386 LINE",
"1045 382 OFFCURVE",
"1116 346 OFFCURVE",
"1116 274 CURVE SMOOTH",
"1116 231 OFFCURVE",
"1081 204 OFFCURVE",
"1007 204 CURVE SMOOTH",
"936 204 OFFCURVE",
"894 223 OFFCURVE",
"835 265 CURVE",
"800 246 LINE",
"855 72 OFFCURVE",
"915 -12 OFFCURVE",
"1020 -12 CURVE SMOOTH"
);
}
);
width = 1215;
}
);
leftMetricsKey = raalttelu;
rightMetricsKey = uvowelsigntelu;
unicode = 0C2F;
},
{
glyphname = rratelu;
lastChange = "2020-01-21 19:05:42 +0000";
layers = (
{
layerId = "1282F4F2-4030-47E6-A043-DFF1281EB459";
paths = (
{
closed = 1;
nodes = (
"485 493 OFFCURVE",
"444 446 OFFCURVE",
"444 385 CURVE SMOOTH",
"444 313 OFFCURVE",
"497 271 OFFCURVE",
"560 237 CURVE",
"559 252 LINE",
"264 252 LINE",
"264 228 LINE",
"567 228 LINE",
"576 250 LINE",
"529 279 OFFCURVE",
"471 315 OFFCURVE",
"471 384 CURVE SMOOTH",
"471 435 OFFCURVE",
"503 468 OFFCURVE",
"550 468 CURVE SMOOTH",
"635 468 OFFCURVE",
"681 358 OFFCURVE",
"681 227 CURVE SMOOTH",
"681 98 OFFCURVE",
"643 15 OFFCURVE",
"536 15 CURVE SMOOTH",
"440 15 OFFCURVE",
"402 81 OFFCURVE",
"389 172 CURVE",
"365 172 LINE",
"352 81 OFFCURVE",
"314 15 OFFCURVE",
"218 15 CURVE SMOOTH",
"107 15 OFFCURVE",
"73 108 OFFCURVE",
"73 227 CURVE SMOOTH",
"73 326 OFFCURVE",
"105 419 OFFCURVE",
"186 465 CURVE",
"171 461 LINE",
"149 440 OFFCURVE",
"135 420 OFFCURVE",
"135 381 CURVE SMOOTH",
"135 309 OFFCURVE",
"180 274 OFFCURVE",
"240 274 CURVE SMOOTH",
"306 274 OFFCURVE",
"346 316 OFFCURVE",
"346 383 CURVE SMOOTH",
"346 453 OFFCURVE",
"300 493 OFFCURVE",
"238 493 CURVE SMOOTH",
"149 493 OFFCURVE",
"47 405 OFFCURVE",
"47 227 CURVE SMOOTH",
"47 65 OFFCURVE",
"107 -12 OFFCURVE",
"219 -12 CURVE SMOOTH",
"297 -12 OFFCURVE",
"362 28 OFFCURVE",
"381 143 CURVE",
"373 143 LINE",
"392 28 OFFCURVE",
"457 -12 OFFCURVE",
"535 -12 CURVE SMOOTH",
"646 -12 OFFCURVE",
"707 59 OFFCURVE",
"707 227 CURVE SMOOTH",
"707 393 OFFCURVE",
"642 493 OFFCURVE",
"550 493 CURVE SMOOTH"
);
},
{
closed = 1;
nodes = (
"287 468 OFFCURVE",
"319 434 OFFCURVE",
"319 383 CURVE SMOOTH",
"319 333 OFFCURVE",
"292 299 OFFCURVE",
"241 299 CURVE SMOOTH",
"195 299 OFFCURVE",
"159 323 OFFCURVE",
"159 383 CURVE SMOOTH",
"159 433 OFFCURVE",
"190 468 OFFCURVE",
"237 468 CURVE SMOOTH"
);
}
);
width = 754;
},
{
layerId = UUID0;
paths = (
{
closed = 1;
nodes = (
"482 500 OFFCURVE",
"443 442 OFFCURVE",
"443 386 CURVE SMOOTH",
"443 317 OFFCURVE",
"495 276 OFFCURVE",
"544 253 CURVE",
"567 271 LINE",
"302 271 LINE",
"302 220 LINE",
"578 220 LINE",
"590 263 LINE",
"544 287 OFFCURVE",
"509 319 OFFCURVE",
"509 365 CURVE SMOOTH",
"509 405 OFFCURVE",
"535 428 OFFCURVE",
"575 428 CURVE SMOOTH",
"646 428 OFFCURVE",
"687 347 OFFCURVE",
"687 255 CURVE SMOOTH",
"687 142 OFFCURVE",
"626 98 OFFCURVE",
"549 98 CURVE SMOOTH",
"467 98 OFFCURVE",
"427 130 OFFCURVE",
"402 197 CURVE",
"371 197 LINE",
"346 130 OFFCURVE",
"306 98 OFFCURVE",
"228 98 CURVE SMOOTH",
"153 98 OFFCURVE",
"86 142 OFFCURVE",
"86 255 CURVE SMOOTH",
"86 318 OFFCURVE",
"102 367 OFFCURVE",
"142 411 CURVE",
"132 415 LINE",
"126 402 OFFCURVE",
"124 389 OFFCURVE",
"124 379 CURVE SMOOTH",
"124 302 OFFCURVE",
"172 261 OFFCURVE",
"241 261 CURVE SMOOTH",
"315 261 OFFCURVE",
"361 307 OFFCURVE",
"361 381 CURVE SMOOTH",
"361 447 OFFCURVE",
"320 500 OFFCURVE",
"234 500 CURVE SMOOTH",
"156 500 OFFCURVE",
"39 430 OFFCURVE",
"39 231 CURVE SMOOTH",
"39 71 OFFCURVE",
"109 -12 OFFCURVE",
"222 -12 CURVE SMOOTH",
"329 -12 OFFCURVE",
"377 52 OFFCURVE",
"404 147 CURVE",
"369 147 LINE",
"396 52 OFFCURVE",
"448 -12 OFFCURVE",
"555 -12 CURVE SMOOTH",
"668 -12 OFFCURVE",
"734 71 OFFCURVE",
"734 234 CURVE SMOOTH",
"734 411 OFFCURVE",
"660 500 OFFCURVE",
"565 500 CURVE SMOOTH"
);
},
{
closed = 1;
nodes = (
"275 438 OFFCURVE",
"302 413 OFFCURVE",
"302 371 CURVE SMOOTH",
"302 329 OFFCURVE",
"275 304 OFFCURVE",
"241 304 CURVE SMOOTH",
"207 304 OFFCURVE",
"176 322 OFFCURVE",
"176 371 CURVE SMOOTH",
"176 416 OFFCURVE",
"206 438 OFFCURVE",
"237 438 CURVE SMOOTH"
);
}
);
width = 773;
},
{
layerId = "A2C49E55-5C54-436C-AF3A-B2B174879BD8";
paths = (
{
closed = 1;
nodes = (
"504 511 OFFCURVE",
"465 461 OFFCURVE",
"465 407 CURVE SMOOTH",
"465 336 OFFCURVE",
"535 301 OFFCURVE",
"596 279 CURVE",
"547 320 LINE",
"348 320 LINE",
"348 259 LINE",
"617 259 LINE",
"632 293 LINE",
"589 312 OFFCURVE",
"571 339 OFFCURVE",
"571 365 CURVE SMOOTH",
"571 391 OFFCURVE",
"588 416 OFFCURVE",
"626 416 CURVE SMOOTH",
"679 416 OFFCURVE",
"704 366 OFFCURVE",
"704 311 CURVE SMOOTH",
"704 233 OFFCURVE",
"659 198 OFFCURVE",
"580 198 CURVE SMOOTH",
"497 198 OFFCURVE",
"459 220 OFFCURVE",
"436 248 CURVE",
"374 248 LINE",
"339 212 OFFCURVE",
"310 198 OFFCURVE",
"237 198 CURVE SMOOTH",
"171 198 OFFCURVE",
"106 223 OFFCURVE",
"106 310 CURVE SMOOTH",
"106 361 OFFCURVE",
"132 406 OFFCURVE",
"182 436 CURVE",
"150 440 LINE",
"139 419 OFFCURVE",
"129 397 OFFCURVE",
"129 371 CURVE SMOOTH",
"129 304 OFFCURVE",
"174 261 OFFCURVE",
"252 261 CURVE SMOOTH",
"327 261 OFFCURVE",
"386 304 OFFCURVE",
"386 387 CURVE SMOOTH",
"386 460 OFFCURVE",
"339 511 OFFCURVE",
"247 511 CURVE SMOOTH",
"140 511 OFFCURVE",
"33 426 OFFCURVE",
"33 239 CURVE SMOOTH",
"33 68 OFFCURVE",
"106 -12 OFFCURVE",
"225 -12 CURVE SMOOTH",
"333 -12 OFFCURVE",
"392 52 OFFCURVE",
"421 149 CURVE",
"389 149 LINE",
"416 54 OFFCURVE",
"479 -12 OFFCURVE",
"583 -12 CURVE SMOOTH",
"704 -12 OFFCURVE",
"777 68 OFFCURVE",
"777 239 CURVE SMOOTH",
"777 426 OFFCURVE",
"694 511 OFFCURVE",
"590 511 CURVE SMOOTH"
);
},
{
closed = 1;
nodes = (
"284 430 OFFCURVE",
"299 406 OFFCURVE",
"299 376 CURVE SMOOTH",
"299 329 OFFCURVE",
"273 319 OFFCURVE",
"246 319 CURVE SMOOTH",
"216 319 OFFCURVE",
"193 337 OFFCURVE",
"193 374 CURVE SMOOTH",
"193 411 OFFCURVE",
"216 430 OFFCURVE",
"246 430 CURVE SMOOTH"
);
}
);
width = 810;
}
);
leftMetricsKey = ttatelu;
rightMetricsKey = "=|ttatelu";
unicode = 0C31;
},
{
glyphname = latelu;
lastChange = "2020-01-21 19:05:42 +0000";
layers = (
{
layerId = "1282F4F2-4030-47E6-A043-DFF1281EB459";
paths = (
{
closed = 1;
nodes = (
"515 -12 OFFCURVE",
"610 95 OFFCURVE",
"610 253 CURVE SMOOTH",
"610 360 OFFCURVE",
"559 457 OFFCURVE",
"432 496 CURVE",
"427 471 LINE",
"537 436 OFFCURVE",
"583 353 OFFCURVE",
"583 253 CURVE SMOOTH",
"583 106 OFFCURVE",
"500 15 OFFCURVE",
"326 15 CURVE SMOOTH",
"169 15 OFFCURVE",
"68 104 OFFCURVE",
"68 269 CURVE SMOOTH",
"68 379 OFFCURVE",
"113 435 OFFCURVE",
"175 468 CURVE",
"169 468 LINE",
"132 441 OFFCURVE",
"122 415 OFFCURVE",
"122 381 CURVE SMOOTH",
"122 309 OFFCURVE",
"168 274 OFFCURVE",
"228 274 CURVE SMOOTH",
"290 274 OFFCURVE",
"334 316 OFFCURVE",
"334 383 CURVE SMOOTH",
"334 452 OFFCURVE",
"287 493 OFFCURVE",
"219 493 CURVE SMOOTH",
"134 493 OFFCURVE",
"42 420 OFFCURVE",
"42 270 CURVE SMOOTH",
"42 93 OFFCURVE",
"149 -12 OFFCURVE",
"327 -12 CURVE SMOOTH"
);
},
{
closed = 1;
nodes = (
"307 333 OFFCURVE",
"280 299 OFFCURVE",
"229 299 CURVE SMOOTH",
"183 299 OFFCURVE",
"147 323 OFFCURVE",
"147 383 CURVE SMOOTH",
"147 433 OFFCURVE",
"178 468 OFFCURVE",
"225 468 CURVE SMOOTH",
"275 468 OFFCURVE",
"307 434 OFFCURVE",
"307 383 CURVE SMOOTH"
);
}
);
width = 652;
},
{
layerId = UUID0;
paths = (
{
closed = 1;
nodes = (
"545 -12 OFFCURVE",
"630 85 OFFCURVE",
"630 266 CURVE SMOOTH",
"630 387 OFFCURVE",
"560 490 OFFCURVE",
"436 504 CURVE",
"432 422 LINE",
"518 412 OFFCURVE",
"585 369 OFFCURVE",
"585 272 CURVE SMOOTH",
"585 162 OFFCURVE",
"505 99 OFFCURVE",
"331 99 CURVE SMOOTH",
"178 99 OFFCURVE",
"81 161 OFFCURVE",
"81 282 CURVE SMOOTH",
"81 342 OFFCURVE",
"104 383 OFFCURVE",
"137 412 CURVE",
"132 415 LINE",
"126 402 OFFCURVE",
"124 389 OFFCURVE",
"124 379 CURVE SMOOTH",
"124 302 OFFCURVE",
"173 261 OFFCURVE",
"240 261 CURVE SMOOTH",
"316 261 OFFCURVE",
"361 311 OFFCURVE",
"361 381 CURVE SMOOTH",
"361 446 OFFCURVE",
"319 500 OFFCURVE",
"236 500 CURVE SMOOTH",
"117 500 OFFCURVE",
"35 404 OFFCURVE",
"35 267 CURVE SMOOTH",
"35 75 OFFCURVE",
"163 -12 OFFCURVE",
"332 -12 CURVE SMOOTH"
);
},
{
closed = 1;
nodes = (
"302 329 OFFCURVE",
"276 304 OFFCURVE",
"241 304 CURVE SMOOTH",
"207 304 OFFCURVE",
"176 322 OFFCURVE",
"176 371 CURVE SMOOTH",
"176 416 OFFCURVE",
"205 438 OFFCURVE",
"237 438 CURVE SMOOTH",
"276 438 OFFCURVE",
"302 413 OFFCURVE",
"302 371 CURVE SMOOTH"
);
}
);
width = 665;
},
{
layerId = "A2C49E55-5C54-436C-AF3A-B2B174879BD8";
paths = (
{
closed = 1;
nodes = (
"568 -12 OFFCURVE",
"655 89 OFFCURVE",
"655 271 CURVE SMOOTH",
"655 397 OFFCURVE",
"575 505 OFFCURVE",
"440 515 CURVE",
"435 383 LINE",
"529 379 OFFCURVE",
"585 360 OFFCURVE",
"585 295 CURVE SMOOTH",
"585 226 OFFCURVE",
"500 200 OFFCURVE",
"342 200 CURVE SMOOTH",
"183 200 OFFCURVE",
"101 241 OFFCURVE",
"101 334 CURVE SMOOTH",
"101 383 OFFCURVE",
"126 419 OFFCURVE",
"161 435 CURVE",
"137 440 LINE",
"125 419 OFFCURVE",
"117 397 OFFCURVE",
"117 371 CURVE SMOOTH",
"117 304 OFFCURVE",
"161 261 OFFCURVE",
"242 261 CURVE SMOOTH",
"318 261 OFFCURVE",
"373 305 OFFCURVE",
"373 386 CURVE SMOOTH",
"373 459 OFFCURVE",
"325 511 OFFCURVE",
"235 511 CURVE SMOOTH",
"117 511 OFFCURVE",
"29 421 OFFCURVE",
"29 275 CURVE SMOOTH",
"29 78 OFFCURVE",
"163 -12 OFFCURVE",
"342 -12 CURVE SMOOTH"
);
},
{
closed = 1;
nodes = (
"286 329 OFFCURVE",
"261 319 OFFCURVE",
"234 319 CURVE SMOOTH",
"203 319 OFFCURVE",
"181 337 OFFCURVE",
"181 376 CURVE SMOOTH",
"181 409 OFFCURVE",
"202 430 OFFCURVE",
"236 430 CURVE SMOOTH",
"271 430 OFFCURVE",
"286 406 OFFCURVE",
"286 376 CURVE SMOOTH"
);
}
);
width = 684;
}
);
unicode = 0C32;
},
{
glyphname = llatelu;
lastChange = "2020-01-21 19:05:42 +0000";
layers = (
{
components = (
{
alignment = -1;
name = hattelu;
transform = "{1, 0, 0, 1, 227, 0}";
}
);
layerId = "1282F4F2-4030-47E6-A043-DFF1281EB459";
paths = (
{
closed = 1;
nodes = (
"355 482 LINE",
"348 470 LINE",
"376 470 LINE SMOOTH",
"529 470 OFFCURVE",
"550 400 OFFCURVE",
"550 348 CURVE SMOOTH",
"550 264 OFFCURVE",
"484 209 OFFCURVE",
"349 183 CURVE",
"366 183 LINE",
"346 188 OFFCURVE",
"324 193 OFFCURVE",
"292 193 CURVE SMOOTH",
"141 193 OFFCURVE",
"64 233 OFFCURVE",
"64 328 CURVE SMOOTH",
"64 393 OFFCURVE",
"99 436 OFFCURVE",
"152 455 CURVE",
"149 455 LINE",
"114 434 OFFCURVE",
"101 402 OFFCURVE",
"101 369 CURVE SMOOTH",
"101 300 OFFCURVE",
"144 265 OFFCURVE",
"202 265 CURVE SMOOTH",
"262 265 OFFCURVE",
"304 305 OFFCURVE",
"304 371 CURVE SMOOTH",
"304 437 OFFCURVE",
"254 476 OFFCURVE",
"190 476 CURVE SMOOTH",
"99 476 OFFCURVE",
"38 412 OFFCURVE",
"38 327 CURVE SMOOTH",
"38 216 OFFCURVE",
"135 173 OFFCURVE",
"246 171 CURVE",
"253 179 LINE",
"206 172 OFFCURVE",
"172 138 OFFCURVE",
"172 91 CURVE SMOOTH",
"172 28 OFFCURVE",
"219 -12 OFFCURVE",
"305 -12 CURVE SMOOTH",
"389 -12 OFFCURVE",
"437 24 OFFCURVE",
"437 90 CURVE SMOOTH",
"437 128 OFFCURVE",
"418 161 OFFCURVE",
"374 174 CURVE",
"375 163 LINE",
"494 190 OFFCURVE",
"577 244 OFFCURVE",
"577 348 CURVE SMOOTH",
"577 413 OFFCURVE",
"548 492 OFFCURVE",
"381 494 CURVE"
);
},
{
closed = 1;
nodes = (
"246 451 OFFCURVE",
"277 419 OFFCURVE",
"277 371 CURVE SMOOTH",
"277 323 OFFCURVE",
"250 291 OFFCURVE",
"203 291 CURVE SMOOTH",
"160 291 OFFCURVE",
"126 313 OFFCURVE",
"126 371 CURVE SMOOTH",
"126 419 OFFCURVE",
"156 451 OFFCURVE",
"199 451 CURVE SMOOTH"
);
},
{
closed = 1;
nodes = (
"241 15 OFFCURVE",
"199 39 OFFCURVE",
"199 91 CURVE SMOOTH",
"199 137 OFFCURVE",
"228 168 OFFCURVE",
"302 168 CURVE SMOOTH",
"372 168 OFFCURVE",
"410 141 OFFCURVE",
"410 90 CURVE SMOOTH",
"410 31 OFFCURVE",
"361 15 OFFCURVE",
"302 15 CURVE SMOOTH"
);
}
);
width = 611;
},
{
components = (
{
alignment = -1;
name = hattelu;
transform = "{1, 0, 0, 1, 241, 0}";
}
);
layerId = UUID0;
paths = (
{
closed = 1;
nodes = (
"387 490 LINE",
"357 455 LINE",
"374 455 LINE SMOOTH",
"486 455 OFFCURVE",
"537 415 OFFCURVE",
"537 344 CURVE SMOOTH",
"537 276 OFFCURVE",
"470 221 OFFCURVE",
"352 205 CURVE",
"383 205 LINE",
"363 210 OFFCURVE",
"334 214 OFFCURVE",
"282 215 CURVE SMOOTH",
"159 217 OFFCURVE",
"74 242 OFFCURVE",
"74 332 CURVE SMOOTH",
"74 379 OFFCURVE",
"96 411 OFFCURVE",
"137 429 CURVE",
"126 435 LINE",
"107 415 OFFCURVE",
"99 395 OFFCURVE",
"99 364 CURVE SMOOTH",
"99 300 OFFCURVE",
"143 266 OFFCURVE",
"206 266 CURVE SMOOTH",
"278 266 OFFCURVE",
"320 308 OFFCURVE",
"320 372 CURVE SMOOTH",
"320 431 OFFCURVE",
"279 482 OFFCURVE",
"198 482 CURVE SMOOTH",
"114 482 OFFCURVE",
"31 430 OFFCURVE",
"31 320 CURVE SMOOTH",
"31 211 OFFCURVE",
"118 163 OFFCURVE",
"220 153 CURVE",
"226 180 LINE",
"189 169 OFFCURVE",
"159 144 OFFCURVE",
"159 95 CURVE SMOOTH",
"159 30 OFFCURVE",
"210 -12 OFFCURVE",
"310 -12 CURVE SMOOTH",
"402 -12 OFFCURVE",
"455 26 OFFCURVE",
"455 104 CURVE SMOOTH",
"455 147 OFFCURVE",
"436 178 OFFCURVE",
"393 196 CURVE",
"418 167 LINE",
"525 200 OFFCURVE",
"595 261 OFFCURVE",
"595 344 CURVE SMOOTH",
"595 426 OFFCURVE",
"537 491 OFFCURVE",
"402 494 CURVE"
);
},
{
closed = 1;
nodes = (
"238 424 OFFCURVE",
"261 402 OFFCURVE",
"261 366 CURVE SMOOTH",
"261 333 OFFCURVE",
"244 309 OFFCURVE",
"204 309 CURVE SMOOTH",
"172 309 OFFCURVE",
"149 327 OFFCURVE",
"149 366 CURVE SMOOTH",
"149 404 OFFCURVE",
"174 424 OFFCURVE",
"206 424 CURVE SMOOTH"
);
},
{
closed = 1;
nodes = (
"245 85 OFFCURVE",
"218 102 OFFCURVE",
"218 128 CURVE SMOOTH",
"218 154 OFFCURVE",
"240 170 OFFCURVE",
"309 170 CURVE SMOOTH",
"371 170 OFFCURVE",
"399 158 OFFCURVE",
"399 128 CURVE SMOOTH",
"399 96 OFFCURVE",
"365 85 OFFCURVE",
"307 85 CURVE SMOOTH"
);
}
);
width = 622;
},
{
components = (
{
alignment = -1;
name = hattelu;
transform = "{1, 0, 0, 1, 276, 0}";
}
);
layerId = "A2C49E55-5C54-436C-AF3A-B2B174879BD8";
paths = (
{
closed = 1;
nodes = (
"406 504 LINE",
"386 454 LINE",
"428 454 LINE SMOOTH",
"525 454 OFFCURVE",
"564 415 OFFCURVE",
"564 359 CURVE SMOOTH",
"564 295 OFFCURVE",
"490 241 OFFCURVE",
"385 224 CURVE",
"422 224 LINE",
"397 237 OFFCURVE",
"358 243 OFFCURVE",
"295 245 CURVE SMOOTH",
"173 249 OFFCURVE",
"95 266 OFFCURVE",
"95 350 CURVE SMOOTH",
"95 399 OFFCURVE",
"120 425 OFFCURVE",
"157 444 CURVE",
"150 462 LINE",
"125 433 OFFCURVE",
"114 410 OFFCURVE",
"114 380 CURVE SMOOTH",
"114 319 OFFCURVE",
"156 279 OFFCURVE",
"229 279 CURVE SMOOTH",
"316 279 OFFCURVE",
"356 322 OFFCURVE",
"356 391 CURVE SMOOTH",
"356 457 OFFCURVE",
"302 511 OFFCURVE",
"214 511 CURVE SMOOTH",
"111 511 OFFCURVE",
"27 439 OFFCURVE",
"27 337 CURVE SMOOTH",
"27 218 OFFCURVE",
"112 157 OFFCURVE",
"204 147 CURVE",
"242 210 LINE",
"208 199 OFFCURVE",
"159 160 OFFCURVE",
"159 106 CURVE SMOOTH",
"159 41 OFFCURVE",
"198 -12 OFFCURVE",
"329 -12 CURVE SMOOTH",
"456 -12 OFFCURVE",
"498 35 OFFCURVE",
"498 104 CURVE SMOOTH",
"498 151 OFFCURVE",
"474 191 OFFCURVE",
"435 209 CURVE",
"444 166 LINE",
"564 197 OFFCURVE",
"645 260 OFFCURVE",
"645 361 CURVE SMOOTH",
"645 440 OFFCURVE",
"583 509 OFFCURVE",
"456 511 CURVE"
);
},
{
closed = 1;
nodes = (
"255 434 OFFCURVE",
"270 410 OFFCURVE",
"270 387 CURVE SMOOTH",
"270 347 OFFCURVE",
"245 337 OFFCURVE",
"222 337 CURVE SMOOTH",
"194 337 OFFCURVE",
"175 355 OFFCURVE",
"175 387 CURVE SMOOTH",
"175 413 OFFCURVE",
"193 434 OFFCURVE",
"224 434 CURVE SMOOTH"
);
},
{
closed = 1;
nodes = (
"277 115 OFFCURVE",
"247 119 OFFCURVE",
"247 140 CURVE SMOOTH",
"247 155 OFFCURVE",
"263 160 OFFCURVE",
"329 160 CURVE SMOOTH",
"394 160 OFFCURVE",
"409 155 OFFCURVE",
"409 140 CURVE SMOOTH",
"409 119 OFFCURVE",
"379 115 OFFCURVE",
"329 115 CURVE SMOOTH"
);
}
);
width = 670;
}
);
unicode = 0C33;
},
{
glyphname = lllatelu;
lastChange = "2020-01-21 19:05:42 +0000";
layers = (
{
layerId = "1282F4F2-4030-47E6-A043-DFF1281EB459";
paths = (
{
closed = 1;
nodes = (
"287 468 OFFCURVE",
"319 434 OFFCURVE",
"319 383 CURVE SMOOTH",
"319 333 OFFCURVE",
"292 299 OFFCURVE",
"241 299 CURVE SMOOTH",
"195 299 OFFCURVE",
"159 323 OFFCURVE",
"159 383 CURVE SMOOTH",
"159 433 OFFCURVE",
"190 468 OFFCURVE",
"237 468 CURVE SMOOTH"
);
},
{
closed = 1;
nodes = (
"392 28 OFFCURVE",
"457 -12 OFFCURVE",
"535 -12 CURVE SMOOTH",
"647 -12 OFFCURVE",
"707 65 OFFCURVE",
"707 227 CURVE SMOOTH",
"707 409 OFFCURVE",
"607 493 OFFCURVE",
"520 493 CURVE SMOOTH",
"454 493 OFFCURVE",
"408 453 OFFCURVE",
"408 383 CURVE SMOOTH",
"408 316 OFFCURVE",
"448 274 OFFCURVE",
"514 274 CURVE SMOOTH",
"574 274 OFFCURVE",
"619 309 OFFCURVE",
"619 381 CURVE SMOOTH",
"619 420 OFFCURVE",
"605 439 OFFCURVE",
"583 460 CURVE",
"568 466 LINE",
"649 425 OFFCURVE",
"681 326 OFFCURVE",
"681 227 CURVE SMOOTH",
"681 108 OFFCURVE",
"647 15 OFFCURVE",
"536 15 CURVE SMOOTH",
"440 15 OFFCURVE",
"402 81 OFFCURVE",
"389 172 CURVE",
"365 172 LINE",
"352 81 OFFCURVE",
"314 15 OFFCURVE",
"218 15 CURVE SMOOTH",
"107 15 OFFCURVE",
"73 108 OFFCURVE",
"73 227 CURVE SMOOTH",
"73 326 OFFCURVE",
"105 419 OFFCURVE",
"186 465 CURVE",
"171 461 LINE",
"149 440 OFFCURVE",
"135 420 OFFCURVE",
"135 381 CURVE SMOOTH",
"135 309 OFFCURVE",
"180 274 OFFCURVE",
"240 274 CURVE SMOOTH",
"306 274 OFFCURVE",
"346 316 OFFCURVE",
"346 383 CURVE SMOOTH",
"346 453 OFFCURVE",
"300 493 OFFCURVE",
"238 493 CURVE SMOOTH",
"149 493 OFFCURVE",
"47 405 OFFCURVE",
"47 227 CURVE SMOOTH",
"47 65 OFFCURVE",
"107 -12 OFFCURVE",
"219 -12 CURVE SMOOTH",
"297 -12 OFFCURVE",
"362 28 OFFCURVE",
"381 143 CURVE",
"373 143 LINE"
);
},
{
closed = 1;
nodes = (
"562 468 OFFCURVE",
"593 433 OFFCURVE",
"593 383 CURVE SMOOTH",
"593 323 OFFCURVE",
"557 299 OFFCURVE",
"511 299 CURVE SMOOTH",
"460 299 OFFCURVE",
"433 333 OFFCURVE",
"433 383 CURVE SMOOTH",
"433 434 OFFCURVE",
"465 468 OFFCURVE",
"515 468 CURVE SMOOTH"
);
}
);
width = 754;
},
{
layerId = UUID0;
paths = (
{
closed = 1;
nodes = (
"275 438 OFFCURVE",
"302 412 OFFCURVE",
"302 371 CURVE SMOOTH",
"302 329 OFFCURVE",
"275 304 OFFCURVE",
"241 304 CURVE SMOOTH",
"207 304 OFFCURVE",
"176 322 OFFCURVE",
"176 371 CURVE SMOOTH",
"176 417 OFFCURVE",
"206 438 OFFCURVE",
"237 438 CURVE SMOOTH"
);
},
{
closed = 1;
nodes = (
"396 52 OFFCURVE",
"444 -12 OFFCURVE",
"551 -12 CURVE SMOOTH",
"664 -12 OFFCURVE",
"734 71 OFFCURVE",
"734 234 CURVE SMOOTH",
"734 437 OFFCURVE",
"622 500 OFFCURVE",
"544 500 CURVE SMOOTH",
"458 500 OFFCURVE",
"412 447 OFFCURVE",
"412 381 CURVE SMOOTH",
"412 311 OFFCURVE",
"457 261 OFFCURVE",
"532 261 CURVE SMOOTH",
"601 261 OFFCURVE",
"649 302 OFFCURVE",
"649 379 CURVE SMOOTH",
"649 389 OFFCURVE",
"647 402 OFFCURVE",
"641 415 CURVE",
"631 411 LINE",
"671 367 OFFCURVE",
"687 318 OFFCURVE",
"687 255 CURVE SMOOTH",
"687 142 OFFCURVE",
"620 98 OFFCURVE",
"545 98 CURVE SMOOTH",
"467 98 OFFCURVE",
"424 130 OFFCURVE",
"402 205 CURVE",
"371 205 LINE",
"349 130 OFFCURVE",
"306 98 OFFCURVE",
"228 98 CURVE SMOOTH",
"153 98 OFFCURVE",
"86 142 OFFCURVE",
"86 255 CURVE SMOOTH",
"86 318 OFFCURVE",
"102 367 OFFCURVE",
"142 411 CURVE",
"132 415 LINE",
"126 402 OFFCURVE",
"124 389 OFFCURVE",
"124 379 CURVE SMOOTH",
"124 302 OFFCURVE",
"172 261 OFFCURVE",
"241 261 CURVE SMOOTH",
"316 261 OFFCURVE",
"361 311 OFFCURVE",
"361 381 CURVE SMOOTH",
"361 447 OFFCURVE",
"320 500 OFFCURVE",
"234 500 CURVE SMOOTH",
"156 500 OFFCURVE",
"39 430 OFFCURVE",
"39 231 CURVE SMOOTH",
"39 71 OFFCURVE",
"109 -12 OFFCURVE",
"222 -12 CURVE SMOOTH",
"329 -12 OFFCURVE",
"377 52 OFFCURVE",
"404 147 CURVE",
"369 147 LINE"
);
},
{
closed = 1;
nodes = (
"567 438 OFFCURVE",
"597 417 OFFCURVE",
"597 371 CURVE SMOOTH",
"597 322 OFFCURVE",
"566 304 OFFCURVE",
"532 304 CURVE SMOOTH",
"498 304 OFFCURVE",
"471 329 OFFCURVE",
"471 371 CURVE SMOOTH",
"471 412 OFFCURVE",
"498 438 OFFCURVE",
"536 438 CURVE SMOOTH"
);
}
);
width = 773;
},
{
layerId = "A2C49E55-5C54-436C-AF3A-B2B174879BD8";
paths = (
{
closed = 1;
nodes = (
"284 430 OFFCURVE",
"299 406 OFFCURVE",
"299 376 CURVE SMOOTH",
"299 329 OFFCURVE",
"273 319 OFFCURVE",
"246 319 CURVE SMOOTH",
"216 319 OFFCURVE",
"193 337 OFFCURVE",
"193 374 CURVE SMOOTH",
"193 411 OFFCURVE",
"216 430 OFFCURVE",
"246 430 CURVE SMOOTH"
);
},
{
closed = 1;
nodes = (
"418 52 OFFCURVE",
"477 -12 OFFCURVE",
"585 -12 CURVE SMOOTH",
"704 -12 OFFCURVE",
"777 68 OFFCURVE",
"777 239 CURVE SMOOTH",
"777 432 OFFCURVE",
"674 511 OFFCURVE",
"569 511 CURVE SMOOTH",
"475 511 OFFCURVE",
"424 458 OFFCURVE",
"424 385 CURVE SMOOTH",
"424 304 OFFCURVE",
"483 261 OFFCURVE",
"560 261 CURVE SMOOTH",
"636 261 OFFCURVE",
"681 304 OFFCURVE",
"681 371 CURVE SMOOTH",
"681 397 OFFCURVE",
"671 419 OFFCURVE",
"660 440 CURVE",
"628 436 LINE",
"678 406 OFFCURVE",
"704 361 OFFCURVE",
"704 312 CURVE SMOOTH",
"704 229 OFFCURVE",
"639 204 OFFCURVE",
"573 204 CURVE SMOOTH",
"494 204 OFFCURVE",
"454 232 OFFCURVE",
"432 279 CURVE",
"378 279 LINE",
"356 232 OFFCURVE",
"316 204 OFFCURVE",
"237 204 CURVE SMOOTH",
"171 204 OFFCURVE",
"106 229 OFFCURVE",
"106 312 CURVE SMOOTH",
"106 361 OFFCURVE",
"132 406 OFFCURVE",
"182 436 CURVE",
"150 440 LINE",
"139 419 OFFCURVE",
"129 397 OFFCURVE",
"129 371 CURVE SMOOTH",
"129 304 OFFCURVE",
"174 261 OFFCURVE",
"252 261 CURVE SMOOTH",
"327 261 OFFCURVE",
"386 304 OFFCURVE",
"386 387 CURVE SMOOTH",
"386 460 OFFCURVE",
"339 511 OFFCURVE",
"247 511 CURVE SMOOTH",
"140 511 OFFCURVE",
"33 426 OFFCURVE",
"33 239 CURVE SMOOTH",
"33 68 OFFCURVE",
"106 -12 OFFCURVE",
"225 -12 CURVE SMOOTH",
"333 -12 OFFCURVE",
"392 52 OFFCURVE",
"421 149 CURVE",
"389 149 LINE"
);
},
{
closed = 1;
nodes = (
"596 430 OFFCURVE",
"617 409 OFFCURVE",
"617 376 CURVE SMOOTH",
"617 337 OFFCURVE",
"594 319 OFFCURVE",
"564 319 CURVE SMOOTH",
"537 319 OFFCURVE",
"511 329 OFFCURVE",
"511 376 CURVE SMOOTH",
"511 406 OFFCURVE",
"528 430 OFFCURVE",
"564 430 CURVE SMOOTH"
);
}
);
width = 810;
}
);
leftMetricsKey = ttatelu;
rightMetricsKey = "=|ttatelu";
unicode = 0C34;
},
{
glyphname = shatelu;
lastChange = "2020-01-21 19:05:42 +0000";
layers = (
{
components = (
{
alignment = -1;
name = hattelu;
transform = "{1, 0, 0, 1, 108, 0}";
}
);
layerId = "1282F4F2-4030-47E6-A043-DFF1281EB459";
paths = (
{
closed = 1;
nodes = (
"387 -12 OFFCURVE",
"434 40 OFFCURVE",
"434 123 CURVE SMOOTH",
"434 272 OFFCURVE",
"322 361 OFFCURVE",
"183 361 CURVE SMOOTH",
"73 361 OFFCURVE",
"33 299 OFFCURVE",
"33 231 CURVE SMOOTH",
"33 201 OFFCURVE",
"45 163 OFFCURVE",
"53 140 CURVE",
"79 143 LINE",
"69 169 OFFCURVE",
"59 206 OFFCURVE",
"59 235 CURVE SMOOTH",
"59 299 OFFCURVE",
"102 336 OFFCURVE",
"183 336 CURVE SMOOTH",
"317 336 OFFCURVE",
"407 259 OFFCURVE",
"407 123 CURVE SMOOTH",
"407 58 OFFCURVE",
"373 15 OFFCURVE",
"307 15 CURVE SMOOTH",
"242 15 OFFCURVE",
"209 51 OFFCURVE",
"209 96 CURVE SMOOTH",
"209 164 OFFCURVE",
"252 197 OFFCURVE",
"310 242 CURVE SMOOTH",
"365 284 OFFCURVE",
"416 329 OFFCURVE",
"416 391 CURVE SMOOTH",
"416 455 OFFCURVE",
"375 493 OFFCURVE",
"258 493 CURVE",
"228 470 LINE",
"256 470 LINE SMOOTH",
"350 470 OFFCURVE",
"389 444 OFFCURVE",
"389 392 CURVE SMOOTH",
"389 338 OFFCURVE",
"358 312 OFFCURVE",
"295 262 CURVE SMOOTH",
"224 206 OFFCURVE",
"182 166 OFFCURVE",
"182 96 CURVE SMOOTH",
"182 37 OFFCURVE",
"219 -12 OFFCURVE",
"307 -12 CURVE SMOOTH"
);
}
);
width = 471;
},
{
components = (
{
alignment = -1;
name = hattelu;
transform = "{1, 0, 0, 1, 147, 0}";
}
);
layerId = UUID0;
paths = (
{
closed = 1;
nodes = (
"430 -12 OFFCURVE",
"497 45 OFFCURVE",
"497 156 CURVE SMOOTH",
"497 304 OFFCURVE",
"385 378 OFFCURVE",
"230 378 CURVE SMOOTH",
"101 378 OFFCURVE",
"31 317 OFFCURVE",
"31 226 CURVE SMOOTH",
"31 205 OFFCURVE",
"36 165 OFFCURVE",
"44 142 CURVE",
"132 148 LINE",
"118 178 OFFCURVE",
"112 208 OFFCURVE",
"112 237 CURVE SMOOTH",
"112 304 OFFCURVE",
"165 333 OFFCURVE",
"240 333 CURVE SMOOTH",
"355 333 OFFCURVE",
"437 290 OFFCURVE",
"437 185 CURVE SMOOTH",
"437 125 OFFCURVE",
"394 96 OFFCURVE",
"339 96 CURVE SMOOTH",
"285 96 OFFCURVE",
"260 117 OFFCURVE",
"260 152 CURVE SMOOTH",
"260 191 OFFCURVE",
"285 213 OFFCURVE",
"358 259 CURVE SMOOTH",
"414 294 OFFCURVE",
"476 341 OFFCURVE",
"476 400 CURVE SMOOTH",
"476 455 OFFCURVE",
"438 496 OFFCURVE",
"327 496 CURVE",
"265 455 LINE",
"313 455 LINE SMOOTH",
"384 455 OFFCURVE",
"420 439 OFFCURVE",
"420 394 CURVE SMOOTH",
"420 353 OFFCURVE",
"380 325 OFFCURVE",
"318 286 CURVE SMOOTH",
"246 241 OFFCURVE",
"192 194 OFFCURVE",
"192 121 CURVE SMOOTH",
"192 33 OFFCURVE",
"253 -12 OFFCURVE",
"334 -12 CURVE SMOOTH"
);
}
);
width = 529;
},
{
components = (
{
alignment = -1;
name = hattelu;
transform = "{1, 0, 0, 1, 200, 0}";
}
);
layerId = "A2C49E55-5C54-436C-AF3A-B2B174879BD8";
paths = (
{
closed = 1;
nodes = (
"511 -12 OFFCURVE",
"582 57 OFFCURVE",
"582 168 CURVE SMOOTH",
"582 343 OFFCURVE",
"460 416 OFFCURVE",
"280 416 CURVE SMOOTH",
"111 416 OFFCURVE",
"26 352 OFFCURVE",
"26 239 CURVE SMOOTH",
"26 202 OFFCURVE",
"33 171 OFFCURVE",
"41 148 CURVE",
"192 156 LINE",
"179 187 OFFCURVE",
"171 217 OFFCURVE",
"171 250 CURVE SMOOTH",
"171 323 OFFCURVE",
"230 356 OFFCURVE",
"305 356 CURVE SMOOTH",
"426 356 OFFCURVE",
"488 316 OFFCURVE",
"488 257 CURVE SMOOTH",
"488 216 OFFCURVE",
"452 199 OFFCURVE",
"403 199 CURVE SMOOTH",
"357 199 OFFCURVE",
"339 211 OFFCURVE",
"339 233 CURVE SMOOTH",
"339 247 OFFCURVE",
"353 262 OFFCURVE",
"402 280 CURVE SMOOTH",
"518 323 OFFCURVE",
"549 363 OFFCURVE",
"549 413 CURVE SMOOTH",
"549 455 OFFCURVE",
"511 507 OFFCURVE",
"400 507 CURVE",
"316 454 LINE",
"371 454 LINE SMOOTH",
"441 454 OFFCURVE",
"472 439 OFFCURVE",
"472 401 CURVE SMOOTH",
"472 378 OFFCURVE",
"456 357 OFFCURVE",
"380 330 CURVE SMOOTH",
"287 297 OFFCURVE",
"224 246 OFFCURVE",
"224 151 CURVE SMOOTH",
"224 36 OFFCURVE",
"301 -12 OFFCURVE",
"397 -12 CURVE SMOOTH"
);
}
);
width = 610;
}
);
unicode = 0C36;
},
{
glyphname = avagrahatelu;
lastChange = "2020-01-21 19:05:11 +0000";
layers = (
{
layerId = "1282F4F2-4030-47E6-A043-DFF1281EB459";
paths = (
{
closed = 1;
nodes = (
"72 167 OFFCURVE",
"105 200 OFFCURVE",
"183 236 CURVE SMOOTH",
"261 272 OFFCURVE",
"305 304 OFFCURVE",
"305 378 CURVE SMOOTH",
"305 433 OFFCURVE",
"273 493 OFFCURVE",
"178 493 CURVE SMOOTH",
"83 493 OFFCURVE",
"40 435 OFFCURVE",
"40 373 CURVE SMOOTH",
"40 340 OFFCURVE",
"46 317 OFFCURVE",
"52 298 CURVE",
"78 302 LINE",
"71 321 OFFCURVE",
"67 344 OFFCURVE",
"67 373 CURVE SMOOTH",
"67 427 OFFCURVE",
"98 468 OFFCURVE",
"178 468 CURVE SMOOTH",
"256 468 OFFCURVE",
"278 422 OFFCURVE",
"278 378 CURVE SMOOTH",
"278 321 OFFCURVE",
"249 294 OFFCURVE",
"171 258 CURVE SMOOTH",
"89 220 OFFCURVE",
"45 182 OFFCURVE",
"45 113 CURVE SMOOTH",
"45 25 OFFCURVE",
"107 0 OFFCURVE",
"213 0 CURVE SMOOTH",
"519 0 LINE",
"523 26 LINE",
"217 26 LINE SMOOTH",
"131 26 OFFCURVE",
"72 40 OFFCURVE",
"72 113 CURVE SMOOTH"
);
}
);
width = 538;
},
{
layerId = UUID0;
paths = (
{
closed = 1;
nodes = (
"110 182 OFFCURVE",
"125 207 OFFCURVE",
"206 242 CURVE SMOOTH",
"293 280 OFFCURVE",
"331 319 OFFCURVE",
"331 385 CURVE SMOOTH",
"331 446 OFFCURVE",
"286 500 OFFCURVE",
"190 500 CURVE SMOOTH",
"95 500 OFFCURVE",
"33 449 OFFCURVE",
"33 370 CURVE SMOOTH",
"33 345 OFFCURVE",
"36 322 OFFCURVE",
"43 296 CURVE",
"125 305 LINE",
"114 330 OFFCURVE",
"110 353 OFFCURVE",
"110 376 CURVE SMOOTH",
"110 425 OFFCURVE",
"139 454 OFFCURVE",
"192 454 CURVE SMOOTH",
"239 454 OFFCURVE",
"274 430 OFFCURVE",
"274 381 CURVE SMOOTH",
"274 338 OFFCURVE",
"248 309 OFFCURVE",
"178 281 CURVE SMOOTH",
"89 245 OFFCURVE",
"42 199 OFFCURVE",
"42 129 CURVE SMOOTH",
"42 35 OFFCURVE",
"102 0 OFFCURVE",
"203 0 CURVE",
"532 0 LINE",
"541 104 LINE",
"192 104 LINE SMOOTH",
"134 104 OFFCURVE",
"110 117 OFFCURVE",
"110 155 CURVE SMOOTH"
);
}
);
width = 558;
},
{
layerId = "A2C49E55-5C54-436C-AF3A-B2B174879BD8";
paths = (
{
closed = 1;
nodes = (
"152 255 OFFCURVE",
"173 264 OFFCURVE",
"248 286 CURVE SMOOTH",
"359 319 OFFCURVE",
"380 356 OFFCURVE",
"380 404 CURVE SMOOTH",
"380 462 OFFCURVE",
"338 511 OFFCURVE",
"221 511 CURVE SMOOTH",
"102 511 OFFCURVE",
"27 468 OFFCURVE",
"27 382 CURVE SMOOTH",
"27 360 OFFCURVE",
"31 340 OFFCURVE",
"37 318 CURVE",
"182 339 LINE",
"173 360 OFFCURVE",
"169 375 OFFCURVE",
"169 395 CURVE SMOOTH",
"169 427 OFFCURVE",
"185 454 OFFCURVE",
"237 454 CURVE SMOOTH",
"280 454 OFFCURVE",
"300 439 OFFCURVE",
"300 407 CURVE SMOOTH",
"300 374 OFFCURVE",
"281 356 OFFCURVE",
"193 331 CURVE SMOOTH",
"89 301 OFFCURVE",
"38 255 OFFCURVE",
"38 157 CURVE SMOOTH",
"38 41 OFFCURVE",
"129 0 OFFCURVE",
"239 0 CURVE SMOOTH",
"561 0 LINE",
"581 209 LINE",
"203 209 LINE SMOOTH",
"166 209 OFFCURVE",
"152 215 OFFCURVE",
"152 234 CURVE SMOOTH"
);
}
);
width = 601;
}
);
leftMetricsKey = otelu;
unicode = 0C3D;
},
{
glyphname = aavowelsigntelu;
lastChange = "2020-01-21 19:05:11 +0000";
layers = (
{
layerId = "1282F4F2-4030-47E6-A043-DFF1281EB459";
paths = (
{
closed = 1;
nodes = (
"-514 493 LINE",
"-519 469 LINE",
"29 469 LINE",
"19 473 LINE",
"-18 450 OFFCURVE",
"-33 420 OFFCURVE",
"-33 381 CURVE SMOOTH",
"-33 309 OFFCURVE",
"13 274 OFFCURVE",
"74 274 CURVE SMOOTH",
"136 274 OFFCURVE",
"180 316 OFFCURVE",
"180 382 CURVE SMOOTH",
"180 413 OFFCURVE",
"170 440 OFFCURVE",
"154 457 CURVE SMOOTH",
"128 484 OFFCURVE",
"101 493 OFFCURVE",
"41 493 CURVE SMOOTH"
);
},
{
closed = 1;
nodes = (
"153 333 OFFCURVE",
"126 299 OFFCURVE",
"75 299 CURVE SMOOTH",
"29 299 OFFCURVE",
"-7 323 OFFCURVE",
"-7 383 CURVE SMOOTH",
"-7 433 OFFCURVE",
"24 468 OFFCURVE",
"71 468 CURVE SMOOTH",
"121 468 OFFCURVE",
"153 434 OFFCURVE",
"153 383 CURVE SMOOTH"
);
}
);
width = 201;
},
{
layerId = UUID0;
paths = (
{
closed = 1;
nodes = (
"-514 526 LINE",
"-521 452 LINE",
"-19 452 LINE",
"-15 470 LINE",
"-33 451 OFFCURVE",
"-42 420 OFFCURVE",
"-42 394 CURVE SMOOTH",
"-42 328 OFFCURVE",
"4 282 OFFCURVE",
"77 282 CURVE SMOOTH",
"153 282 OFFCURVE",
"198 332 OFFCURVE",
"198 402 CURVE SMOOTH",
"198 441 OFFCURVE",
"180 476 OFFCURVE",
"149 497 CURVE SMOOTH",
"117 518 OFFCURVE",
"79 526 OFFCURVE",
"3 526 CURVE SMOOTH"
);
},
{
closed = 1;
nodes = (
"139 350 OFFCURVE",
"113 325 OFFCURVE",
"78 325 CURVE SMOOTH",
"43 325 OFFCURVE",
"13 343 OFFCURVE",
"13 392 CURVE SMOOTH",
"13 436 OFFCURVE",
"41 457 OFFCURVE",
"74 457 CURVE SMOOTH",
"115 457 OFFCURVE",
"139 434 OFFCURVE",
"139 392 CURVE SMOOTH"
);
}
);
width = 219;
},
{
layerId = "A2C49E55-5C54-436C-AF3A-B2B174879BD8";
paths = (
{
closed = 1;
nodes = (
"-511 563 LINE",
"-529 428 LINE",
"-10 428 LINE",
"-36 455 LINE",
"-40 449 OFFCURVE",
"-48 427 OFFCURVE",
"-48 400 CURVE SMOOTH",
"-48 320 OFFCURVE",
"-2 272 OFFCURVE",
"85 272 CURVE SMOOTH",
"174 272 OFFCURVE",
"228 316 OFFCURVE",
"228 405 CURVE SMOOTH",
"228 462 OFFCURVE",
"205 499 OFFCURVE",
"168 525 CURVE SMOOTH",
"132 551 OFFCURVE",
"81 563 OFFCURVE",
"-22 563 CURVE SMOOTH"
);
},
{
closed = 1;
nodes = (
"143 345 OFFCURVE",
"117 330 OFFCURVE",
"83 330 CURVE SMOOTH",
"54 330 OFFCURVE",
"28 346 OFFCURVE",
"28 387 CURVE SMOOTH",
"28 422 OFFCURVE",
"50 439 OFFCURVE",
"85 439 CURVE SMOOTH",
"121 439 OFFCURVE",
"143 420 OFFCURVE",
"143 387 CURVE SMOOTH"
);
}
);
width = 249;
}
);
unicode = 0C3E;
},
{
glyphname = ivowelsigntelu;
lastChange = "2020-01-21 19:05:11 +0000";
layers = (
{
layerId = "1282F4F2-4030-47E6-A043-DFF1281EB459";
paths = (
{
closed = 1;
nodes = (
"-214 608 LINE",
"-237 599 OFFCURVE",
"-258 593 OFFCURVE",
"-296 593 CURVE SMOOTH",
"-345 593 OFFCURVE",
"-373 612 OFFCURVE",
"-373 657 CURVE SMOOTH",
"-373 696 OFFCURVE",
"-342 725 OFFCURVE",
"-291 725 CURVE SMOOTH",
"-225 725 OFFCURVE",
"-174 679 OFFCURVE",
"-174 606 CURVE SMOOTH",
"-174 530 OFFCURVE",
"-212 493 OFFCURVE",
"-294 493 CURVE SMOOTH",
"-331 493 OFFCURVE",
"-370 506 OFFCURVE",
"-400 527 CURVE",
"-413 505 LINE",
"-369 479 OFFCURVE",
"-332 469 OFFCURVE",
"-294 469 CURVE SMOOTH",
"-207 469 OFFCURVE",
"-148 508 OFFCURVE",
"-148 608 CURVE SMOOTH",
"-148 689 OFFCURVE",
"-204 750 OFFCURVE",
"-291 750 CURVE SMOOTH",
"-354 750 OFFCURVE",
"-400 712 OFFCURVE",
"-400 657 CURVE SMOOTH",
"-400 600 OFFCURVE",
"-358 568 OFFCURVE",
"-296 568 CURVE SMOOTH",
"-261 568 OFFCURVE",
"-232 574 OFFCURVE",
"-208 585 CURVE"
);
}
);
width = 0;
},
{
layerId = UUID0;
paths = (
{
closed = 1;
nodes = (
"-223 611 LINE",
"-238 605 OFFCURVE",
"-259 598 OFFCURVE",
"-299 598 CURVE SMOOTH",
"-347 598 OFFCURVE",
"-362 615 OFFCURVE",
"-362 644 CURVE SMOOTH",
"-362 675 OFFCURVE",
"-334 694 OFFCURVE",
"-291 694 CURVE SMOOTH",
"-220 694 OFFCURVE",
"-185 657 OFFCURVE",
"-185 593 CURVE SMOOTH",
"-185 540 OFFCURVE",
"-215 500 OFFCURVE",
"-291 500 CURVE SMOOTH",
"-339 500 OFFCURVE",
"-378 517 OFFCURVE",
"-407 540 CURVE",
"-434 495 LINE",
"-386 461 OFFCURVE",
"-326 455 OFFCURVE",
"-291 455 CURVE SMOOTH",
"-161 455 OFFCURVE",
"-132 544 OFFCURVE",
"-132 601 CURVE SMOOTH",
"-132 688 OFFCURVE",
"-185 760 OFFCURVE",
"-287 760 CURVE SMOOTH",
"-367 760 OFFCURVE",
"-420 716 OFFCURVE",
"-420 655 CURVE SMOOTH",
"-420 584 OFFCURVE",
"-366 555 OFFCURVE",
"-301 555 CURVE SMOOTH",
"-266 555 OFFCURVE",
"-235 560 OFFCURVE",
"-214 570 CURVE"
);
}
);
width = 0;
},
{
layerId = "A2C49E55-5C54-436C-AF3A-B2B174879BD8";
paths = (
{
closed = 1;
nodes = (
"-226 619 LINE",
"-245 612 OFFCURVE",
"-271 606 OFFCURVE",
"-302 606 CURVE SMOOTH",
"-344 606 OFFCURVE",
"-360 616 OFFCURVE",
"-360 642 CURVE SMOOTH",
"-360 670 OFFCURVE",
"-333 681 OFFCURVE",
"-294 681 CURVE SMOOTH",
"-225 681 OFFCURVE",
"-187 652 OFFCURVE",
"-187 592 CURVE SMOOTH",
"-187 546 OFFCURVE",
"-218 511 OFFCURVE",
"-291 511 CURVE SMOOTH",
"-349 511 OFFCURVE",
"-385 523 OFFCURVE",
"-423 553 CURVE",
"-459 498 LINE",
"-405 463 OFFCURVE",
"-363 454 OFFCURVE",
"-292 454 CURVE SMOOTH",
"-148 454 OFFCURVE",
"-108 535 OFFCURVE",
"-108 614 CURVE SMOOTH",
"-108 698 OFFCURVE",
"-169 774 OFFCURVE",
"-292 774 CURVE SMOOTH",
"-389 774 OFFCURVE",
"-445 726 OFFCURVE",
"-445 659 CURVE SMOOTH",
"-445 598 OFFCURVE",
"-407 552 OFFCURVE",
"-300 552 CURVE SMOOTH",
"-268 552 OFFCURVE",
"-237 556 OFFCURVE",
"-214 568 CURVE"
);
}
);
width = 0;
}
);
unicode = 0C3F;
},
{
glyphname = iivowelsigntelu;
lastChange = "2020-01-21 19:05:11 +0000";
layers = (
{
layerId = "1282F4F2-4030-47E6-A043-DFF1281EB459";
paths = (
{
closed = 1;
nodes = (
"-214 608 LINE",
"-237 599 OFFCURVE",
"-258 593 OFFCURVE",
"-296 593 CURVE SMOOTH",
"-345 593 OFFCURVE",
"-373 612 OFFCURVE",
"-373 655 CURVE SMOOTH",
"-373 692 OFFCURVE",
"-342 721 OFFCURVE",
"-291 721 CURVE SMOOTH",
"-225 721 OFFCURVE",
"-174 679 OFFCURVE",
"-174 604 CURVE SMOOTH",
"-174 530 OFFCURVE",
"-212 493 OFFCURVE",
"-294 493 CURVE SMOOTH",
"-331 493 OFFCURVE",
"-370 506 OFFCURVE",
"-400 527 CURVE",
"-413 505 LINE",
"-369 479 OFFCURVE",
"-332 469 OFFCURVE",
"-294 469 CURVE SMOOTH",
"-207 469 OFFCURVE",
"-148 508 OFFCURVE",
"-148 606 CURVE SMOOTH",
"-148 689 OFFCURVE",
"-204 746 OFFCURVE",
"-291 746 CURVE SMOOTH",
"-354 746 OFFCURVE",
"-400 708 OFFCURVE",
"-400 655 CURVE SMOOTH",
"-400 600 OFFCURVE",
"-358 568 OFFCURVE",
"-296 568 CURVE SMOOTH",
"-261 568 OFFCURVE",
"-232 574 OFFCURVE",
"-208 585 CURVE"
);
},
{
closed = 1;
nodes = (
"-353 867 OFFCURVE",
"-393 828 OFFCURVE",
"-393 776 CURVE SMOOTH",
"-393 748 OFFCURVE",
"-378 719 OFFCURVE",
"-363 706 CURVE",
"-343 716 LINE",
"-358 731 OFFCURVE",
"-367 748 OFFCURVE",
"-367 773 CURVE SMOOTH",
"-367 816 OFFCURVE",
"-337 842 OFFCURVE",
"-284 842 CURVE SMOOTH",
"-228 842 OFFCURVE",
"-194 810 OFFCURVE",
"-188 751 CURVE",
"-162 752 LINE",
"-168 810 OFFCURVE",
"-202 867 OFFCURVE",
"-284 867 CURVE SMOOTH"
);
}
);
width = 0;
},
{
layerId = UUID0;
paths = (
{
closed = 1;
nodes = (
"-223 609 LINE",
"-238 603 OFFCURVE",
"-259 596 OFFCURVE",
"-299 596 CURVE SMOOTH",
"-347 596 OFFCURVE",
"-362 615 OFFCURVE",
"-362 643 CURVE SMOOTH",
"-362 671 OFFCURVE",
"-336 689 OFFCURVE",
"-291 689 CURVE SMOOTH",
"-219 689 OFFCURVE",
"-185 651 OFFCURVE",
"-185 590 CURVE SMOOTH",
"-185 539 OFFCURVE",
"-216 500 OFFCURVE",
"-291 500 CURVE SMOOTH",
"-339 500 OFFCURVE",
"-378 517 OFFCURVE",
"-407 540 CURVE",
"-434 495 LINE",
"-386 461 OFFCURVE",
"-326 455 OFFCURVE",
"-291 455 CURVE SMOOTH",
"-162 455 OFFCURVE",
"-132 540 OFFCURVE",
"-132 596 CURVE SMOOTH",
"-132 680 OFFCURVE",
"-185 747 OFFCURVE",
"-287 747 CURVE SMOOTH",
"-366 747 OFFCURVE",
"-420 708 OFFCURVE",
"-420 649 CURVE SMOOTH",
"-420 582 OFFCURVE",
"-366 553 OFFCURVE",
"-301 553 CURVE SMOOTH",
"-266 553 OFFCURVE",
"-235 558 OFFCURVE",
"-214 568 CURVE"
);
},
{
closed = 1;
nodes = (
"-362 869 OFFCURVE",
"-410 831 OFFCURVE",
"-410 768 CURVE SMOOTH",
"-410 736 OFFCURVE",
"-395 706 OFFCURVE",
"-374 687 CURVE",
"-328 698 LINE",
"-349 710 OFFCURVE",
"-364 728 OFFCURVE",
"-364 755 CURVE SMOOTH",
"-364 785 OFFCURVE",
"-341 811 OFFCURVE",
"-288 811 CURVE SMOOTH",
"-226 811 OFFCURVE",
"-201 777 OFFCURVE",
"-193 741 CURVE",
"-150 745 LINE",
"-155 800 OFFCURVE",
"-191 869 OFFCURVE",
"-291 869 CURVE SMOOTH"
);
}
);
width = 0;
},
{
layerId = "A2C49E55-5C54-436C-AF3A-B2B174879BD8";
paths = (
{
closed = 1;
nodes = (
"-226 615 LINE",
"-245 608 OFFCURVE",
"-271 602 OFFCURVE",
"-309 602 CURVE SMOOTH",
"-345 602 OFFCURVE",
"-362 610 OFFCURVE",
"-362 632 CURVE SMOOTH",
"-362 656 OFFCURVE",
"-336 664 OFFCURVE",
"-298 664 CURVE SMOOTH",
"-225 664 OFFCURVE",
"-187 639 OFFCURVE",
"-187 584 CURVE SMOOTH",
"-187 546 OFFCURVE",
"-215 511 OFFCURVE",
"-291 511 CURVE SMOOTH",
"-349 511 OFFCURVE",
"-385 523 OFFCURVE",
"-423 553 CURVE",
"-459 498 LINE",
"-405 463 OFFCURVE",
"-363 454 OFFCURVE",
"-289 454 CURVE SMOOTH",
"-143 454 OFFCURVE",
"-108 535 OFFCURVE",
"-108 599 CURVE SMOOTH",
"-108 680 OFFCURVE",
"-165 743 OFFCURVE",
"-287 743 CURVE SMOOTH",
"-379 743 OFFCURVE",
"-444 703 OFFCURVE",
"-444 643 CURVE SMOOTH",
"-444 590 OFFCURVE",
"-407 548 OFFCURVE",
"-300 548 CURVE SMOOTH",
"-268 548 OFFCURVE",
"-237 552 OFFCURVE",
"-214 563 CURVE"
);
},
{
closed = 1;
nodes = (
"-393 869 OFFCURVE",
"-436 817 OFFCURVE",
"-436 758 CURVE SMOOTH",
"-436 719 OFFCURVE",
"-413 684 OFFCURVE",
"-392 666 CURVE",
"-330 691 LINE",
"-353 705 OFFCURVE",
"-367 722 OFFCURVE",
"-367 741 CURVE SMOOTH",
"-367 775 OFFCURVE",
"-341 789 OFFCURVE",
"-289 789 CURVE SMOOTH",
"-230 789 OFFCURVE",
"-201 766 OFFCURVE",
"-188 729 CURVE",
"-125 732 LINE",
"-134 802 OFFCURVE",
"-176 869 OFFCURVE",
"-287 869 CURVE SMOOTH"
);
}
);
width = 0;
}
);
unicode = 0C40;
},
{
glyphname = uvowelsigntelu;
lastChange = "2020-01-21 19:05:23 +0000";
layers = (
{
layerId = "1282F4F2-4030-47E6-A043-DFF1281EB459";
paths = (
{
closed = 1;
nodes = (
"201 -12 OFFCURVE",
"277 36 OFFCURVE",
"277 197 CURVE SMOOTH",
"277 365 OFFCURVE",
"172 488 OFFCURVE",
"15 496 CURVE",
"15 471 LINE",
"157 463 OFFCURVE",
"250 352 OFFCURVE",
"250 197 CURVE SMOOTH",
"250 51 OFFCURVE",
"187 15 OFFCURVE",
"118 15 CURVE SMOOTH",
"41 15 OFFCURVE",
"-12 72 OFFCURVE",
"-50 161 CURVE",
"-65 151 LINE",
"-26 33 OFFCURVE",
"39 -12 OFFCURVE",
"118 -12 CURVE SMOOTH"
);
}
);
width = 319;
},
{
layerId = UUID0;
paths = (
{
closed = 1;
nodes = (
"233 -12 OFFCURVE",
"283 82 OFFCURVE",
"283 215 CURVE SMOOTH",
"283 375 OFFCURVE",
"190 499 OFFCURVE",
"12 504 CURVE",
"9 422 LINE",
"163 416 OFFCURVE",
"238 339 OFFCURVE",
"238 231 CURVE SMOOTH",
"238 144 OFFCURVE",
"196 98 OFFCURVE",
"115 98 CURVE SMOOTH",
"48 98 OFFCURVE",
"5 129 OFFCURVE",
"-43 202 CURVE",
"-73 192 LINE",
"-25 50 OFFCURVE",
"33 -12 OFFCURVE",
"128 -12 CURVE SMOOTH"
);
}
);
width = 318;
},
{
layerId = "A2C49E55-5C54-436C-AF3A-B2B174879BD8";
paths = (
{
closed = 1;
nodes = (
"243 -12 OFFCURVE",
"294 86 OFFCURVE",
"294 221 CURVE SMOOTH",
"294 393 OFFCURVE",
"192 509 OFFCURVE",
"16 515 CURVE",
"10 386 LINE",
"153 382 OFFCURVE",
"224 346 OFFCURVE",
"224 274 CURVE SMOOTH",
"224 231 OFFCURVE",
"189 204 OFFCURVE",
"115 204 CURVE SMOOTH",
"44 204 OFFCURVE",
"2 223 OFFCURVE",
"-57 265 CURVE",
"-92 246 LINE",
"-37 72 OFFCURVE",
"23 -12 OFFCURVE",
"128 -12 CURVE SMOOTH"
);
}
);
width = 323;
}
);
unicode = 0C41;
},
{
glyphname = uuvowelsigntelu;
lastChange = "2020-01-21 19:05:11 +0000";
layers = (
{
layerId = "1282F4F2-4030-47E6-A043-DFF1281EB459";
paths = (
{
closed = 1;
nodes = (
"201 -12 OFFCURVE",
"277 36 OFFCURVE",
"277 196 CURVE SMOOTH",
"277 348 OFFCURVE",
"190 451 OFFCURVE",
"76 479 CURVE",
"39 483 LINE",
"22 468 LINE",
"159 457 OFFCURVE",
"250 348 OFFCURVE",
"250 198 CURVE SMOOTH",
"250 51 OFFCURVE",
"189 15 OFFCURVE",
"118 15 CURVE SMOOTH",
"41 15 OFFCURVE",
"-12 72 OFFCURVE",
"-50 161 CURVE",
"-65 151 LINE",
"-26 33 OFFCURVE",
"39 -12 OFFCURVE",
"118 -12 CURVE SMOOTH"
);
},
{
closed = 1;
nodes = (
"3 491 LINE",
"-1 467 LINE",
"65 467 LINE",
"60 473 LINE",
"100 470 OFFCURVE",
"142 467 OFFCURVE",
"204 467 CURVE SMOOTH",
"395 467 LINE",
"385 471 LINE",
"348 448 OFFCURVE",
"333 418 OFFCURVE",
"333 379 CURVE SMOOTH",
"333 307 OFFCURVE",
"379 272 OFFCURVE",
"440 272 CURVE SMOOTH",
"502 272 OFFCURVE",
"546 314 OFFCURVE",
"546 380 CURVE SMOOTH",
"546 411 OFFCURVE",
"536 438 OFFCURVE",
"520 455 CURVE SMOOTH",
"494 482 OFFCURVE",
"467 491 OFFCURVE",
"407 491 CURVE SMOOTH"
);
},
{
closed = 1;
nodes = (
"519 331 OFFCURVE",
"492 297 OFFCURVE",
"441 297 CURVE SMOOTH",
"395 297 OFFCURVE",
"359 321 OFFCURVE",
"359 381 CURVE SMOOTH",
"359 431 OFFCURVE",
"392 466 OFFCURVE",
"437 466 CURVE SMOOTH",
"487 466 OFFCURVE",
"519 432 OFFCURVE",
"519 381 CURVE SMOOTH"
);
}
);
width = 567;
},
{
layerId = UUID0;
paths = (
{
closed = 1;
nodes = (
"235 -12 OFFCURVE",
"285 75 OFFCURVE",
"285 200 CURVE SMOOTH",
"285 330 OFFCURVE",
"217 414 OFFCURVE",
"144 444 CURVE",
"93 453 LINE",
"3 432 LINE",
"153 419 OFFCURVE",
"238 339 OFFCURVE",
"238 219 CURVE SMOOTH",
"238 144 OFFCURVE",
"196 98 OFFCURVE",
"115 98 CURVE SMOOTH",
"48 98 OFFCURVE",
"5 129 OFFCURVE",
"-43 202 CURVE",
"-73 192 LINE",
"-25 50 OFFCURVE",
"33 -12 OFFCURVE",
"126 -12 CURVE SMOOTH"
);
},
{
closed = 1;
nodes = (
"9 500 LINE",
"-2 428 LINE",
"121 428 LINE",
"142 434 LINE",
"185 430 OFFCURVE",
"217 428 OFFCURVE",
"260 428 CURVE SMOOTH",
"366 428 LINE",
"370 444 LINE",
"352 425 OFFCURVE",
"343 394 OFFCURVE",
"343 368 CURVE SMOOTH",
"343 302 OFFCURVE",
"389 256 OFFCURVE",
"462 256 CURVE SMOOTH",
"538 256 OFFCURVE",
"583 306 OFFCURVE",
"583 376 CURVE SMOOTH",
"583 415 OFFCURVE",
"565 450 OFFCURVE",
"534 471 CURVE SMOOTH",
"502 492 OFFCURVE",
"464 500 OFFCURVE",
"388 500 CURVE SMOOTH"
);
},
{
closed = 1;
nodes = (
"524 324 OFFCURVE",
"498 299 OFFCURVE",
"463 299 CURVE SMOOTH",
"428 299 OFFCURVE",
"398 317 OFFCURVE",
"398 366 CURVE SMOOTH",
"398 411 OFFCURVE",
"424 431 OFFCURVE",
"459 431 CURVE SMOOTH",
"500 431 OFFCURVE",
"524 408 OFFCURVE",
"524 366 CURVE SMOOTH"
);
}
);
width = 600;
},
{
layerId = "A2C49E55-5C54-436C-AF3A-B2B174879BD8";
paths = (
{
closed = 1;
nodes = (
"251 -12 OFFCURVE",
"304 86 OFFCURVE",
"304 217 CURVE SMOOTH",
"304 322 OFFCURVE",
"261 393 OFFCURVE",
"198 415 CURVE",
"108 425 LINE",
"84 383 LINE",
"179 376 OFFCURVE",
"227 338 OFFCURVE",
"227 278 CURVE SMOOTH",
"227 232 OFFCURVE",
"198 204 OFFCURVE",
"122 204 CURVE SMOOTH",
"44 204 OFFCURVE",
"2 223 OFFCURVE",
"-57 265 CURVE",
"-92 246 LINE",
"-37 72 OFFCURVE",
"28 -12 OFFCURVE",
"135 -12 CURVE SMOOTH"
);
},
{
closed = 1;
nodes = (
"39 511 LINE",
"21 382 LINE",
"214 382 LINE",
"229 386 LINE",
"259 383 OFFCURVE",
"285 382 OFFCURVE",
"308 382 CURVE SMOOTH",
"403 382 LINE",
"377 403 LINE",
"373 397 OFFCURVE",
"365 381 OFFCURVE",
"365 348 CURVE SMOOTH",
"365 268 OFFCURVE",
"411 220 OFFCURVE",
"498 220 CURVE SMOOTH",
"587 220 OFFCURVE",
"641 264 OFFCURVE",
"641 353 CURVE SMOOTH",
"641 410 OFFCURVE",
"618 447 OFFCURVE",
"581 473 CURVE SMOOTH",
"545 499 OFFCURVE",
"494 511 OFFCURVE",
"391 511 CURVE SMOOTH"
);
},
{
closed = 1;
nodes = (
"556 293 OFFCURVE",
"530 278 OFFCURVE",
"496 278 CURVE SMOOTH",
"467 278 OFFCURVE",
"441 294 OFFCURVE",
"441 335 CURVE SMOOTH",
"441 370 OFFCURVE",
"463 387 OFFCURVE",
"498 387 CURVE SMOOTH",
"534 387 OFFCURVE",
"556 368 OFFCURVE",
"556 335 CURVE SMOOTH"
);
}
);
width = 658;
}
);
rightMetricsKey = hatelu;
unicode = 0C42;
},
{
glyphname = rvocalicvowelsigntelu;
lastChange = "2020-01-21 19:05:11 +0000";
layers = (
{
layerId = "1282F4F2-4030-47E6-A043-DFF1281EB459";
paths = (
{
closed = 1;
nodes = (
"-29 472 LINE",
"166 379 OFFCURVE",
"311 199 OFFCURVE",
"311 -65 CURVE SMOOTH",
"311 -250 OFFCURVE",
"240 -343 OFFCURVE",
"96 -343 CURVE SMOOTH",
"-24 -343 OFFCURVE",
"-76 -280 OFFCURVE",
"-76 -191 CURVE SMOOTH",
"-76 -121 OFFCURVE",
"-40 -76 OFFCURVE",
"10 -59 CURVE",
"3 -59 LINE",
"-27 -82 OFFCURVE",
"-42 -107 OFFCURVE",
"-42 -142 CURVE SMOOTH",
"-42 -209 OFFCURVE",
"0 -246 OFFCURVE",
"59 -246 CURVE SMOOTH",
"119 -246 OFFCURVE",
"160 -207 OFFCURVE",
"160 -140 CURVE SMOOTH",
"160 -78 OFFCURVE",
"123 -35 OFFCURVE",
"54 -35 CURVE SMOOTH",
"-34 -35 OFFCURVE",
"-99 -95 OFFCURVE",
"-99 -192 CURVE SMOOTH",
"-99 -316 OFFCURVE",
"-14 -369 OFFCURVE",
"95 -369 CURVE SMOOTH",
"257 -369 OFFCURVE",
"338 -266 OFFCURVE",
"338 -65 CURVE SMOOTH",
"338 223 OFFCURVE",
"170 409 OFFCURVE",
"-16 494 CURVE"
);
},
{
closed = 1;
nodes = (
"103 -59 OFFCURVE",
"133 -90 OFFCURVE",
"133 -140 CURVE SMOOTH",
"133 -189 OFFCURVE",
"106 -221 OFFCURVE",
"60 -221 CURVE SMOOTH",
"19 -221 OFFCURVE",
"-17 -198 OFFCURVE",
"-17 -140 CURVE SMOOTH",
"-17 -93 OFFCURVE",
"14 -59 OFFCURVE",
"58 -59 CURVE SMOOTH"
);
}
);
width = 353;
},
{
layerId = UUID0;
paths = (
{
closed = 1;
nodes = (
"-24 442 LINE",
"151 362 OFFCURVE",
"301 196 OFFCURVE",
"301 -44 CURVE SMOOTH",
"301 -220 OFFCURVE",
"227 -304 OFFCURVE",
"87 -304 CURVE SMOOTH",
"-2 -304 OFFCURVE",
"-71 -269 OFFCURVE",
"-71 -184 CURVE SMOOTH",
"-71 -146 OFFCURVE",
"-58 -113 OFFCURVE",
"-31 -86 CURVE",
"-26 -69 LINE",
"-48 -99 OFFCURVE",
"-52 -123 OFFCURVE",
"-52 -146 CURVE SMOOTH",
"-52 -210 OFFCURVE",
"-11 -249 OFFCURVE",
"62 -249 CURVE SMOOTH",
"127 -249 OFFCURVE",
"172 -208 OFFCURVE",
"172 -143 CURVE SMOOTH",
"172 -81 OFFCURVE",
"135 -27 OFFCURVE",
"48 -27 CURVE SMOOTH",
"-43 -27 OFFCURVE",
"-117 -90 OFFCURVE",
"-117 -199 CURVE SMOOTH",
"-117 -328 OFFCURVE",
"-29 -385 OFFCURVE",
"88 -385 CURVE SMOOTH",
"271 -385 OFFCURVE",
"347 -254 OFFCURVE",
"347 -51 CURVE SMOOTH",
"347 230 OFFCURVE",
"186 422 OFFCURVE",
"17 502 CURVE"
);
},
{
closed = 1;
nodes = (
"91 -84 OFFCURVE",
"113 -108 OFFCURVE",
"113 -143 CURVE SMOOTH",
"113 -181 OFFCURVE",
"92 -206 OFFCURVE",
"57 -206 CURVE SMOOTH",
"21 -206 OFFCURVE",
"-2 -184 OFFCURVE",
"-2 -146 CURVE SMOOTH",
"-2 -104 OFFCURVE",
"23 -84 OFFCURVE",
"54 -84 CURVE SMOOTH"
);
}
);
width = 358;
},
{
layerId = "A2C49E55-5C54-436C-AF3A-B2B174879BD8";
paths = (
{
closed = 1;
nodes = (
"-21 422 LINE",
"167 331 OFFCURVE",
"286 149 OFFCURVE",
"286 -43 CURVE SMOOTH",
"286 -177 OFFCURVE",
"220 -271 OFFCURVE",
"84 -271 CURVE SMOOTH",
"-5 -271 OFFCURVE",
"-68 -247 OFFCURVE",
"-68 -169 CURVE SMOOTH",
"-68 -128 OFFCURVE",
"-48 -102 OFFCURVE",
"-18 -73 CURVE",
"-24 -58 LINE",
"-46 -83 OFFCURVE",
"-57 -106 OFFCURVE",
"-57 -138 CURVE SMOOTH",
"-57 -197 OFFCURVE",
"-11 -237 OFFCURVE",
"61 -237 CURVE SMOOTH",
"150 -237 OFFCURVE",
"191 -195 OFFCURVE",
"191 -128 CURVE SMOOTH",
"191 -66 OFFCURVE",
"149 -15 OFFCURVE",
"56 -15 CURVE SMOOTH",
"-54 -15 OFFCURVE",
"-126 -88 OFFCURVE",
"-126 -199 CURVE SMOOTH",
"-126 -343 OFFCURVE",
"-31 -397 OFFCURVE",
"87 -397 CURVE SMOOTH",
"266 -397 OFFCURVE",
"354 -266 OFFCURVE",
"354 -38 CURVE SMOOTH",
"354 227 OFFCURVE",
"214 422 OFFCURVE",
"37 513 CURVE"
);
},
{
closed = 1;
nodes = (
"89 -81 OFFCURVE",
"107 -102 OFFCURVE",
"107 -130 CURVE SMOOTH",
"107 -163 OFFCURVE",
"89 -181 OFFCURVE",
"57 -181 CURVE SMOOTH",
"23 -181 OFFCURVE",
"5 -159 OFFCURVE",
"5 -133 CURVE SMOOTH",
"5 -101 OFFCURVE",
"26 -81 OFFCURVE",
"56 -81 CURVE SMOOTH"
);
}
);
width = 360;
}
);
unicode = 0C43;
},
{
glyphname = rrvocalicvowelsigntelu;
lastChange = "2020-01-21 19:05:11 +0000";
layers = (
{
layerId = "1282F4F2-4030-47E6-A043-DFF1281EB459";
paths = (
{
closed = 1;
nodes = (
"-19 471 LINE",
"172 367 OFFCURVE",
"311 199 OFFCURVE",
"311 -64 CURVE SMOOTH",
"311 -250 OFFCURVE",
"240 -343 OFFCURVE",
"96 -343 CURVE SMOOTH",
"-24 -343 OFFCURVE",
"-76 -280 OFFCURVE",
"-76 -191 CURVE SMOOTH",
"-76 -121 OFFCURVE",
"-40 -76 OFFCURVE",
"10 -59 CURVE",
"3 -59 LINE",
"-27 -82 OFFCURVE",
"-42 -107 OFFCURVE",
"-42 -142 CURVE SMOOTH",
"-42 -209 OFFCURVE",
"0 -246 OFFCURVE",
"59 -246 CURVE SMOOTH",
"119 -246 OFFCURVE",
"160 -207 OFFCURVE",
"160 -140 CURVE SMOOTH",
"160 -78 OFFCURVE",
"123 -35 OFFCURVE",
"54 -35 CURVE SMOOTH",
"-34 -35 OFFCURVE",
"-99 -95 OFFCURVE",
"-99 -192 CURVE SMOOTH",
"-99 -316 OFFCURVE",
"-14 -369 OFFCURVE",
"95 -369 CURVE SMOOTH",
"257 -369 OFFCURVE",
"338 -266 OFFCURVE",
"338 -64 CURVE SMOOTH",
"338 210 OFFCURVE",
"188 387 OFFCURVE",
"-4 486 CURVE"
);
},
{
closed = 1;
nodes = (
"103 -59 OFFCURVE",
"133 -90 OFFCURVE",
"133 -140 CURVE SMOOTH",
"133 -189 OFFCURVE",
"106 -221 OFFCURVE",
"60 -221 CURVE SMOOTH",
"19 -221 OFFCURVE",
"-17 -198 OFFCURVE",
"-17 -140 CURVE SMOOTH",
"-17 -93 OFFCURVE",
"14 -59 OFFCURVE",
"58 -59 CURVE SMOOTH"
);
},
{
closed = 1;
nodes = (
"-6 493 LINE",
"-19 471 LINE",
"13 468 LINE",
"9 472 LINE",
"49 469 OFFCURVE",
"85 469 OFFCURVE",
"147 469 CURVE SMOOTH",
"362 469 LINE",
"352 473 LINE",
"315 450 OFFCURVE",
"300 420 OFFCURVE",
"300 381 CURVE SMOOTH",
"300 309 OFFCURVE",
"346 274 OFFCURVE",
"407 274 CURVE SMOOTH",
"469 274 OFFCURVE",
"513 316 OFFCURVE",
"513 382 CURVE SMOOTH",
"513 413 OFFCURVE",
"503 440 OFFCURVE",
"487 457 CURVE SMOOTH",
"461 484 OFFCURVE",
"434 493 OFFCURVE",
"374 493 CURVE SMOOTH"
);
},
{
closed = 1;
nodes = (
"486 333 OFFCURVE",
"459 299 OFFCURVE",
"408 299 CURVE SMOOTH",
"362 299 OFFCURVE",
"326 323 OFFCURVE",
"326 383 CURVE SMOOTH",
"326 433 OFFCURVE",
"359 468 OFFCURVE",
"404 468 CURVE SMOOTH",
"454 468 OFFCURVE",
"486 434 OFFCURVE",
"486 383 CURVE SMOOTH"
);
}
);
width = 534;
},
{
layerId = UUID0;
paths = (
{
closed = 1;
nodes = (
"-19 442 LINE",
"153 358 OFFCURVE",
"301 196 OFFCURVE",
"301 -44 CURVE SMOOTH",
"301 -221 OFFCURVE",
"227 -305 OFFCURVE",
"87 -305 CURVE SMOOTH",
"-2 -305 OFFCURVE",
"-71 -270 OFFCURVE",
"-71 -184 CURVE SMOOTH",
"-71 -146 OFFCURVE",
"-58 -113 OFFCURVE",
"-31 -86 CURVE",
"-26 -69 LINE",
"-48 -99 OFFCURVE",
"-52 -123 OFFCURVE",
"-52 -146 CURVE SMOOTH",
"-52 -210 OFFCURVE",
"-11 -249 OFFCURVE",
"62 -249 CURVE SMOOTH",
"127 -249 OFFCURVE",
"172 -208 OFFCURVE",
"172 -143 CURVE SMOOTH",
"172 -81 OFFCURVE",
"135 -27 OFFCURVE",
"48 -27 CURVE SMOOTH",
"-43 -27 OFFCURVE",
"-117 -90 OFFCURVE",
"-117 -199 CURVE SMOOTH",
"-117 -329 OFFCURVE",
"-29 -386 OFFCURVE",
"88 -386 CURVE SMOOTH",
"271 -386 OFFCURVE",
"347 -255 OFFCURVE",
"347 -51 CURVE SMOOTH",
"347 216 OFFCURVE",
"210 383 OFFCURVE",
"26 481 CURVE"
);
},
{
closed = 1;
nodes = (
"91 -84 OFFCURVE",
"113 -108 OFFCURVE",
"113 -143 CURVE SMOOTH",
"113 -181 OFFCURVE",
"92 -206 OFFCURVE",
"57 -206 CURVE SMOOTH",
"21 -206 OFFCURVE",
"-2 -184 OFFCURVE",
"-2 -146 CURVE SMOOTH",
"-2 -104 OFFCURVE",
"23 -84 OFFCURVE",
"54 -84 CURVE SMOOTH"
);
},
{
closed = 1;
nodes = (
"5 502 LINE",
"-19 442 LINE",
"78 433 LINE",
"89 436 LINE",
"132 432 OFFCURVE",
"180 430 OFFCURVE",
"229 430 CURVE SMOOTH",
"343 430 LINE",
"347 446 LINE",
"329 427 OFFCURVE",
"320 396 OFFCURVE",
"320 370 CURVE SMOOTH",
"320 304 OFFCURVE",
"366 258 OFFCURVE",
"439 258 CURVE SMOOTH",
"515 258 OFFCURVE",
"560 308 OFFCURVE",
"560 378 CURVE SMOOTH",
"560 417 OFFCURVE",
"542 452 OFFCURVE",
"511 473 CURVE SMOOTH",
"479 494 OFFCURVE",
"441 502 OFFCURVE",
"365 502 CURVE SMOOTH"
);
},
{
closed = 1;
nodes = (
"501 326 OFFCURVE",
"475 301 OFFCURVE",
"440 301 CURVE SMOOTH",
"405 301 OFFCURVE",
"375 319 OFFCURVE",
"375 368 CURVE SMOOTH",
"375 413 OFFCURVE",
"401 433 OFFCURVE",
"436 433 CURVE SMOOTH",
"477 433 OFFCURVE",
"501 410 OFFCURVE",
"501 368 CURVE SMOOTH"
);
}
);
width = 577;
},
{
layerId = "A2C49E55-5C54-436C-AF3A-B2B174879BD8";
paths = (
{
closed = 1;
nodes = (
"-18 424 LINE",
"150 339 OFFCURVE",
"286 176 OFFCURVE",
"286 -43 CURVE SMOOTH",
"286 -177 OFFCURVE",
"220 -271 OFFCURVE",
"84 -271 CURVE SMOOTH",
"-5 -271 OFFCURVE",
"-68 -247 OFFCURVE",
"-68 -169 CURVE SMOOTH",
"-68 -128 OFFCURVE",
"-48 -102 OFFCURVE",
"-18 -73 CURVE",
"-24 -58 LINE",
"-46 -83 OFFCURVE",
"-57 -106 OFFCURVE",
"-57 -140 CURVE SMOOTH",
"-57 -197 OFFCURVE",
"-11 -237 OFFCURVE",
"61 -237 CURVE SMOOTH",
"150 -237 OFFCURVE",
"191 -195 OFFCURVE",
"191 -130 CURVE SMOOTH",
"191 -66 OFFCURVE",
"149 -15 OFFCURVE",
"56 -15 CURVE SMOOTH",
"-54 -15 OFFCURVE",
"-126 -88 OFFCURVE",
"-126 -199 CURVE SMOOTH",
"-126 -343 OFFCURVE",
"-31 -397 OFFCURVE",
"85 -397 CURVE SMOOTH",
"266 -397 OFFCURVE",
"354 -266 OFFCURVE",
"354 -38 CURVE SMOOTH",
"354 204 OFFCURVE",
"234 364 OFFCURVE",
"36 474 CURVE"
);
},
{
closed = 1;
nodes = (
"89 -81 OFFCURVE",
"107 -102 OFFCURVE",
"107 -130 CURVE SMOOTH",
"107 -163 OFFCURVE",
"89 -181 OFFCURVE",
"57 -181 CURVE SMOOTH",
"23 -181 OFFCURVE",
"5 -159 OFFCURVE",
"5 -133 CURVE SMOOTH",
"5 -101 OFFCURVE",
"26 -81 OFFCURVE",
"56 -81 CURVE SMOOTH"
);
},
{
closed = 1;
nodes = (
"19 511 LINE",
"-18 424 LINE",
"136 394 LINE",
"152 388 LINE",
"187 383 OFFCURVE",
"238 382 OFFCURVE",
"261 382 CURVE SMOOTH",
"373 382 LINE",
"347 403 LINE",
"343 397 OFFCURVE",
"335 381 OFFCURVE",
"335 348 CURVE SMOOTH",
"335 268 OFFCURVE",
"381 220 OFFCURVE",
"468 220 CURVE SMOOTH",
"557 220 OFFCURVE",
"611 264 OFFCURVE",
"611 353 CURVE SMOOTH",
"611 410 OFFCURVE",
"588 447 OFFCURVE",
"551 473 CURVE SMOOTH",
"515 499 OFFCURVE",
"464 511 OFFCURVE",
"361 511 CURVE SMOOTH"
);
},
{
closed = 1;
nodes = (
"526 293 OFFCURVE",
"500 278 OFFCURVE",
"466 278 CURVE SMOOTH",
"437 278 OFFCURVE",
"411 294 OFFCURVE",
"411 335 CURVE SMOOTH",
"411 370 OFFCURVE",
"433 387 OFFCURVE",
"468 387 CURVE SMOOTH",
"504 387 OFFCURVE",
"526 368 OFFCURVE",
"526 335 CURVE SMOOTH"
);
}
);
width = 628;
}
);
rightMetricsKey = hatelu;
unicode = 0C44;
},
{
glyphname = evowelsigntelu;
lastChange = "2020-01-21 19:05:11 +0000";
layers = (
{
layerId = "1282F4F2-4030-47E6-A043-DFF1281EB459";
paths = (
{
closed = 1;
nodes = (
"-215 646 LINE SMOOTH",
"-131 646 OFFCURVE",
"-91 627 OFFCURVE",
"-91 568 CURVE SMOOTH",
"-91 503 OFFCURVE",
"-144 493 OFFCURVE",
"-217 493 CURVE SMOOTH",
"-277 493 LINE",
"-277 469 LINE",
"-222 469 LINE SMOOTH",
"-131 469 OFFCURVE",
"-65 489 OFFCURVE",
"-65 568 CURVE SMOOTH",
"-65 602 OFFCURVE",
"-76 624 OFFCURVE",
"-95 641 CURVE SMOOTH",
"-120 663 OFFCURVE",
"-154 671 OFFCURVE",
"-214 671 CURVE SMOOTH",
"-507 671 LINE",
"-512 646 LINE"
);
}
);
width = 0;
},
{
layerId = UUID0;
paths = (
{
closed = 1;
nodes = (
"-211 605 LINE SMOOTH",
"-149 605 OFFCURVE",
"-99 601 OFFCURVE",
"-99 550 CURVE SMOOTH",
"-99 507 OFFCURVE",
"-137 500 OFFCURVE",
"-198 500 CURVE SMOOTH",
"-290 500 LINE",
"-290 455 LINE",
"-200 455 LINE SMOOTH",
"-104 455 OFFCURVE",
"-45 484 OFFCURVE",
"-45 564 CURVE SMOOTH",
"-45 609 OFFCURVE",
"-64 637 OFFCURVE",
"-93 655 CURVE SMOOTH",
"-127 676 OFFCURVE",
"-169 681 OFFCURVE",
"-238 681 CURVE SMOOTH",
"-525 681 LINE",
"-532 605 LINE"
);
}
);
width = 0;
},
{
layerId = "A2C49E55-5C54-436C-AF3A-B2B174879BD8";
paths = (
{
closed = 1;
nodes = (
"-182 583 LINE SMOOTH",
"-128 583 OFFCURVE",
"-118 569 OFFCURVE",
"-118 545 CURVE SMOOTH",
"-118 519 OFFCURVE",
"-139 511 OFFCURVE",
"-189 511 CURVE SMOOTH",
"-287 511 LINE",
"-287 454 LINE",
"-197 454 LINE SMOOTH",
"-97 454 OFFCURVE",
"-31 477 OFFCURVE",
"-31 578 CURVE SMOOTH",
"-31 621 OFFCURVE",
"-48 663 OFFCURVE",
"-89 688 CURVE SMOOTH",
"-121 708 OFFCURVE",
"-155 719 OFFCURVE",
"-253 719 CURVE SMOOTH",
"-526 719 LINE",
"-543 583 LINE"
);
}
);
width = 0;
}
);
unicode = 0C46;
},
{
glyphname = eevowelsigntelu;
lastChange = "2020-01-21 19:05:11 +0000";
layers = (
{
layerId = "1282F4F2-4030-47E6-A043-DFF1281EB459";
paths = (
{
closed = 1;
nodes = (
"-215 646 LINE SMOOTH",
"-131 646 OFFCURVE",
"-91 627 OFFCURVE",
"-91 568 CURVE SMOOTH",
"-91 503 OFFCURVE",
"-144 493 OFFCURVE",
"-217 493 CURVE SMOOTH",
"-266 493 LINE",
"-266 469 LINE",
"-222 469 LINE SMOOTH",
"-131 469 OFFCURVE",
"-65 489 OFFCURVE",
"-65 568 CURVE SMOOTH",
"-65 602 OFFCURVE",
"-76 624 OFFCURVE",
"-95 641 CURVE SMOOTH",
"-120 663 OFFCURVE",
"-154 671 OFFCURVE",
"-214 671 CURVE SMOOTH",
"-507 671 LINE",
"-512 646 LINE"
);
},
{
closed = 1;
nodes = (
"-223 808 OFFCURVE",
"-262 769 OFFCURVE",
"-262 720 CURVE SMOOTH",
"-262 693 OFFCURVE",
"-247 664 OFFCURVE",
"-232 651 CURVE",
"-212 661 LINE",
"-227 676 OFFCURVE",
"-236 693 OFFCURVE",
"-236 717 CURVE SMOOTH",
"-236 757 OFFCURVE",
"-205 783 OFFCURVE",
"-158 783 CURVE SMOOTH",
"-101 783 OFFCURVE",
"-66 745 OFFCURVE",
"-66 673 CURVE",
"-40 673 LINE",
"-40 737 OFFCURVE",
"-69 808 OFFCURVE",
"-158 808 CURVE SMOOTH"
);
}
);
width = 0;
},
{
layerId = UUID0;
paths = (
{
closed = 1;
nodes = (
"-211 605 LINE SMOOTH",
"-149 605 OFFCURVE",
"-99 601 OFFCURVE",
"-99 550 CURVE SMOOTH",
"-99 507 OFFCURVE",
"-137 500 OFFCURVE",
"-198 500 CURVE SMOOTH",
"-290 500 LINE",
"-290 455 LINE",
"-200 455 LINE SMOOTH",
"-104 455 OFFCURVE",
"-45 484 OFFCURVE",
"-45 564 CURVE SMOOTH",
"-45 608 OFFCURVE",
"-65 636 OFFCURVE",
"-94 654 CURVE SMOOTH",
"-128 675 OFFCURVE",
"-170 679 OFFCURVE",
"-238 679 CURVE SMOOTH",
"-525 679 LINE",
"-532 605 LINE"
);
},
{
closed = 1;
nodes = (
"-227 823 OFFCURVE",
"-271 785 OFFCURVE",
"-271 726 CURVE SMOOTH",
"-271 698 OFFCURVE",
"-256 665 OFFCURVE",
"-235 646 CURVE",
"-188 657 LINE",
"-211 669 OFFCURVE",
"-225 686 OFFCURVE",
"-225 712 CURVE SMOOTH",
"-225 742 OFFCURVE",
"-203 765 OFFCURVE",
"-158 765 CURVE SMOOTH",
"-104 765 OFFCURVE",
"-79 734 OFFCURVE",
"-72 687 CURVE",
"-30 688 LINE",
"-33 765 OFFCURVE",
"-70 823 OFFCURVE",
"-158 823 CURVE SMOOTH"
);
}
);
width = 0;
},
{
layerId = "A2C49E55-5C54-436C-AF3A-B2B174879BD8";
paths = (
{
closed = 1;
nodes = (
"-182 583 LINE SMOOTH",
"-128 583 OFFCURVE",
"-118 569 OFFCURVE",
"-118 545 CURVE SMOOTH",
"-118 519 OFFCURVE",
"-139 511 OFFCURVE",
"-189 511 CURVE SMOOTH",
"-287 511 LINE",
"-287 454 LINE",
"-197 454 LINE SMOOTH",
"-97 454 OFFCURVE",
"-31 477 OFFCURVE",
"-31 578 CURVE SMOOTH",
"-31 620 OFFCURVE",
"-48 663 OFFCURVE",
"-89 687 CURVE SMOOTH",
"-121 706 OFFCURVE",
"-152 716 OFFCURVE",
"-248 716 CURVE SMOOTH",
"-526 716 LINE",
"-543 583 LINE"
);
},
{
closed = 1;
nodes = (
"-254 865 OFFCURVE",
"-297 813 OFFCURVE",
"-297 754 CURVE SMOOTH",
"-297 715 OFFCURVE",
"-274 681 OFFCURVE",
"-253 663 CURVE",
"-190 679 LINE",
"-213 693 OFFCURVE",
"-227 709 OFFCURVE",
"-227 728 CURVE SMOOTH",
"-227 762 OFFCURVE",
"-201 776 OFFCURVE",
"-161 776 CURVE SMOOTH",
"-114 776 OFFCURVE",
"-83 752 OFFCURVE",
"-71 701 CURVE",
"-9 703 LINE",
"-15 798 OFFCURVE",
"-59 865 OFFCURVE",
"-160 865 CURVE SMOOTH"
);
}
);
width = 0;
}
);
unicode = 0C47;
},
{
glyphname = ovowelsigntelu;
lastChange = "2020-01-21 19:05:11 +0000";
layers = (
{
layerId = "1282F4F2-4030-47E6-A043-DFF1281EB459";
paths = (
{
closed = 1;
nodes = (
"123 474 OFFCURVE",
"167 514 OFFCURVE",
"167 581 CURVE SMOOTH",
"167 609 OFFCURVE",
"157 636 OFFCURVE",
"141 653 CURVE SMOOTH",
"116 679 OFFCURVE",
"86 689 OFFCURVE",
"28 689 CURVE SMOOTH",
"-49 689 LINE SMOOTH",
"-130 689 OFFCURVE",
"-176 654 OFFCURVE",
"-193 575 CURVE",
"-187 575 LINE",
"-204 661 OFFCURVE",
"-262 689 OFFCURVE",
"-318 689 CURVE SMOOTH",
"-323 689 LINE SMOOTH",
"-392 689 OFFCURVE",
"-444 647 OFFCURVE",
"-444 580 CURVE SMOOTH",
"-444 497 OFFCURVE",
"-383 469 OFFCURVE",
"-308 469 CURVE SMOOTH",
"-271 469 LINE",
"-271 493 LINE",
"-313 493 LINE SMOOTH",
"-396 493 OFFCURVE",
"-417 533 OFFCURVE",
"-417 579 CURVE SMOOTH",
"-417 623 OFFCURVE",
"-392 665 OFFCURVE",
"-323 665 CURVE SMOOTH",
"-315 665 LINE SMOOTH",
"-257 665 OFFCURVE",
"-211 624 OFFCURVE",
"-202 543 CURVE",
"-178 543 LINE",
"-165 621 OFFCURVE",
"-133 665 OFFCURVE",
"-50 665 CURVE SMOOTH",
"20 665 LINE",
"10 669 LINE",
"-28 645 OFFCURVE",
"-42 616 OFFCURVE",
"-42 579 CURVE SMOOTH",
"-42 508 OFFCURVE",
"4 474 OFFCURVE",
"63 474 CURVE SMOOTH"
);
},
{
closed = 1;
nodes = (
"20 499 OFFCURVE",
"-16 521 OFFCURVE",
"-16 581 CURVE SMOOTH",
"-16 629 OFFCURVE",
"15 664 OFFCURVE",
"60 664 CURVE SMOOTH",
"108 664 OFFCURVE",
"140 630 OFFCURVE",
"140 581 CURVE SMOOTH",
"140 531 OFFCURVE",
"113 499 OFFCURVE",
"64 499 CURVE SMOOTH"
);
}
);
width = 142;
},
{
layerId = UUID0;
paths = (
{
closed = 1;
nodes = (
"149 459 OFFCURVE",
"194 505 OFFCURVE",
"194 576 CURVE SMOOTH",
"194 615 OFFCURVE",
"176 649 OFFCURVE",
"145 670 CURVE SMOOTH",
"113 691 OFFCURVE",
"75 699 OFFCURVE",
"-1 699 CURVE SMOOTH",
"-38 699 LINE SMOOTH",
"-130 699 OFFCURVE",
"-180 658 OFFCURVE",
"-197 591 CURVE",
"-182 591 LINE",
"-201 655 OFFCURVE",
"-243 703 OFFCURVE",
"-321 703 CURVE SMOOTH",
"-328 703 LINE SMOOTH",
"-402 703 OFFCURVE",
"-461 659 OFFCURVE",
"-461 583 CURVE SMOOTH",
"-461 513 OFFCURVE",
"-419 455 OFFCURVE",
"-300 455 CURVE SMOOTH",
"-276 455 LINE",
"-276 500 LINE",
"-306 500 LINE SMOOTH",
"-358 500 OFFCURVE",
"-402 510 OFFCURVE",
"-402 565 CURVE SMOOTH",
"-402 602 OFFCURVE",
"-373 629 OFFCURVE",
"-321 629 CURVE SMOOTH",
"-314 629 LINE SMOOTH",
"-251 629 OFFCURVE",
"-219 584 OFFCURVE",
"-205 530 CURVE",
"-174 530 LINE",
"-162 588 OFFCURVE",
"-137 625 OFFCURVE",
"-63 625 CURVE SMOOTH",
"-14 625 LINE",
"-15 643 LINE",
"-33 624 OFFCURVE",
"-42 593 OFFCURVE",
"-42 570 CURVE SMOOTH",
"-42 501 OFFCURVE",
"4 459 OFFCURVE",
"75 459 CURVE SMOOTH"
);
},
{
closed = 1;
nodes = (
"43 502 OFFCURVE",
"13 516 OFFCURVE",
"13 567 CURVE SMOOTH",
"13 609 OFFCURVE",
"41 630 OFFCURVE",
"72 630 CURVE SMOOTH",
"111 630 OFFCURVE",
"135 607 OFFCURVE",
"135 567 CURVE SMOOTH",
"135 523 OFFCURVE",
"109 502 OFFCURVE",
"76 502 CURVE SMOOTH"
);
}
);
width = 174;
},
{
layerId = "A2C49E55-5C54-436C-AF3A-B2B174879BD8";
paths = (
{
closed = 1;
nodes = (
"176 442 OFFCURVE",
"230 484 OFFCURVE",
"230 573 CURVE SMOOTH",
"230 626 OFFCURVE",
"207 663 OFFCURVE",
"170 689 CURVE SMOOTH",
"134 715 OFFCURVE",
"83 726 OFFCURVE",
"1 726 CURVE SMOOTH",
"-24 726 LINE SMOOTH",
"-130 726 OFFCURVE",
"-190 678 OFFCURVE",
"-207 590 CURVE",
"-175 589 LINE",
"-184 667 OFFCURVE",
"-240 730 OFFCURVE",
"-332 730 CURVE SMOOTH",
"-338 730 LINE SMOOTH",
"-433 730 OFFCURVE",
"-490 670 OFFCURVE",
"-490 598 CURVE SMOOTH",
"-490 507 OFFCURVE",
"-418 454 OFFCURVE",
"-310 454 CURVE SMOOTH",
"-277 454 LINE",
"-277 511 LINE",
"-324 511 LINE SMOOTH",
"-361 511 OFFCURVE",
"-397 520 OFFCURVE",
"-397 554 CURVE SMOOTH",
"-397 580 OFFCURVE",
"-378 598 OFFCURVE",
"-332 598 CURVE SMOOTH",
"-311 598 LINE SMOOTH",
"-260 598 OFFCURVE",
"-229 571 OFFCURVE",
"-215 526 CURVE",
"-164 526 LINE",
"-154 573 OFFCURVE",
"-126 594 OFFCURVE",
"-77 594 CURVE SMOOTH",
"-14 594 LINE",
"-28 621 LINE",
"-33 609 OFFCURVE",
"-40 591 OFFCURVE",
"-40 567 CURVE SMOOTH",
"-40 488 OFFCURVE",
"7 442 OFFCURVE",
"89 442 CURVE SMOOTH"
);
},
{
closed = 1;
nodes = (
"60 500 OFFCURVE",
"34 514 OFFCURVE",
"34 555 CURVE SMOOTH",
"34 588 OFFCURVE",
"56 605 OFFCURVE",
"89 605 CURVE SMOOTH",
"123 605 OFFCURVE",
"145 586 OFFCURVE",
"145 555 CURVE SMOOTH",
"145 513 OFFCURVE",
"119 500 OFFCURVE",
"87 500 CURVE SMOOTH"
);
}
);
width = 216;
}
);
unicode = 0C4A;
},
